<?xml version="1.0" encoding="UTF-8"?>
<svg xmlns="http://www.w3.org/2000/svg" xmlns:xlink="http://www.w3.org/1999/xlink" width="85px" height="px" viewBox="0 0 85 85" version="1.1">
<g id="surface1">
<path style=" stroke:none;fill-rule:nonzero;fill:rgb(0%,0%,0%);fill-opacity:1;" d="M 56.667969 56.667969 C 56.667969 58.621094 55.082031 60.207031 53.125 60.207031 C 51.167969 60.207031 49.582031 58.621094 49.582031 56.667969 C 49.582031 54.710938 51.167969 53.125 53.125 53.125 C 55.082031 53.125 56.667969 54.710938 56.667969 56.667969 Z M 67.292969 53.125 C 65.335938 53.125 63.75 54.710938 63.75 56.667969 C 63.75 58.621094 65.335938 60.207031 67.292969 60.207031 C 69.246094 60.207031 70.832031 58.621094 70.832031 56.667969 C 70.832031 54.710938 69.246094 53.125 67.292969 53.125 Z M 60.207031 42.5 C 58.253906 42.5 56.667969 44.085938 56.667969 46.042969 C 56.667969 47.996094 58.253906 49.582031 60.207031 49.582031 C 62.164062 49.582031 63.75 47.996094 63.75 46.042969 C 63.75 44.085938 62.164062 42.5 60.207031 42.5 Z M 85 56.667969 C 85.015625 67.726562 78.582031 77.785156 68.535156 82.40625 C 58.484375 87.03125 46.664062 85.378906 38.269531 78.175781 C 35.703125 82.402344 31.121094 84.992188 26.171875 85 L 16.328125 85 C 10.832031 85.003906 5.828125 81.828125 3.492188 76.855469 C 1.125 71.628906 -0.0664062 65.945312 0 60.207031 C 0.425781 53.351562 2.539062 46.703125 6.148438 40.859375 C 8.5625 37.074219 10.09375 32.792969 10.625 28.332031 C 10.222656 25.707031 9.5625 23.128906 8.664062 20.628906 C 7.855469 18.554688 7.324219 16.382812 7.082031 14.167969 C 7.082031 6.34375 13.425781 0 21.25 0 C 29.074219 0 35.417969 6.34375 35.417969 14.167969 C 35.175781 16.382812 34.644531 18.554688 33.835938 20.628906 C 32.9375 23.128906 32.277344 25.707031 31.875 28.332031 C 32.175781 31.882812 33.273438 35.320312 35.085938 38.386719 C 42.75 29.300781 55.277344 25.972656 66.441406 30.0625 C 77.601562 34.148438 85.019531 44.777344 85 56.667969 Z M 14.167969 14.167969 C 14.222656 14.699219 14.914062 16.902344 15.421875 18.507812 C 16.617188 21.667969 17.386719 24.972656 17.707031 28.332031 L 24.792969 28.332031 C 25.113281 24.972656 25.882812 21.667969 27.078125 18.507812 C 27.578125 17.054688 27.996094 15.570312 28.332031 14.070312 C 28.308594 10.160156 25.113281 7.007812 21.203125 7.035156 C 17.289062 7.0625 14.140625 10.253906 14.167969 14.167969 Z M 32.582031 73.863281 C 34.515625 69.574219 35.480469 64.914062 35.417969 60.207031 C 34.945312 54.496094 33.109375 48.976562 30.0625 44.121094 C 28.527344 41.320312 27.203125 38.410156 26.09375 35.417969 L 16.40625 35.417969 C 15.296875 38.410156 13.972656 41.320312 12.4375 44.121094 C 9.390625 48.976562 7.554688 54.496094 7.082031 60.207031 C 7.019531 64.914062 7.984375 69.578125 9.917969 73.867188 C 11.089844 76.34375 13.585938 77.921875 16.328125 77.917969 L 26.171875 77.917969 C 28.914062 77.921875 31.410156 76.34375 32.582031 73.863281 Z M 77.917969 56.667969 C 77.929688 47.179688 71.644531 38.835938 62.519531 36.234375 C 53.398438 33.632812 43.65625 37.398438 38.660156 45.464844 C 41.03125 50.027344 42.34375 55.066406 42.5 60.207031 C 42.5 63.867188 42.015625 67.511719 41.054688 71.042969 C 46.976562 77.492188 56.246094 79.644531 64.402344 76.464844 C 72.558594 73.28125 77.925781 65.421875 77.917969 56.667969 Z M 77.917969 56.667969 "/>
</g>
</svg>
