<?xml version="1.0" encoding="UTF-8"?>
<svg xmlns="http://www.w3.org/2000/svg" xmlns:xlink="http://www.w3.org/1999/xlink" width="85px" height="px" viewBox="0 0 85 85" version="1.1">
<g id="surface1">
<path style=" stroke:none;fill-rule:nonzero;fill:rgb(0%,0%,0%);fill-opacity:1;" d="M 74.453125 74.375 L 74.433594 74.375 C 78.328125 62.4375 84.234375 33.523438 59.824219 12.421875 C 49.671875 3.640625 37.914062 3.542969 37.417969 3.542969 C 35.660156 3.542969 34.171875 4.832031 33.914062 6.566406 C 32.957031 13.074219 30.535156 15.570312 22.648438 18.1875 L 14.550781 20.875 C 13.878906 21.097656 13.289062 21.519531 12.855469 22.082031 C 9.160156 26.902344 9.160156 37.898438 12.855469 42.722656 C 13.527344 43.597656 14.566406 44.113281 15.667969 44.113281 L 30.796875 44.113281 C 27.660156 47.4375 23.960938 51.644531 21.367188 55.488281 C 16.714844 62.375 13.398438 70.746094 12.070312 74.375 L 10.539062 74.375 C 8.585938 74.375 7 75.960938 7 77.917969 C 7 79.871094 8.585938 81.457031 10.539062 81.457031 L 74.453125 81.457031 C 76.40625 81.457031 77.996094 79.871094 77.996094 77.917969 C 77.996094 75.960938 76.40625 74.375 74.453125 74.375 Z M 27.234375 59.453125 C 32.0625 52.308594 41.636719 43.238281 41.734375 43.148438 C 42.789062 42.152344 43.128906 40.613281 42.59375 39.265625 C 42.0625 37.917969 40.753906 37.03125 39.304688 37.03125 L 17.804688 37.03125 C 16.914062 34.316406 16.988281 29.5625 18.027344 27.1875 L 24.878906 24.914062 C 32.652344 22.335938 38.042969 18.96875 40.242188 10.910156 C 43.691406 11.453125 49.734375 13.0625 55.191406 17.777344 C 78.101562 37.585938 70.160156 65.691406 66.933594 74.375 L 19.660156 74.375 C 21.207031 70.476562 23.875 64.4375 27.238281 59.453125 Z M 27.234375 59.453125 "/>
</g>
</svg>
