<?xml version="1.0" encoding="UTF-8"?>
<svg xmlns="http://www.w3.org/2000/svg" xmlns:xlink="http://www.w3.org/1999/xlink" width="60px" height="60px" viewBox="0 0 60 60" version="1.1">
<g id="surface1">
<path style=" stroke:none;fill-rule:nonzero;fill:rgb(0.784314%,77.254903%,98.823529%);fill-opacity:1;" d="M 46.144531 42.304688 L 42.601562 42.304688 M 20.164062 47.988281 L 19.390625 49.148438 L 18.585938 50.460938 L 18.117188 51.332031 L 17.921875 51.761719 L 17.554688 52.621094 L 17.40625 53.042969 L 17.136719 53.882812 L 17.039062 54.292969 L 16.871094 55.109375 L 16.824219 55.503906 L 16.753906 56.289062 L 16.761719 56.667969 L 16.792969 57.417969 L 16.851562 57.78125 L 16.988281 58.492188 L 17.097656 58.828125 L 17.21875 59.203125 L 17.289062 59.402344 L 17.320312 59.480469 L 17.378906 59.621094 L 17.40625 59.671875 L 17.464844 59.761719 L 17.492188 59.789062 L 17.558594 59.835938 L 17.59375 59.84375 L 17.667969 59.847656 L 17.714844 59.839844 L 17.808594 59.8125 L 17.867188 59.792969 L 17.992188 59.742188 L 18.066406 59.707031 L 18.257812 59.59375 L 18.4375 59.457031 L 18.554688 59.359375 L 18.679688 59.253906 L 18.75 59.191406 L 18.894531 59.0625 L 18.972656 58.992188 L 19.140625 58.839844 L 19.234375 58.753906 L 19.425781 58.574219 L 19.53125 58.476562 L 19.746094 58.273438 L 19.867188 58.160156 L 20.109375 57.925781 L 20.242188 57.800781 L 20.511719 57.539062 L 20.65625 57.394531 L 20.957031 57.105469 L 21.117188 56.945312 L 21.449219 56.621094 L 21.625 56.449219 L 21.984375 56.09375 L 22.179688 55.902344 L 22.574219 55.511719 L 22.78125 55.304688 L 23.210938 54.878906 L 23.4375 54.652344 L 24.085938 54.011719 L 24.492188 53.609375 L 24.683594 53.417969 L 25.058594 53.050781 L 25.234375 52.878906 L 25.574219 52.539062 L 25.734375 52.386719 L 26.046875 52.082031 L 26.1875 51.941406 L 26.46875 51.667969 L 26.601562 51.542969 L 26.851562 51.300781 L 26.96875 51.1875 L 27.195312 50.972656 L 27.296875 50.878906 L 27.496094 50.691406 L 27.585938 50.609375 L 27.757812 50.449219 L 27.835938 50.378906 L 27.988281 50.242188 L 28.050781 50.1875 L 28.179688 50.078125 L 28.234375 50.03125 L 28.433594 49.871094 L 28.5 49.824219 L 28.621094 49.75 L 28.824219 49.699219 L 28.957031 49.664062 L 29.03125 49.640625 L 29.324219 49.546875 L 29.445312 49.503906 L 29.753906 49.398438 L 29.824219 49.378906 L 29.847656 49.375 L 29.882812 49.371094 L 29.882812 49.375 L 29.863281 49.445312 L 29.835938 49.539062 L 29.8125 49.605469 L 29.765625 49.75 L 29.738281 49.835938 L 29.679688 50.007812 L 29.644531 50.101562 L 29.351562 51.234375 L 29.234375 52.007812 L 29.214844 52.402344 L 29.207031 53.195312 L 29.242188 53.59375 L 29.339844 54.390625 L 29.425781 54.785156 L 29.625 55.574219 L 29.761719 55.964844 L 30.058594 56.734375 L 30.242188 57.109375 L 30.640625 57.851562 L 30.871094 58.207031 L 31.363281 58.90625 L 31.640625 59.234375 L 32.285156 59.996094 L 35.820312 59.996094 L 35.726562 59.996094 L 35.339844 60 L 34.542969 60 L 33.742188 60.003906 L 29.542969 60.003906 L 28.691406 60 L 27.003906 59.996094 L 26.164062 59.992188 L 24.542969 59.984375 L 24.140625 59.984375 L 23.363281 59.976562 L 22.976562 59.976562 L 22.230469 59.96875 L 21.863281 59.96875 L 21.15625 59.960938 L 20.808594 59.957031 L 20.152344 59.949219 L 19.828125 59.945312 L 19.21875 59.9375 L 18.921875 59.933594 L 18.371094 59.925781 L 18.105469 59.921875 L 17.621094 59.914062 L 17.386719 59.910156 L 16.976562 59.898438 L 16.777344 59.894531 L 16.441406 59.882812 L 16.285156 59.875 L 16.03125 59.867188 L 15.917969 59.859375 L 15.753906 59.847656 L 15.6875 59.84375 L 15.621094 59.828125 L 15.46875 59.785156 L 15.148438 59.628906 L 14.984375 59.542969 L 14.664062 59.328125 L 14.507812 59.214844 L 14.222656 58.964844 L 13.867188 58.574219 L 13.742188 58.402344 L 13.550781 58.089844 L 13.464844 57.933594 L 13.347656 57.621094 L 13.296875 57.460938 L 13.234375 57.105469 L 13.199219 56.484375 L 13.199219 56.328125 L 13.210938 56.042969 L 13.222656 55.90625 L 13.257812 55.648438 L 13.28125 55.527344 L 13.351562 55.289062 L 13.394531 55.175781 L 13.507812 54.941406 L 13.566406 54.824219 L 13.726562 54.582031 L 13.8125 54.460938 L 14.027344 54.195312 L 14.140625 54.054688 L 14.417969 53.753906 L 14.90625 53.242188 L 16.097656 52.03125 L 16.109375 52.03125 M 10.3125 52.953125 L 10.3125 52.03125 L 10.3125 53.082031 L 10.304688 53.308594 L 10.3125 53.082031 Z M 10.3125 52.953125 "/>
<path style=" stroke:none;fill-rule:nonzero;fill:rgb(28.627452%,33.333334%,37.64706%);fill-opacity:1;" d="M 30.519531 30.585938 L 30.894531 30.585938 L 31.328125 30.589844 L 31.503906 30.589844 L 31.824219 30.597656 L 31.949219 30.601562 L 32.175781 30.613281 L 32.261719 30.621094 L 32.414062 30.640625 L 32.46875 30.652344 L 32.5625 30.679688 L 32.597656 30.699219 L 32.703125 30.78125 L 32.746094 30.847656 L 32.890625 31.136719 L 32.925781 31.332031 L 32.914062 31.425781 L 32.867188 31.621094 L 32.8125 31.714844 L 32.683594 31.90625 L 32.246094 32.34375 L 30.15625 32.339844 L 29.6875 32.335938 L 29.398438 32.332031 L 29.269531 32.332031 L 29.015625 32.324219 L 28.898438 32.320312 L 28.675781 32.308594 L 28.578125 32.304688 L 28.203125 32.273438 L 28.054688 32.25 L 27.78125 32.199219 L 27.679688 32.164062 L 27.496094 32.082031 L 27.429688 32.03125 L 27.316406 31.917969 L 27.277344 31.847656 L 27.21875 31.699219 L 27.207031 31.605469 L 27.1875 31.414062 L 27.1875 31.296875 L 27.199219 31.074219 L 27.230469 30.953125 L 27.257812 30.90625 L 27.328125 30.8125 L 27.386719 30.78125 L 27.523438 30.714844 L 27.617188 30.691406 L 27.832031 30.648438 L 27.976562 30.636719 L 28.289062 30.609375 L 28.488281 30.605469 L 28.695312 30.597656 L 28.8125 30.59375 L 29.050781 30.589844 L 29.183594 30.589844 L 29.457031 30.585938 L 30.089844 30.585938 M 37.71875 28.476562 L 37.941406 28.507812 L 38.042969 28.5625 L 38.234375 28.6875 L 38.3125 28.785156 L 38.433594 28.980469 L 38.492188 29.125 L 38.507812 29.222656 L 38.539062 29.429688 L 38.546875 29.566406 L 38.550781 29.714844 L 38.550781 29.800781 L 38.554688 29.976562 L 38.554688 30.378906 L 38.550781 30.546875 L 38.546875 30.617188 L 38.527344 30.867188 L 38.507812 30.953125 L 38.460938 31.109375 L 38.421875 31.167969 L 38.332031 31.289062 L 38.265625 31.351562 L 38.082031 31.503906 L 37.976562 31.554688 L 37.867188 31.601562 L 37.816406 31.617188 L 37.71875 31.640625 L 37.675781 31.640625 L 37.535156 31.617188 L 37.429688 31.582031 L 37.375 31.554688 L 37.164062 31.433594 L 37.085938 31.351562 L 36.929688 31.167969 L 36.863281 31.039062 L 36.824219 30.851562 L 36.820312 30.792969 L 36.808594 30.671875 L 36.804688 30.597656 L 36.800781 30.4375 L 36.796875 30.34375 L 36.796875 29.710938 L 36.800781 29.535156 L 36.804688 29.460938 L 36.8125 29.324219 L 36.816406 29.265625 L 36.832031 29.160156 L 36.839844 29.113281 L 36.886719 28.957031 L 36.921875 28.898438 L 37.007812 28.789062 L 37.066406 28.730469 L 37.382812 28.53125 L 37.605469 28.472656 M 22.644531 28.492188 L 22.765625 28.519531 L 22.917969 28.601562 L 22.960938 28.636719 L 23.042969 28.71875 L 23.074219 28.773438 L 23.140625 28.886719 L 23.164062 28.957031 L 23.210938 29.105469 L 23.230469 29.191406 L 23.261719 29.378906 L 23.273438 29.484375 L 23.296875 29.710938 L 23.304688 29.835938 L 23.3125 30.191406 L 23.304688 30.40625 L 23.300781 30.503906 L 23.253906 30.863281 L 23.210938 31.003906 L 23.109375 31.253906 L 23.035156 31.34375 L 22.871094 31.492188 L 22.765625 31.53125 L 22.574219 31.601562 L 22.492188 31.617188 L 22.34375 31.632812 L 22.277344 31.625 L 22.144531 31.585938 L 22.078125 31.542969 L 21.933594 31.445312 L 21.847656 31.371094 L 21.671875 31.195312 L 21.597656 31.074219 L 21.578125 30.984375 L 21.5625 30.886719 L 21.558594 30.828125 L 21.546875 30.699219 L 21.546875 30.125 L 21.550781 29.992188 L 21.5625 29.570312 L 21.582031 29.328125 L 21.597656 29.226562 L 21.628906 29.039062 L 21.648438 28.960938 L 21.699219 28.820312 L 21.734375 28.765625 L 21.804688 28.664062 L 21.847656 28.625 L 21.941406 28.558594 L 22 28.539062 L 22.121094 28.5 L 22.195312 28.492188 L 22.347656 28.476562 L 22.4375 28.476562 Z M 22.644531 28.492188 "/>
<path style=" stroke:none;fill-rule:nonzero;fill:rgb(33.333334%,83.137256%,48.235294%);fill-opacity:1;" d="M 44.484375 59.230469 L 44.335938 59.386719 L 44.011719 59.632812 L 43.929688 59.691406 L 43.765625 59.777344 L 43.515625 59.875 L 43.761719 59.777344 L 43.929688 59.691406 L 44.011719 59.636719 L 44.335938 59.386719 L 44.484375 59.230469 L 44.609375 59.085938 M 45.132812 56.90625 L 45.160156 57.050781 L 45.195312 57.289062 L 45.210938 57.398438 L 45.214844 57.59375 L 45.214844 57.6875 L 45.1875 57.878906 L 45.113281 58.191406 L 45.113281 58.195312 L 45.1875 57.878906 L 45.214844 57.6875 L 45.214844 57.589844 L 45.207031 57.386719 L 45.191406 57.269531 L 45.152344 57.015625 L 45.121094 56.867188 M 50.796875 54.707031 L 50.890625 54.714844 L 51.082031 54.71875 L 51.042969 54.726562 L 50.949219 54.734375 L 50.777344 54.703125 L 50.660156 54.664062 M 49.992188 54.257812 L 50.179688 54.417969 L 50.308594 54.5 L 50.511719 54.609375 L 50.5 54.605469 L 50.34375 54.539062 L 50.105469 54.382812 L 50 54.296875 L 49.945312 54.214844 M 55.140625 51.316406 L 54.910156 51.535156 L 54.488281 51.9375 L 54.285156 52.128906 L 53.914062 52.480469 L 53.734375 52.648438 L 53.40625 52.953125 L 53.25 53.101562 L 52.96875 53.359375 L 52.832031 53.484375 L 52.585938 53.703125 L 52.46875 53.808594 L 52.257812 53.988281 L 52.15625 54.078125 L 52.0625 54.152344 L 52.125 54.097656 L 52.265625 53.96875 L 52.566406 53.703125 L 52.734375 53.546875 L 53.085938 53.230469 L 53.273438 53.054688 L 53.664062 52.695312 L 53.871094 52.503906 L 54.71875 51.710938 L 55.152344 51.304688 L 55.417969 51.054688 M 43.816406 53.117188 L 43.960938 53.402344 L 44.007812 53.507812 L 43.769531 53.019531 M 49.6875 52.953125 L 49.6875 52.917969 L 49.6875 53.007812 M 46.699219 42.316406 L 46.113281 43.039062 L 45.800781 43.390625 L 45.53125 43.671875 L 45.375 43.820312 L 45.0625 44.125 L 44.898438 44.277344 L 44.574219 44.570312 L 44.421875 44.699219 L 43.9375 45.117188 L 43.660156 45.355469 L 43.542969 45.457031 L 43.328125 45.648438 L 43.238281 45.730469 L 43.070312 45.882812 L 43.003906 45.945312 L 42.882812 46.0625 L 42.839844 46.113281 L 42.757812 46.203125 L 42.730469 46.238281 L 42.6875 46.304688 L 42.675781 46.328125 L 42.65625 46.375 L 42.65625 46.394531 L 42.675781 46.441406 L 42.707031 46.492188 L 42.847656 46.679688 L 42.933594 46.785156 L 43.121094 47.011719 L 43.234375 47.140625 L 43.472656 47.40625 L 43.601562 47.546875 L 44.367188 48.441406 L 44.875 49.09375 L 45.113281 49.433594 L 45.578125 50.105469 L 45.777344 50.429688 L 45.972656 50.753906 L 46.0625 50.90625 L 46.226562 51.207031 L 46.300781 51.347656 L 46.644531 52.03125 L 43.277344 52.03125 L 43.613281 52.710938 L 43.359375 52.273438 L 42.769531 51.332031 L 42.4375 50.886719 L 41.75 50.003906 L 41.367188 49.589844 L 40.585938 48.78125 L 40.164062 48.40625 L 39.300781 47.679688 L 38.839844 47.351562 L 38.371094 47.027344 L 38.132812 46.875 L 37.648438 46.578125 L 37.398438 46.4375 L 36.652344 46.019531 L 37.976562 45.390625 L 39.367188 44.65625 L 40.253906 44.113281 L 40.683594 43.816406 L 41.519531 43.203125 L 41.917969 42.871094 L 42.703125 42.191406 L 43.070312 41.828125 L 42.601562 42.304688 L 49.6875 42.304688 L 48.195312 42.3125 M 58.78125 46.660156 L 58.8125 46.867188 L 58.824219 46.976562 L 58.824219 47.132812 L 58.824219 46.976562 L 58.8125 46.867188 L 58.78125 46.660156 M 43.441406 41.453125 L 43.082031 41.820312 L 43.484375 41.410156 M 44.605469 40.132812 L 44.144531 40.6875 L 44.121094 40.714844 L 44.140625 40.695312 L 44.632812 40.097656 M 47.777344 34.394531 L 47.542969 35.03125 L 47.421875 35.351562 L 47.132812 36.003906 L 46.980469 36.332031 L 46.644531 36.992188 L 46.601562 37.074219 L 46.738281 36.796875 L 47.070312 36.09375 L 47.292969 35.59375 L 47.398438 35.347656 L 47.59375 34.867188 L 47.675781 34.648438 L 47.75 34.441406 L 47.785156 34.347656 L 47.84375 34.164062 Z M 47.777344 34.394531 "/>
<path style=" stroke:none;fill-rule:nonzero;fill:rgb(34.901962%,83.529413%,99.607843%);fill-opacity:1;" d="M 36.652344 46.019531 L 37.398438 46.4375 L 37.648438 46.578125 L 38.132812 46.875 L 38.371094 47.027344 L 38.839844 47.351562 L 39.300781 47.679688 L 40.164062 48.40625 L 40.585938 48.78125 L 41.367188 49.589844 L 41.75 50.003906 L 42.4375 50.886719 L 42.769531 51.332031 L 43.359375 52.273438 L 43.640625 52.753906 L 44.121094 53.742188 L 44.234375 53.992188 L 44.4375 54.5 L 44.535156 54.757812 L 44.710938 55.273438 L 44.796875 55.535156 L 44.9375 56.058594 L 45.121094 56.851562 L 45.152344 57.015625 L 45.191406 57.269531 L 45.207031 57.386719 L 45.214844 57.589844 L 45.214844 57.6875 L 45.1875 57.878906 L 45.113281 58.195312 L 45.089844 58.285156 L 45.015625 58.460938 L 44.972656 58.554688 L 44.871094 58.730469 L 44.761719 58.90625 L 44.484375 59.230469 L 44.335938 59.386719 L 44.011719 59.636719 L 43.929688 59.691406 L 43.761719 59.777344 L 43.515625 59.875 L 43.480469 59.882812 L 43.324219 59.902344 L 43.234375 59.910156 L 42.96875 59.925781 L 42.824219 59.933594 L 42.457031 59.949219 L 42.261719 59.953125 L 41.789062 59.964844 L 41.542969 59.96875 L 40.972656 59.980469 L 40.675781 59.984375 L 40.011719 59.988281 L 39.667969 59.992188 L 38.914062 59.996094 L 32.285156 59.996094 L 31.640625 59.234375 L 31.363281 58.90625 L 30.871094 58.207031 L 30.640625 57.851562 L 30.242188 57.109375 L 30.058594 56.734375 L 29.761719 55.964844 L 29.625 55.574219 L 29.425781 54.785156 L 29.339844 54.390625 L 29.242188 53.59375 L 29.207031 53.195312 L 29.214844 52.402344 L 29.234375 52.007812 L 29.351562 51.234375 L 29.644531 50.101562 L 29.679688 50.007812 L 29.738281 49.835938 L 29.765625 49.75 L 29.8125 49.605469 L 29.835938 49.539062 L 29.863281 49.445312 L 29.882812 49.375 L 29.882812 49.371094 L 29.847656 49.375 L 29.824219 49.378906 L 29.753906 49.398438 L 29.535156 49.472656 L 29.574219 49.449219 L 29.671875 49.386719 L 29.730469 49.347656 L 29.980469 49.160156 L 30.128906 49.039062 L 30.4375 48.78125 L 30.605469 48.632812 L 30.9375 48.328125 L 31.097656 48.171875 L 32.285156 47.023438 L 33.398438 46.835938 L 34.445312 46.628906 L 35.140625 46.457031 L 35.480469 46.351562 L 36.15625 46.136719 L 36.492188 46.015625 L 37.160156 45.757812 L 37.484375 45.617188 L 37.9375 45.410156 M 23.195312 45.710938 L 23.492188 46.214844 L 23.726562 46.5625 L 23.863281 46.738281 L 24.140625 47.089844 L 24.289062 47.261719 L 24.597656 47.605469 L 24.757812 47.769531 L 25.082031 48.089844 L 25.246094 48.238281 L 25.578125 48.53125 L 25.742188 48.660156 L 26.070312 48.90625 L 26.226562 49.011719 L 26.535156 49.207031 L 26.679688 49.277344 L 27.378906 49.535156 L 27.878906 49.644531 L 28.128906 49.667969 L 28.625 49.6875 L 28.851562 49.660156 L 29.058594 49.632812 L 29.03125 49.640625 L 28.957031 49.664062 L 28.824219 49.699219 L 28.621094 49.75 L 28.5 49.824219 L 28.433594 49.871094 L 28.234375 50.03125 L 28.179688 50.078125 L 28.050781 50.1875 L 27.988281 50.242188 L 27.835938 50.378906 L 27.757812 50.449219 L 27.585938 50.609375 L 27.496094 50.691406 L 27.296875 50.878906 L 27.195312 50.972656 L 26.96875 51.1875 L 26.851562 51.300781 L 26.601562 51.542969 L 26.46875 51.667969 L 26.1875 51.941406 L 26.046875 52.082031 L 25.734375 52.386719 L 25.574219 52.539062 L 25.234375 52.878906 L 25.058594 53.050781 L 24.683594 53.417969 L 24.492188 53.609375 L 24.085938 54.011719 L 23.4375 54.652344 L 23.210938 54.878906 L 22.78125 55.304688 L 22.574219 55.511719 L 22.179688 55.902344 L 21.984375 56.09375 L 21.625 56.449219 L 21.449219 56.621094 L 21.117188 56.945312 L 20.957031 57.105469 L 20.65625 57.394531 L 20.511719 57.539062 L 20.242188 57.800781 L 20.109375 57.925781 L 19.867188 58.160156 L 19.746094 58.273438 L 19.53125 58.476562 L 19.425781 58.574219 L 19.234375 58.753906 L 19.140625 58.839844 L 18.972656 58.992188 L 18.894531 59.0625 L 18.75 59.191406 L 18.679688 59.253906 L 18.554688 59.359375 L 18.4375 59.457031 L 18.257812 59.59375 L 18.066406 59.707031 L 17.992188 59.742188 L 17.867188 59.792969 L 17.808594 59.8125 L 17.714844 59.839844 L 17.667969 59.847656 L 17.59375 59.84375 L 17.558594 59.835938 L 17.492188 59.789062 L 17.464844 59.761719 L 17.40625 59.671875 L 17.378906 59.621094 L 17.320312 59.480469 L 17.289062 59.402344 L 17.21875 59.203125 L 17.097656 58.828125 L 16.988281 58.492188 L 16.851562 57.78125 L 16.792969 57.417969 L 16.761719 56.667969 L 16.753906 56.289062 L 16.824219 55.503906 L 16.871094 55.109375 L 17.039062 54.292969 L 17.136719 53.882812 L 17.40625 53.042969 L 17.554688 52.621094 L 17.921875 51.761719 L 18.117188 51.332031 L 18.585938 50.460938 L 19.390625 49.148438 L 20.164062 47.988281 L 16.539062 51.605469 L 22.933594 45.210938 M 9.398438 54.648438 L 9.222656 54.703125 L 9.132812 54.726562 L 8.957031 54.726562 L 8.863281 54.714844 L 8.828125 54.703125 L 8.90625 54.71875 L 9.003906 54.71875 L 9.199219 54.703125 L 9.296875 54.675781 L 9.488281 54.609375 M 10.082031 54.195312 L 9.894531 54.382812 L 9.675781 54.507812 L 9.957031 54.316406 L 10.101562 54.15625 M 5.8125 52.21875 L 6.027344 52.414062 L 6.441406 52.804688 L 6.632812 52.980469 L 7.007812 53.328125 L 7.179688 53.484375 L 7.46875 53.75 L 7.394531 53.683594 L 7.277344 53.578125 L 7.007812 53.335938 L 6.871094 53.207031 L 6.558594 52.921875 L 6.402344 52.773438 L 6.046875 52.4375 L 5.863281 52.265625 L 5.511719 51.929688 M 10.3125 53.082031 L 10.308594 53.140625 L 10.3125 53.070312 M 3.042969 49.566406 L 2.917969 49.445312 L 2.890625 49.417969 M 1.210938 47.566406 L 1.273438 47.691406 L 1.355469 47.8125 L 1.421875 47.890625 L 1.570312 48.066406 L 1.671875 48.175781 L 1.890625 48.414062 L 2.027344 48.554688 L 2.320312 48.851562 L 2.5 49.03125 L 2.8125 49.339844 L 2.53125 49.0625 L 2.347656 48.882812 L 2.046875 48.574219 L 1.90625 48.429688 L 1.683594 48.191406 L 1.578125 48.078125 L 1.425781 47.898438 L 1.359375 47.820312 L 1.273438 47.695312 L 1.210938 47.566406 L 1.210938 47.558594 M 1.160156 47.265625 L 1.160156 47.265625 M 1.414062 46.480469 L 1.421875 46.472656 M 1.523438 46.339844 L 1.5 46.371094 L 1.523438 46.339844 L 1.578125 46.269531 M 3.679688 44.164062 L 3.503906 44.328125 L 3.167969 44.652344 L 3.015625 44.796875 L 2.726562 45.078125 L 2.597656 45.203125 L 2.351562 45.445312 L 2.246094 45.554688 L 2.039062 45.761719 L 1.953125 45.855469 L 1.785156 46.035156 L 1.710938 46.113281 L 1.605469 46.238281 L 1.710938 46.117188 L 1.78125 46.035156 L 1.949219 45.855469 L 2.039062 45.761719 L 2.242188 45.554688 L 2.351562 45.445312 L 2.597656 45.203125 L 2.726562 45.078125 L 3.015625 44.796875 L 3.167969 44.652344 L 3.503906 44.332031 L 3.679688 44.164062 L 4.066406 43.796875 L 4.710938 43.1875 L 4.066406 43.796875 M 40.683594 43.816406 L 40.253906 44.113281 L 40.109375 44.203125 L 40.304688 44.070312 L 40.722656 43.785156 M 41.519531 43.203125 L 41.222656 43.417969 L 41.753906 43.007812 M 43.074219 41.828125 L 42.703125 42.191406 L 41.917969 42.871094 L 41.757812 43.003906 L 42.03125 42.773438 L 42.574219 42.296875 L 42.835938 42.050781 L 43.242188 41.65625 M 44.140625 40.695312 L 43.796875 41.085938 L 43.484375 41.40625 L 43.605469 41.28125 L 44.09375 40.742188 L 44.285156 40.515625 M 45.109375 39.472656 L 44.800781 39.894531 L 44.351562 40.433594 L 44.789062 39.898438 L 45.007812 39.605469 L 45.253906 39.265625 M 45.703125 38.617188 L 45.53125 38.863281 L 45.636719 38.707031 L 45.960938 38.199219 M 46.503906 37.265625 L 46.308594 37.601562 L 46.574219 37.128906 Z M 46.503906 37.265625 "/>
<path style=" stroke:none;fill-rule:nonzero;fill:rgb(33.333334%,43.529412%,63.921571%);fill-opacity:1;" d="M 7.257812 26.511719 L 7.261719 26.496094 M 24.917969 2.613281 L 24.628906 3.042969 L 24.507812 3.269531 L 24.257812 3.828125 L 24.167969 4.167969 L 24.15625 4.328125 L 24.15625 4.636719 L 24.191406 4.792969 L 24.289062 5.101562 L 24.367188 5.261719 L 24.542969 5.535156 L 24.679688 5.699219 L 24.757812 5.769531 L 24.921875 5.90625 L 25.015625 5.964844 L 25.199219 6.074219 L 25.296875 6.117188 L 25.496094 6.195312 L 25.601562 6.222656 L 25.8125 6.265625 L 25.921875 6.273438 L 26.140625 6.285156 L 26.246094 6.273438 L 26.464844 6.246094 L 26.574219 6.21875 L 26.925781 6.082031 L 27.144531 5.949219 L 27.257812 5.851562 L 27.484375 5.628906 L 27.609375 5.476562 L 27.742188 5.316406 L 27.8125 5.226562 L 27.957031 5.03125 L 28.039062 4.921875 L 28.476562 4.4375 L 28.796875 4.191406 L 28.976562 4.105469 L 29.34375 3.960938 L 29.546875 3.925781 L 29.964844 3.878906 L 30.191406 3.894531 L 30.558594 3.929688 L 30.765625 3.964844 L 30.855469 3.992188 L 31.03125 4.054688 L 31.113281 4.097656 L 31.28125 4.191406 L 31.367188 4.25 L 31.683594 4.515625 L 31.878906 4.71875 L 31.957031 4.824219 L 32.105469 5.03125 L 32.152344 5.125 L 32.226562 5.304688 L 32.226562 5.367188 L 32.15625 5.453125 L 32.042969 5.542969 L 31.960938 5.597656 L 31.78125 5.714844 L 31.671875 5.78125 L 31.445312 5.914062 L 31.320312 5.984375 L 29.832031 6.875 L 28.882812 7.523438 L 28.425781 7.875 L 27.53125 8.59375 L 27.105469 8.976562 L 26.269531 9.765625 L 25.875 10.179688 L 25.101562 11.027344 L 24.742188 11.472656 L 24.035156 12.378906 L 23.707031 12.855469 L 23.074219 13.8125 L 22.785156 14.3125 L 22.222656 15.324219 L 21.972656 15.847656 L 21.601562 16.667969 L 21.367188 17.234375 L 21.257812 17.523438 L 20.839844 18.703125 L 20.664062 19.304688 L 20.339844 20.5 L 20.222656 21.082031 L 20.113281 21.660156 L 20.070312 21.941406 L 19.988281 22.496094 L 19.960938 22.757812 L 19.878906 23.367188 L 19.84375 23.546875 L 19.828125 23.617188 L 19.792969 23.75 L 19.777344 23.789062 L 19.714844 23.949219 L 19.679688 24.007812 L 19.660156 24.011719 L 19.625 24.003906 L 19.601562 23.976562 L 19.542969 23.910156 L 19.503906 23.855469 L 19.457031 23.761719 L 19.429688 23.671875 L 19.421875 23.609375 L 19.398438 23.46875 L 19.390625 23.375 L 19.375 23.175781 L 19.367188 23.050781 L 19.355469 22.78125 L 19.351562 22.613281 L 19.34375 22.261719 L 19.34375 22.050781 L 19.339844 21.605469 L 19.335938 21.34375 L 19.335938 17.328125 L 19.070312 17.40625 L 18.835938 17.496094 L 18.644531 17.585938 L 18.53125 17.644531 L 18.300781 17.769531 L 18.171875 17.839844 L 17.914062 17.992188 L 17.777344 18.074219 L 17.222656 18.421875 L 16.953125 18.609375 L 16.417969 18.988281 L 16.191406 19.164062 L 15.613281 19.664062 L 15.214844 20.039062 L 15.015625 20.242188 L 14.613281 20.667969 L 14.414062 20.894531 L 14.019531 21.355469 L 13.824219 21.59375 L 13.445312 22.074219 L 13.261719 22.320312 L 12.90625 22.816406 L 12.742188 23.0625 L 12.421875 23.554688 L 12.28125 23.796875 L 12.003906 24.277344 L 11.886719 24.507812 L 11.636719 24.910156 L 11.550781 25.015625 L 11.511719 25.050781 L 11.441406 25.113281 L 11.414062 25.125 L 11.339844 25.140625 L 11.261719 25.15625 L 11.207031 25.160156 L 10.960938 25.1875 L 10.796875 25.203125 L 10.4375 25.226562 L 10.234375 25.242188 L 9.8125 25.265625 L 9.585938 25.273438 L 8.976562 25.304688 L 8.648438 25.324219 L 8.515625 25.335938 L 8.273438 25.371094 L 8.175781 25.394531 L 7.996094 25.453125 L 7.925781 25.496094 L 7.789062 25.589844 L 7.78125 25.601562 L 7.78125 25.597656 L 7.855469 25.433594 L 7.890625 25.34375 L 7.949219 25.097656 L 7.960938 25.027344 L 7.984375 24.867188 L 7.996094 24.785156 L 8.019531 24.585938 L 8.03125 24.484375 L 8.054688 24.242188 L 8.117188 23.421875 L 8.203125 22.566406 L 8.226562 22.367188 L 8.269531 22.019531 L 8.277344 21.941406 L 8.296875 21.800781 L 8.324219 21.625 L 8.40625 21.214844 L 8.4375 21.0625 L 8.519531 20.71875 L 8.601562 20.363281 L 8.796875 19.605469 L 8.847656 19.421875 L 8.945312 19.0625 L 8.996094 18.886719 L 9.089844 18.570312 L 9.132812 18.417969 L 9.214844 18.164062 L 9.320312 17.875 L 9.515625 17.414062 L 8.914062 16.894531 L 8.769531 16.769531 L 8.492188 16.503906 L 8.359375 16.367188 L 8.109375 16.078125 L 7.859375 15.78125 L 7.4375 15.136719 L 7.234375 14.804688 L 6.90625 14.097656 L 6.753906 13.742188 L 6.523438 12.992188 L 6.421875 12.613281 L 6.296875 11.839844 L 6.25 11.453125 L 6.234375 10.671875 L 6.242188 10.277344 L 6.335938 9.503906 L 6.617188 8.375 L 6.734375 8.019531 L 7.027344 7.363281 L 7.183594 7.039062 L 7.546875 6.445312 L 7.738281 6.15625 L 8.164062 5.625 L 8.382812 5.367188 L 8.863281 4.90625 L 9.109375 4.679688 L 9.640625 4.289062 L 9.910156 4.097656 L 10.480469 3.777344 L 10.769531 3.625 L 11.371094 3.375 L 11.675781 3.257812 L 12.300781 3.082031 L 12.617188 3.003906 L 13.261719 2.902344 L 13.585938 2.863281 L 14.242188 2.84375 L 14.570312 2.839844 L 15.230469 2.898438 L 15.558594 2.9375 L 16.214844 3.078125 L 16.539062 3.160156 L 17.183594 3.382812 L 17.503906 3.507812 L 18.125 3.816406 L 18.433594 3.980469 L 19.03125 4.378906 L 19.890625 5.078125 L 20.382812 5.53125 L 21.707031 5 L 21.886719 4.925781 L 22.261719 4.78125 L 22.445312 4.707031 L 22.796875 4.578125 L 22.964844 4.519531 L 23.25 4.421875 L 23.316406 4.398438 L 23.425781 4.363281 L 23.5625 4.324219 L 23.679688 4.292969 L 23.851562 4.234375 L 23.925781 4.199219 L 24.039062 4.121094 L 24.089844 4.074219 L 24.175781 3.945312 L 24.304688 3.671875 L 24.40625 3.425781 L 24.671875 2.960938 L 24.816406 2.730469 L 25.039062 2.445312 M 50.710938 17.953125 L 50.683594 17.886719 M 46.546875 2.871094 L 46.863281 2.902344 L 47.488281 3.023438 L 47.796875 3.089844 L 48.402344 3.28125 L 48.703125 3.386719 L 49.28125 3.648438 L 49.566406 3.785156 L 50.117188 4.117188 L 50.382812 4.292969 L 50.890625 4.691406 L 51.140625 4.898438 L 51.601562 5.367188 L 51.828125 5.605469 L 52.238281 6.136719 L 52.433594 6.410156 L 52.785156 7.007812 L 53.234375 7.96875 L 53.308594 8.160156 L 53.4375 8.550781 L 53.496094 8.746094 L 53.589844 9.144531 L 53.632812 9.34375 L 53.695312 9.746094 L 53.722656 9.949219 L 53.753906 10.351562 L 53.777344 10.761719 L 53.734375 11.574219 L 53.699219 11.980469 L 53.539062 12.777344 L 53.441406 13.175781 L 53.167969 13.9375 L 53.015625 14.316406 L 52.632812 15.03125 L 52.527344 15.207031 L 52.304688 15.546875 L 52.1875 15.710938 L 51.933594 16.03125 L 51.804688 16.1875 L 51.53125 16.484375 L 51.085938 16.90625 L 50.550781 17.375 L 50.550781 17.324219 L 50.53125 17.257812 L 50.515625 17.210938 L 50.472656 17.101562 L 50.445312 17.035156 L 50.382812 16.894531 L 50.34375 16.816406 L 50.175781 16.464844 L 50.074219 16.257812 L 49.859375 15.828125 L 49.738281 15.597656 L 49.230469 14.648438 L 48.984375 14.210938 L 48.738281 13.78125 L 48.628906 13.597656 L 48.519531 13.421875 L 48.46875 13.339844 L 48.375 13.1875 L 48.332031 13.125 L 47.664062 12.183594 L 47.199219 11.578125 L 46.957031 11.289062 L 46.46875 10.710938 L 46.210938 10.433594 L 45.695312 9.886719 L 45.425781 9.625 L 44.882812 9.105469 L 44.597656 8.855469 L 44.023438 8.359375 L 43.722656 8.125 L 43.117188 7.65625 L 42.804688 7.429688 L 42.167969 6.984375 L 41.835938 6.773438 L 41.285156 6.425781 L 40.941406 6.21875 L 40.777344 6.121094 L 40.125 5.765625 L 39.78125 5.601562 L 39.621094 5.527344 L 40.109375 5.078125 L 40.375 4.832031 L 40.941406 4.398438 L 41.226562 4.195312 L 41.820312 3.84375 L 42.121094 3.679688 L 42.734375 3.414062 L 43.046875 3.289062 L 43.675781 3.101562 L 43.992188 3.019531 L 44.632812 2.910156 L 44.953125 2.867188 L 45.59375 2.835938 L 45.914062 2.828125 M 37.535156 4.703125 L 37.441406 4.667969 L 37.152344 4.566406 L 37.488281 4.683594 M 25.414062 2.011719 L 25.097656 2.371094 L 25.15625 2.296875 L 25.332031 2.085938 L 25.433594 1.988281 M 32.53125 0.550781 L 32.609375 0.589844 L 32.53125 0.550781 M 30.511719 0.0429688 L 30.816406 0.0664062 L 31.40625 0.179688 L 31.695312 0.246094 L 32.257812 0.441406 L 32.355469 0.480469 L 32.253906 0.441406 L 31.695312 0.246094 L 31.402344 0.179688 L 30.8125 0.0664062 L 30.507812 0.0429688 L 29.894531 0.0195312 L 29.585938 0.0390625 L 29.898438 0.0195312 M 51.523438 20.898438 L 51.484375 20.722656 L 51.304688 19.984375 L 51.230469 19.703125 L 51.304688 19.984375 L 51.484375 20.71875 L 51.523438 20.894531 L 51.59375 21.214844 L 51.675781 21.625 L 51.59375 21.21875 Z M 51.523438 20.898438 "/>
<path style=" stroke:none;fill-rule:nonzero;fill:rgb(40.784314%,49.019608%,66.666669%);fill-opacity:1;" d="M 35.925781 4.128906 L 37.152344 4.566406 L 37.441406 4.667969 L 37.953125 4.855469 L 38.199219 4.945312 L 38.640625 5.117188 L 38.851562 5.199219 L 39.242188 5.359375 L 39.429688 5.441406 L 39.78125 5.601562 L 40.125 5.765625 L 40.777344 6.121094 L 40.941406 6.21875 L 41.285156 6.425781 L 41.835938 6.773438 L 42.167969 6.984375 L 42.804688 7.429688 L 43.117188 7.65625 L 43.722656 8.125 L 44.023438 8.359375 L 44.597656 8.855469 L 44.882812 9.105469 L 45.425781 9.625 L 45.695312 9.886719 L 46.210938 10.433594 L 46.46875 10.710938 L 46.957031 11.289062 L 47.199219 11.578125 L 47.664062 12.183594 L 48.332031 13.125 L 48.375 13.1875 L 48.46875 13.339844 L 48.519531 13.421875 L 48.628906 13.597656 L 48.738281 13.78125 L 48.984375 14.210938 L 49.230469 14.648438 L 49.738281 15.597656 L 49.859375 15.828125 L 50.074219 16.257812 L 50.175781 16.464844 L 50.34375 16.816406 L 50.382812 16.894531 L 50.445312 17.035156 L 50.472656 17.101562 L 50.515625 17.210938 L 50.53125 17.257812 L 50.550781 17.324219 L 50.550781 17.378906 L 50.542969 17.386719 L 50.542969 17.4375 L 50.546875 17.464844 L 50.566406 17.550781 L 50.683594 17.886719 L 50.710938 17.957031 L 50.785156 18.171875 L 50.824219 18.289062 L 50.914062 18.574219 L 50.960938 18.726562 L 51.054688 19.066406 L 51.105469 19.242188 L 51.203125 19.613281 L 51.304688 19.984375 L 51.484375 20.722656 L 51.523438 20.898438 L 51.59375 21.21875 L 51.675781 21.625 L 51.683594 21.675781 L 51.703125 21.800781 L 51.710938 21.867188 L 51.730469 22.019531 L 51.753906 22.179688 L 51.796875 22.566406 L 51.914062 23.832031 L 51.925781 23.984375 L 51.945312 24.242188 L 51.957031 24.371094 L 51.980469 24.585938 L 51.992188 24.691406 L 52.015625 24.867188 L 52.027344 24.953125 L 52.050781 25.097656 L 52.078125 25.234375 L 52.144531 25.433594 L 52.253906 25.640625 L 52.152344 25.542969 L 52.082031 25.496094 L 51.929688 25.421875 L 51.835938 25.398438 L 51.636719 25.351562 L 51.507812 25.335938 L 51.238281 25.3125 L 51.066406 25.300781 L 50.707031 25.28125 L 50.484375 25.273438 L 49.859375 25.238281 L 49.3125 25.199219 L 49.011719 25.171875 L 48.902344 25.160156 L 48.804688 25.148438 L 48.769531 25.144531 L 48.703125 25.132812 L 48.6875 25.128906 L 48.570312 25.0625 L 48.480469 24.976562 L 48.433594 24.921875 L 48.238281 24.667969 L 48.160156 24.519531 L 47.714844 23.738281 L 47.382812 23.210938 L 47.199219 22.945312 L 46.828125 22.414062 L 46.628906 22.152344 L 46.226562 21.628906 L 46.019531 21.378906 L 45.597656 20.878906 L 45.382812 20.644531 L 44.957031 20.183594 L 44.742188 19.96875 L 44.316406 19.554688 L 44.105469 19.367188 L 43.691406 19.015625 L 43.492188 18.863281 L 43.191406 18.65625 L 42.953125 18.5 L 42.824219 18.414062 L 42.269531 18.074219 L 41.996094 17.914062 L 41.726562 17.761719 L 41.597656 17.691406 L 41.359375 17.5625 L 41.257812 17.511719 L 41.066406 17.417969 L 40.996094 17.386719 L 40.878906 17.34375 L 40.851562 17.34375 L 40.835938 17.40625 L 40.828125 17.503906 L 40.824219 17.578125 L 40.816406 17.746094 L 40.8125 17.851562 L 40.804688 18.082031 L 40.800781 18.21875 L 40.796875 18.5 L 40.792969 18.65625 L 40.789062 18.984375 L 40.789062 19.160156 L 40.78125 19.90625 L 40.78125 20.316406 L 40.777344 20.996094 L 40.773438 21.417969 L 40.773438 21.609375 L 40.765625 21.984375 L 40.761719 22.152344 L 40.75 22.476562 L 40.746094 22.621094 L 40.734375 22.894531 L 40.726562 23.007812 L 40.714844 23.230469 L 40.703125 23.316406 L 40.6875 23.480469 L 40.679688 23.542969 L 40.65625 23.652344 L 40.648438 23.683594 L 40.4375 24.148438 L 40.257812 24.425781 L 40.144531 24.550781 L 39.910156 24.785156 L 39.773438 24.886719 L 39.488281 25.074219 L 39.332031 25.148438 L 38.730469 25.425781 L 30.101562 25.429688 L 26.96875 25.429688 L 26.527344 25.425781 L 25.707031 25.425781 L 24.957031 25.421875 L 24.625 25.421875 L 23.992188 25.414062 L 23.714844 25.410156 L 23.179688 25.402344 L 22.949219 25.394531 L 22.507812 25.382812 L 22.320312 25.375 L 21.957031 25.355469 L 21.804688 25.34375 L 21.519531 25.320312 L 21.394531 25.308594 L 21.167969 25.277344 L 21.074219 25.257812 L 20.894531 25.222656 L 20.820312 25.199219 L 20.679688 25.152344 L 20.621094 25.128906 L 20.410156 25.015625 L 20.324219 24.941406 L 20.152344 24.789062 L 19.824219 24.460938 L 19.699219 24.3125 L 19.648438 24.234375 L 19.558594 24.066406 L 19.523438 23.964844 L 19.46875 23.789062 L 19.503906 23.855469 L 19.542969 23.910156 L 19.601562 23.976562 L 19.625 24.003906 L 19.660156 24.011719 L 19.679688 24.007812 L 19.714844 23.949219 L 19.777344 23.789062 L 19.792969 23.75 L 19.828125 23.617188 L 19.84375 23.546875 L 19.878906 23.367188 L 19.960938 22.757812 L 19.988281 22.496094 L 20.070312 21.941406 L 20.113281 21.660156 L 20.222656 21.082031 L 20.339844 20.5 L 20.664062 19.304688 L 20.839844 18.703125 L 21.257812 17.523438 L 21.367188 17.234375 L 21.601562 16.667969 L 21.972656 15.847656 L 22.222656 15.324219 L 22.785156 14.3125 L 23.074219 13.8125 L 23.707031 12.855469 L 24.035156 12.378906 L 24.742188 11.472656 L 25.101562 11.027344 L 25.875 10.179688 L 26.269531 9.765625 L 27.105469 8.976562 L 27.53125 8.59375 L 28.425781 7.875 L 28.882812 7.523438 L 29.832031 6.875 L 31.320312 5.984375 L 31.445312 5.914062 L 31.671875 5.78125 L 31.78125 5.714844 L 31.960938 5.597656 L 32.042969 5.542969 L 32.15625 5.453125 L 32.226562 5.367188 L 32.226562 5.339844 L 32.316406 5.558594 L 32.390625 5.796875 L 32.410156 5.914062 L 32.445312 6.148438 L 32.445312 6.265625 L 32.441406 6.496094 L 32.421875 6.609375 L 32.375 6.835938 L 32.339844 6.945312 L 32.253906 7.167969 L 32.195312 7.277344 L 32.070312 7.496094 L 31.996094 7.601562 L 31.832031 7.816406 L 31.734375 7.921875 L 31.382812 8.253906 L 31.140625 8.417969 L 31.003906 8.476562 L 30.710938 8.585938 L 30.523438 8.625 L 30.328125 8.664062 L 30.21875 8.679688 L 29.992188 8.714844 L 29.863281 8.730469 L 29.382812 8.847656 L 29.089844 8.972656 L 28.957031 9.054688 L 28.710938 9.242188 L 28.605469 9.351562 L 28.414062 9.589844 L 28.34375 9.722656 L 28.238281 10.015625 L 28.183594 10.269531 L 28.164062 10.417969 L 28.128906 10.726562 L 28.121094 10.890625 L 28.105469 11.230469 L 28.105469 11.40625 L 28.113281 11.75 L 28.121094 11.917969 L 28.148438 12.25 L 28.167969 12.398438 L 28.214844 12.6875 L 28.246094 12.804688 L 28.308594 13.03125 L 28.351562 13.109375 L 28.546875 13.445312 L 28.679688 13.617188 L 28.753906 13.683594 L 28.917969 13.808594 L 29.019531 13.859375 L 29.242188 13.960938 L 29.382812 14.011719 L 29.667969 14.105469 L 29.785156 14.132812 L 30.007812 14.167969 L 30.109375 14.160156 L 30.320312 14.128906 L 30.433594 14.089844 L 30.675781 13.992188 L 30.824219 13.914062 L 31.226562 13.648438 L 31.464844 13.425781 L 31.5625 13.304688 L 31.734375 13.058594 L 31.789062 12.9375 L 31.875 12.695312 L 31.875 12.589844 L 31.914062 12.4375 L 31.984375 12.34375 L 32.050781 12.289062 L 32.207031 12.179688 L 32.324219 12.113281 L 32.449219 12.046875 L 32.523438 12.007812 L 32.679688 11.929688 L 32.769531 11.882812 L 33.324219 11.570312 L 33.675781 11.335938 L 33.839844 11.210938 L 34.160156 10.945312 L 34.308594 10.804688 L 34.597656 10.511719 L 34.730469 10.355469 L 34.988281 10.039062 L 35.105469 9.875 L 35.328125 9.535156 L 35.429688 9.359375 L 35.621094 9.003906 L 35.703125 8.820312 L 35.859375 8.449219 L 35.921875 8.257812 L 36.042969 7.875 L 36.089844 7.679688 L 36.171875 7.285156 L 36.199219 7.085938 L 36.246094 6.6875 L 36.253906 6.484375 L 36.257812 6.082031 L 36.246094 5.878906 L 36.214844 5.476562 L 36.179688 5.273438 L 36.105469 4.875 L 36.054688 4.675781 L 35.9375 4.28125 L 35.859375 4.085938 L 35.710938 3.730469 M 19.335938 21.34375 L 19.339844 21.605469 L 19.34375 22.050781 L 19.34375 22.207031 L 19.34375 22.058594 L 19.339844 21.753906 L 19.339844 21.585938 L 19.335938 21.242188 L 19.335938 20.878906 M 30.035156 17.832031 L 29.90625 17.84375 L 29.417969 17.9375 L 29.121094 18.058594 L 28.992188 18.140625 L 28.742188 18.316406 L 28.636719 18.425781 L 28.445312 18.652344 L 28.367188 18.78125 L 28.234375 19.046875 L 28.191406 19.1875 L 28.121094 19.480469 L 28.117188 19.632812 L 28.121094 19.941406 L 28.152344 20.097656 L 28.234375 20.410156 L 28.308594 20.566406 L 28.5 20.898438 L 28.640625 21.078125 L 28.726562 21.152344 L 28.902344 21.292969 L 29.007812 21.347656 L 29.238281 21.460938 L 29.375 21.507812 L 29.664062 21.605469 L 29.78125 21.632812 L 30.007812 21.667969 L 30.109375 21.660156 L 30.320312 21.628906 L 30.433594 21.589844 L 30.675781 21.492188 L 30.824219 21.414062 L 31.289062 21.109375 L 31.53125 20.875 L 31.617188 20.738281 L 31.769531 20.445312 L 31.8125 20.28125 L 31.875 19.9375 L 31.875 19.746094 L 31.820312 19.246094 L 31.722656 18.945312 L 31.644531 18.804688 L 31.46875 18.539062 L 31.351562 18.414062 L 31.097656 18.179688 L 30.933594 18.066406 L 30.703125 17.929688 L 30.5625 17.871094 L 30.488281 17.855469 L 30.332031 17.828125 L 30.234375 17.828125 M 19.335938 20.476562 L 19.335938 20.660156 L 19.335938 17.328125 M 26.246094 6.273438 L 26.140625 6.285156 L 26.019531 6.28125 L 26.160156 6.277344 L 26.367188 6.261719 M 25.289062 6.109375 L 25.578125 6.210938 L 25.726562 6.238281 L 26.015625 6.28125 L 25.921875 6.273438 L 25.8125 6.265625 L 25.601562 6.222656 L 25.496094 6.195312 L 25.296875 6.117188 L 25.199219 6.074219 L 25.015625 5.964844 L 24.984375 5.945312 M 24.203125 4.808594 L 24.300781 5.101562 L 24.367188 5.242188 L 24.429688 5.359375 L 24.367188 5.261719 L 24.289062 5.101562 L 24.191406 4.792969 L 24.15625 4.636719 L 24.15625 4.492188 M 31.210938 4.140625 L 31.371094 4.25 L 31.679688 4.488281 L 31.8125 4.644531 L 31.828125 4.667969 L 31.683594 4.515625 L 31.367188 4.25 L 31.28125 4.191406 L 31.164062 4.125 M 24.257812 3.835938 L 24.257812 3.828125 L 24.261719 3.824219 M 27.324219 0.632812 L 26.871094 0.863281 L 26.652344 1.003906 L 26.21875 1.296875 L 26.015625 1.464844 L 25.609375 1.820312 L 25.414062 2.019531 L 24.925781 2.613281 L 24.636719 3.046875 L 24.519531 3.261719 L 24.441406 3.417969 L 24.507812 3.269531 L 24.628906 3.042969 L 24.917969 2.613281 L 25.070312 2.402344 L 25.414062 2.011719 L 25.589844 1.824219 L 25.980469 1.480469 L 26.183594 1.316406 L 26.613281 1.023438 L 26.832031 0.882812 L 27.300781 0.640625 L 27.535156 0.527344 L 27.550781 0.523438 M 34.035156 1.507812 L 34.0625 1.539062 L 33.980469 1.46875 M 33.3125 0.972656 L 33.433594 1.058594 L 33.234375 0.925781 M 32.253906 0.441406 L 32.53125 0.546875 L 32.78125 0.679688 L 32.527344 0.554688 L 32.304688 0.460938 L 32.023438 0.359375 M 31.402344 0.179688 L 31.695312 0.246094 L 31.8125 0.285156 L 31.613281 0.234375 L 31.308594 0.160156 M 28.28125 0.265625 L 28.28125 0.265625 M 30.8125 0.0664062 L 30.964844 0.0976562 L 30.90625 0.0859375 L 30.570312 0.046875 M 30.054688 0.0234375 L 29.796875 0.0234375 L 29.894531 0.0195312 Z M 30.054688 0.0234375 "/>
<path style=" stroke:none;fill-rule:nonzero;fill:rgb(60.784316%,85.490197%,50.980395%);fill-opacity:1;" d="M 51.15625 39.652344 L 51.527344 39.765625 L 51.539062 39.773438 L 51.582031 39.804688 L 51.609375 39.824219 L 51.675781 39.875 L 51.746094 39.933594 L 51.953125 40.109375 L 52.0625 40.207031 L 52.339844 40.453125 L 52.484375 40.582031 L 52.816406 40.882812 L 52.988281 41.039062 L 53.363281 41.386719 L 53.558594 41.566406 L 53.96875 41.945312 L 54.382812 42.332031 L 55.257812 43.152344 L 55.691406 43.5625 L 56.53125 44.363281 L 56.734375 44.558594 L 57.113281 44.925781 L 57.300781 45.105469 L 57.640625 45.433594 L 57.800781 45.59375 L 58.085938 45.871094 L 58.214844 46.003906 L 58.429688 46.222656 L 58.527344 46.320312 L 58.660156 46.464844 L 58.6875 46.496094 L 58.726562 46.542969 L 58.753906 46.585938 L 58.78125 46.660156 L 58.8125 46.867188 L 58.824219 46.976562 L 58.824219 47.214844 L 58.820312 47.335938 L 58.789062 47.558594 L 58.710938 47.8125 L 58.703125 47.824219 L 58.675781 47.863281 L 58.65625 47.886719 L 58.601562 47.949219 L 58.542969 48.015625 L 58.359375 48.203125 L 58.257812 48.308594 L 58 48.566406 L 57.863281 48.699219 L 57.546875 49.011719 L 57.382812 49.171875 L 57.015625 49.527344 L 56.828125 49.707031 L 56.429688 50.09375 L 56.019531 50.480469 L 55.152344 51.304688 L 54.71875 51.710938 L 53.871094 52.503906 L 53.664062 52.695312 L 53.273438 53.054688 L 53.085938 53.230469 L 52.734375 53.546875 L 52.566406 53.703125 L 52.265625 53.96875 L 52.125 54.097656 L 51.894531 54.296875 L 51.785156 54.390625 L 51.628906 54.519531 L 51.597656 54.546875 L 51.546875 54.582031 L 51.5 54.613281 L 51.386719 54.652344 L 51.179688 54.703125 L 51.082031 54.71875 L 50.890625 54.714844 L 50.796875 54.707031 L 50.609375 54.648438 L 50.511719 54.609375 L 50.308594 54.5 L 50.179688 54.417969 L 49.992188 54.257812 L 49.910156 54.175781 L 49.800781 53.96875 L 49.78125 53.910156 L 49.746094 53.777344 L 49.730469 53.707031 L 49.710938 53.546875 L 49.703125 53.460938 L 49.691406 53.261719 L 49.6875 52.917969 L 49.6875 52.03125 L 46.644531 52.03125 L 46.300781 51.347656 L 46.226562 51.207031 L 46.0625 50.90625 L 45.972656 50.753906 L 45.777344 50.429688 L 45.578125 50.105469 L 45.113281 49.433594 L 44.875 49.09375 L 44.367188 48.441406 L 43.601562 47.546875 L 43.472656 47.40625 L 43.234375 47.140625 L 43.121094 47.011719 L 42.933594 46.785156 L 42.847656 46.679688 L 42.707031 46.492188 L 42.675781 46.441406 L 42.65625 46.394531 L 42.65625 46.375 L 42.675781 46.328125 L 42.6875 46.304688 L 42.730469 46.238281 L 42.757812 46.203125 L 42.839844 46.113281 L 42.882812 46.0625 L 43.003906 45.945312 L 43.070312 45.882812 L 43.238281 45.730469 L 43.328125 45.648438 L 43.542969 45.457031 L 43.660156 45.355469 L 43.9375 45.117188 L 44.421875 44.699219 L 44.574219 44.570312 L 44.898438 44.277344 L 45.0625 44.125 L 45.375 43.820312 L 45.53125 43.671875 L 45.800781 43.390625 L 46.113281 43.039062 L 46.699219 42.316406 L 48.195312 42.3125 L 49.6875 42.304688 L 49.6875 41.0625 L 49.691406 40.976562 L 49.695312 40.828125 L 49.703125 40.691406 L 49.738281 40.503906 L 49.761719 40.417969 L 49.835938 40.285156 L 50.023438 40.078125 L 50.125 39.972656 L 50.371094 39.816406 L 50.496094 39.75 L 50.757812 39.671875 L 50.890625 39.644531 Z M 51.15625 39.652344 "/>
<path style=" stroke:none;fill-rule:nonzero;fill:rgb(90.588236%,86.274511%,95.686275%);fill-opacity:1;" d="M 30.332031 17.828125 L 30.488281 17.855469 L 30.5625 17.871094 L 30.703125 17.929688 L 30.933594 18.066406 L 31.097656 18.179688 L 31.351562 18.414062 L 31.46875 18.539062 L 31.644531 18.804688 L 31.722656 18.945312 L 31.820312 19.246094 L 31.875 19.746094 L 31.875 19.9375 L 31.8125 20.28125 L 31.769531 20.445312 L 31.617188 20.738281 L 31.53125 20.875 L 31.289062 21.109375 L 30.824219 21.414062 L 30.675781 21.492188 L 30.433594 21.589844 L 30.320312 21.628906 L 30.109375 21.660156 L 30.007812 21.667969 L 29.78125 21.632812 L 29.664062 21.605469 L 29.375 21.507812 L 29.238281 21.460938 L 29.007812 21.347656 L 28.902344 21.292969 L 28.726562 21.152344 L 28.640625 21.078125 L 28.5 20.898438 L 28.308594 20.566406 L 28.234375 20.410156 L 28.152344 20.097656 L 28.121094 19.941406 L 28.117188 19.632812 L 28.121094 19.480469 L 28.191406 19.1875 L 28.234375 19.046875 L 28.367188 18.78125 L 28.445312 18.652344 L 28.636719 18.425781 L 28.742188 18.316406 L 28.992188 18.140625 L 29.121094 18.058594 L 29.417969 17.9375 L 29.90625 17.84375 L 30.035156 17.832031 L 30.234375 17.828125 M 30.425781 0.03125 L 30.90625 0.0859375 L 31.144531 0.121094 L 31.613281 0.234375 L 31.847656 0.296875 L 32.304688 0.460938 L 32.527344 0.554688 L 32.964844 0.773438 L 33.179688 0.890625 L 33.59375 1.164062 L 33.792969 1.308594 L 34.179688 1.636719 L 34.363281 1.804688 L 34.710938 2.183594 L 34.882812 2.378906 L 35.191406 2.808594 L 35.605469 3.511719 L 35.699219 3.699219 L 35.859375 4.085938 L 35.9375 4.28125 L 36.054688 4.675781 L 36.105469 4.875 L 36.179688 5.273438 L 36.214844 5.476562 L 36.246094 5.878906 L 36.257812 6.082031 L 36.253906 6.484375 L 36.246094 6.6875 L 36.199219 7.085938 L 36.171875 7.285156 L 36.089844 7.679688 L 36.042969 7.875 L 35.921875 8.257812 L 35.859375 8.449219 L 35.703125 8.820312 L 35.621094 9.003906 L 35.429688 9.359375 L 35.328125 9.535156 L 35.105469 9.875 L 34.988281 10.039062 L 34.730469 10.355469 L 34.597656 10.511719 L 34.308594 10.804688 L 34.160156 10.945312 L 33.839844 11.210938 L 33.675781 11.335938 L 33.324219 11.570312 L 32.769531 11.882812 L 32.679688 11.929688 L 32.523438 12.007812 L 32.449219 12.046875 L 32.324219 12.113281 L 32.207031 12.179688 L 32.050781 12.289062 L 31.984375 12.34375 L 31.914062 12.4375 L 31.875 12.589844 L 31.875 12.695312 L 31.789062 12.9375 L 31.734375 13.058594 L 31.5625 13.304688 L 31.464844 13.425781 L 31.226562 13.648438 L 30.824219 13.914062 L 30.675781 13.992188 L 30.433594 14.089844 L 30.320312 14.128906 L 30.109375 14.160156 L 30.007812 14.167969 L 29.785156 14.132812 L 29.667969 14.105469 L 29.382812 14.011719 L 29.242188 13.960938 L 29.019531 13.859375 L 28.917969 13.808594 L 28.753906 13.683594 L 28.679688 13.617188 L 28.546875 13.445312 L 28.351562 13.109375 L 28.308594 13.03125 L 28.246094 12.804688 L 28.214844 12.6875 L 28.167969 12.398438 L 28.148438 12.25 L 28.121094 11.917969 L 28.113281 11.75 L 28.105469 11.40625 L 28.105469 11.230469 L 28.121094 10.890625 L 28.128906 10.726562 L 28.164062 10.417969 L 28.183594 10.269531 L 28.238281 10.015625 L 28.34375 9.722656 L 28.414062 9.589844 L 28.605469 9.351562 L 28.710938 9.242188 L 28.957031 9.054688 L 29.089844 8.972656 L 29.382812 8.847656 L 29.863281 8.730469 L 29.992188 8.714844 L 30.21875 8.679688 L 30.328125 8.664062 L 30.523438 8.625 L 30.710938 8.585938 L 31.003906 8.476562 L 31.140625 8.417969 L 31.382812 8.253906 L 31.734375 7.921875 L 31.832031 7.816406 L 31.996094 7.601562 L 32.070312 7.496094 L 32.195312 7.277344 L 32.253906 7.167969 L 32.339844 6.945312 L 32.375 6.835938 L 32.421875 6.609375 L 32.441406 6.496094 L 32.445312 6.265625 L 32.445312 6.148438 L 32.410156 5.914062 L 32.390625 5.796875 L 32.316406 5.558594 L 32.164062 5.191406 L 32.058594 4.984375 L 31.8125 4.644531 L 31.679688 4.488281 L 31.371094 4.25 L 31.210938 4.140625 L 30.835938 4 L 30.191406 3.894531 L 29.964844 3.878906 L 29.546875 3.925781 L 29.34375 3.960938 L 28.976562 4.105469 L 28.796875 4.191406 L 28.476562 4.4375 L 28.039062 4.921875 L 27.957031 5.03125 L 27.8125 5.226562 L 27.742188 5.316406 L 27.609375 5.476562 L 27.484375 5.628906 L 27.257812 5.851562 L 27.144531 5.949219 L 26.925781 6.082031 L 26.574219 6.21875 L 26.441406 6.253906 L 26.160156 6.277344 L 26.015625 6.28125 L 25.726562 6.238281 L 25.578125 6.210938 L 25.289062 6.109375 L 24.875 5.890625 L 24.78125 5.828125 L 24.601562 5.625 L 24.515625 5.511719 L 24.367188 5.242188 L 24.300781 5.101562 L 24.203125 4.808594 L 24.140625 4.386719 L 24.140625 4.316406 L 24.167969 4.152344 L 24.183594 4.066406 L 24.242188 3.878906 L 24.308594 3.6875 L 24.519531 3.261719 L 24.636719 3.046875 L 24.925781 2.613281 L 25.414062 2.019531 L 25.609375 1.820312 L 26.015625 1.464844 L 26.21875 1.296875 L 26.652344 1.003906 L 26.871094 0.863281 L 27.324219 0.632812 L 27.550781 0.523438 L 28.019531 0.347656 L 28.253906 0.269531 L 28.734375 0.152344 L 28.972656 0.101562 L 29.457031 0.046875 L 29.699219 0.0234375 L 30.183594 0.0234375 Z M 30.425781 0.03125 "/>
<path style=" stroke:none;fill-rule:nonzero;fill:rgb(99.607843%,86.274511%,80.784315%);fill-opacity:1;" d="M 37.382812 28.53125 L 37.066406 28.730469 L 37.007812 28.789062 L 36.921875 28.898438 L 36.886719 28.957031 L 36.839844 29.113281 L 36.832031 29.160156 L 36.816406 29.265625 L 36.8125 29.324219 L 36.804688 29.460938 L 36.800781 29.535156 L 36.796875 29.710938 L 36.796875 30.34375 L 36.800781 30.4375 L 36.804688 30.597656 L 36.808594 30.671875 L 36.820312 30.792969 L 36.824219 30.851562 L 36.863281 31.039062 L 36.929688 31.167969 L 37.085938 31.351562 L 37.164062 31.433594 L 37.375 31.554688 L 37.429688 31.582031 L 37.476562 31.597656 L 37.355469 31.585938 L 37.242188 31.597656 L 37.191406 31.617188 L 37.09375 31.660156 L 37.042969 31.703125 L 36.941406 31.792969 L 36.882812 31.855469 L 36.582031 32.230469 L 36.429688 32.488281 L 36.375 32.625 L 36.277344 32.898438 L 36.25 33.046875 L 36.210938 33.34375 L 36.210938 33.503906 L 36.238281 33.992188 L 36.289062 34.265625 L 36.339844 34.386719 L 36.453125 34.625 L 36.539062 34.75 L 36.730469 35 L 36.859375 35.148438 L 37.261719 35.542969 L 37.53125 35.761719 L 37.675781 35.847656 L 37.972656 36.011719 L 38.136719 36.082031 L 38.480469 36.210938 L 38.679688 36.265625 L 39 36.34375 L 39.164062 36.367188 L 39.492188 36.40625 L 39.992188 36.40625 L 40.484375 36.347656 L 40.648438 36.3125 L 40.96875 36.234375 L 41.125 36.179688 L 41.433594 36.066406 L 41.578125 35.996094 L 41.867188 35.847656 L 41.996094 35.761719 L 42.257812 35.578125 L 42.375 35.472656 L 42.78125 35.054688 L 43 34.761719 L 43.082031 34.609375 L 43.226562 34.304688 L 43.273438 34.148438 L 43.347656 33.832031 L 43.359375 33.671875 L 43.363281 33.355469 L 43.335938 33.195312 L 43.265625 32.875 L 43.203125 32.714844 L 43.058594 32.398438 L 42.960938 32.246094 L 42.742188 31.933594 L 42.609375 31.785156 L 42.078125 31.3125 L 41.890625 31.1875 L 41.789062 31.136719 L 41.582031 31.039062 L 41.46875 30.996094 L 41.242188 30.921875 L 41.117188 30.890625 L 40.863281 30.839844 L 40.726562 30.820312 L 40.441406 30.789062 L 40.285156 30.777344 L 39.96875 30.765625 L 39.484375 30.765625 L 39.304688 30.769531 L 39.226562 30.769531 L 39.082031 30.777344 L 39.019531 30.78125 L 38.90625 30.789062 L 38.863281 30.796875 L 38.703125 30.828125 L 38.65625 30.847656 L 38.585938 30.898438 L 38.578125 30.929688 L 38.53125 31.019531 L 38.484375 31.09375 L 38.453125 31.132812 L 38.382812 31.222656 L 38.421875 31.167969 L 38.460938 31.109375 L 38.507812 30.953125 L 38.527344 30.867188 L 38.546875 30.617188 L 38.550781 30.546875 L 38.554688 30.378906 L 38.554688 29.976562 L 38.550781 29.800781 L 38.550781 29.714844 L 38.546875 29.566406 L 38.539062 29.429688 L 38.507812 29.222656 L 38.492188 29.125 L 38.433594 28.980469 L 38.3125 28.785156 L 38.234375 28.6875 L 38.042969 28.5625 L 37.941406 28.507812 L 37.71875 28.476562 L 37.605469 28.472656 M 50.019531 32.726562 L 49.996094 32.730469 L 50.023438 32.726562 M 50.554688 32.527344 L 50.390625 32.589844 L 50.570312 32.523438 M 50.722656 32.445312 L 50.652344 32.480469 L 50.742188 32.433594 M 52.609375 30.570312 L 52.398438 30.917969 L 52.289062 31.085938 L 52.046875 31.394531 L 51.921875 31.542969 L 51.648438 31.808594 L 51.507812 31.933594 L 51.203125 32.160156 L 51.050781 32.265625 L 50.742188 32.433594 L 51.066406 32.253906 L 51.21875 32.148438 L 51.519531 31.921875 L 51.65625 31.796875 L 51.925781 31.53125 L 52.050781 31.382812 L 52.292969 31.078125 L 52.402344 30.910156 L 52.609375 30.566406 M 29.921875 30.585938 L 29.457031 30.585938 L 29.183594 30.589844 L 29.050781 30.589844 L 28.8125 30.59375 L 28.695312 30.597656 L 28.488281 30.605469 L 28.289062 30.609375 L 27.976562 30.636719 L 27.832031 30.648438 L 27.617188 30.691406 L 27.523438 30.714844 L 27.386719 30.78125 L 27.328125 30.8125 L 27.257812 30.90625 L 27.230469 30.953125 L 27.199219 31.074219 L 27.1875 31.296875 L 27.1875 31.414062 L 27.207031 31.605469 L 27.21875 31.699219 L 27.277344 31.847656 L 27.316406 31.917969 L 27.429688 32.03125 L 27.496094 32.082031 L 27.679688 32.164062 L 27.78125 32.199219 L 28.054688 32.25 L 28.203125 32.273438 L 28.578125 32.304688 L 28.675781 32.308594 L 28.898438 32.320312 L 29.015625 32.324219 L 29.269531 32.332031 L 29.398438 32.332031 L 29.6875 32.335938 L 30.15625 32.339844 L 32.246094 32.34375 L 32.683594 31.90625 L 32.8125 31.714844 L 32.867188 31.621094 L 32.914062 31.425781 L 32.925781 31.332031 L 32.890625 31.136719 L 32.746094 30.847656 L 32.703125 30.78125 L 32.597656 30.699219 L 32.5625 30.679688 L 32.46875 30.652344 L 32.414062 30.640625 L 32.261719 30.621094 L 32.175781 30.613281 L 31.949219 30.601562 L 31.824219 30.597656 L 31.503906 30.589844 L 31.328125 30.589844 L 30.894531 30.585938 L 30.089844 30.585938 M 38.234375 31.382812 L 38.078125 31.519531 L 37.980469 31.582031 L 37.929688 31.597656 L 37.824219 31.625 L 37.792969 31.625 L 37.816406 31.617188 L 37.867188 31.601562 L 37.976562 31.554688 L 38.082031 31.503906 L 38.265625 31.351562 M 52.152344 25.542969 L 52.199219 25.589844 L 52.152344 25.539062 M 49.3125 25.199219 L 49.859375 25.238281 L 50.484375 25.273438 L 50.707031 25.28125 L 51.066406 25.300781 L 51.238281 25.3125 L 51.507812 25.335938 L 51.636719 25.351562 L 51.835938 25.398438 L 51.929688 25.421875 L 52.082031 25.496094 L 52.117188 25.519531 L 52.082031 25.496094 L 51.929688 25.421875 L 51.835938 25.398438 L 51.632812 25.351562 L 51.503906 25.339844 L 51.230469 25.3125 L 51.058594 25.304688 L 50.691406 25.285156 L 50.46875 25.273438 L 49.839844 25.238281 L 49.460938 25.210938 L 49.296875 25.199219 L 49.121094 25.183594 M 19.4375 23.609375 L 19.460938 23.75 L 19.523438 23.964844 L 19.558594 24.066406 L 19.648438 24.234375 L 19.699219 24.3125 L 19.804688 24.4375 L 19.695312 24.328125 L 19.609375 24.214844 L 19.574219 24.144531 L 19.507812 23.988281 L 19.484375 23.886719 L 19.4375 23.667969 L 19.421875 23.53125 L 19.40625 23.398438 M 29.671875 49.386719 L 29.730469 49.34375 L 29.984375 49.15625 L 30.136719 49.03125 L 30.453125 48.765625 L 30.617188 48.617188 L 30.957031 48.304688 L 31.125 48.144531 L 31.445312 47.828125 L 31.636719 47.632812 L 31.726562 47.539062 L 32.046875 47.1875 L 32.167969 47.023438 L 32.390625 46.703125 L 32.46875 46.542969 L 32.597656 46.21875 L 32.632812 46.042969 L 32.675781 45.679688 L 32.667969 45.472656 L 32.65625 45.257812 L 32.640625 45.140625 L 32.609375 44.902344 L 32.585938 44.773438 L 32.539062 44.507812 L 32.507812 44.363281 L 32.441406 44.0625 L 32.402344 43.898438 L 32.320312 43.5625 L 32.269531 43.378906 L 32.171875 43 L 32.117188 42.792969 L 31.914062 42.066406 L 31.777344 41.617188 L 31.710938 41.421875 L 31.648438 41.234375 L 31.617188 41.152344 L 31.558594 40.992188 L 31.53125 40.929688 L 31.480469 40.804688 L 31.457031 40.757812 L 31.414062 40.675781 L 31.398438 40.652344 L 31.179688 40.40625 L 31.007812 40.261719 L 30.914062 40.199219 L 30.714844 40.085938 L 30.609375 40.039062 L 30.394531 39.957031 L 30.277344 39.925781 L 30.050781 39.875 L 29.933594 39.863281 L 29.699219 39.847656 L 29.582031 39.855469 L 29.351562 39.875 L 29.238281 39.902344 L 29.015625 39.960938 L 28.914062 40.007812 L 28.703125 40.136719 L 28.515625 40.277344 L 28.40625 40.367188 L 28.183594 40.558594 L 27.832031 40.886719 L 27.71875 41.003906 L 27.390625 41.328125 L 27.183594 41.515625 L 27.097656 41.589844 L 26.9375 41.726562 L 26.875 41.769531 L 26.773438 41.835938 L 26.753906 41.835938 L 26.664062 41.796875 L 26.570312 41.734375 L 26.515625 41.6875 L 26.273438 41.476562 L 26.144531 41.335938 L 25.679688 40.839844 L 24.65625 40.78125 L 23.628906 40.722656 L 23.066406 39.902344 L 22.789062 39.472656 L 22.589844 39.140625 L 22.484375 38.960938 L 22.0625 38.21875 L 21.875 37.859375 L 21.691406 37.507812 L 21.613281 37.347656 L 21.464844 37.042969 L 21.410156 36.917969 L 21.308594 36.6875 L 21.285156 36.609375 L 21.261719 36.539062 L 21.257812 36.515625 L 21.253906 36.472656 L 21.257812 36.464844 L 21.34375 36.394531 L 21.449219 36.328125 L 21.523438 36.285156 L 21.6875 36.195312 L 21.78125 36.144531 L 21.976562 36.039062 L 22.082031 35.988281 L 22.679688 35.628906 L 23.023438 35.355469 L 23.164062 35.203125 L 23.429688 34.890625 L 23.53125 34.722656 L 23.714844 34.386719 L 23.773438 34.210938 L 23.871094 33.855469 L 23.886719 33.671875 L 23.894531 33.3125 L 23.863281 33.128906 L 23.777344 32.769531 L 23.703125 32.59375 L 23.523438 32.246094 L 23.394531 32.078125 L 23.179688 31.816406 L 23.058594 31.699219 L 23 31.664062 L 22.875 31.609375 L 22.800781 31.597656 L 22.640625 31.582031 L 22.628906 31.582031 L 22.765625 31.53125 L 22.871094 31.492188 L 23.035156 31.34375 L 23.109375 31.253906 L 23.210938 31.003906 L 23.253906 30.863281 L 23.300781 30.503906 L 23.304688 30.40625 L 23.3125 30.191406 L 23.304688 29.835938 L 23.296875 29.710938 L 23.273438 29.484375 L 23.261719 29.378906 L 23.230469 29.191406 L 23.210938 29.105469 L 23.164062 28.957031 L 23.140625 28.886719 L 23.074219 28.773438 L 23.042969 28.71875 L 22.960938 28.636719 L 22.917969 28.601562 L 22.765625 28.519531 L 22.644531 28.492188 L 22.4375 28.476562 L 22.347656 28.476562 L 22.195312 28.492188 L 22.121094 28.5 L 22 28.539062 L 21.941406 28.558594 L 21.847656 28.625 L 21.804688 28.664062 L 21.734375 28.765625 L 21.699219 28.820312 L 21.648438 28.960938 L 21.628906 29.039062 L 21.597656 29.226562 L 21.582031 29.328125 L 21.5625 29.570312 L 21.550781 29.992188 L 21.546875 30.125 L 21.546875 30.699219 L 21.558594 30.828125 L 21.5625 30.886719 L 21.578125 30.984375 L 21.597656 31.074219 L 21.671875 31.195312 L 21.847656 31.371094 L 21.90625 31.421875 L 21.867188 31.394531 L 21.699219 31.273438 L 21.644531 31.207031 L 21.5625 31.0625 L 21.5625 30.984375 L 21.492188 30.855469 L 21.375 30.78125 L 21.277344 30.75 L 21.050781 30.691406 L 20.894531 30.667969 L 20.730469 30.640625 L 20.636719 30.628906 L 20.441406 30.605469 L 20.332031 30.597656 L 19.628906 30.527344 L 19.535156 29.765625 L 19.496094 29.191406 L 19.484375 28.734375 L 19.488281 28.484375 L 19.523438 27.433594 L 19.5625 26.914062 L 19.609375 26.398438 L 19.632812 26.164062 L 19.691406 25.710938 L 19.722656 25.519531 L 19.753906 25.335938 L 19.773438 25.253906 L 19.804688 25.101562 L 19.820312 25.039062 L 19.859375 24.917969 L 19.875 24.875 L 19.910156 24.796875 L 19.929688 24.777344 L 19.964844 24.632812 L 19.929688 24.566406 L 20.152344 24.789062 L 20.324219 24.941406 L 20.410156 25.015625 L 20.621094 25.128906 L 20.679688 25.152344 L 20.820312 25.199219 L 20.894531 25.222656 L 21.074219 25.257812 L 21.167969 25.277344 L 21.394531 25.308594 L 21.519531 25.320312 L 21.804688 25.34375 L 21.957031 25.355469 L 22.320312 25.375 L 22.507812 25.382812 L 22.949219 25.394531 L 23.179688 25.402344 L 23.714844 25.410156 L 23.992188 25.414062 L 24.625 25.421875 L 24.957031 25.421875 L 25.707031 25.425781 L 26.527344 25.425781 L 26.96875 25.429688 L 30.101562 25.429688 L 38.730469 25.425781 L 39.332031 25.148438 L 39.488281 25.074219 L 39.773438 24.886719 L 39.910156 24.785156 L 40.144531 24.550781 L 40.257812 24.425781 L 40.4375 24.148438 L 40.648438 23.683594 L 40.65625 23.652344 L 40.679688 23.542969 L 40.6875 23.480469 L 40.703125 23.316406 L 40.714844 23.230469 L 40.726562 23.007812 L 40.734375 22.894531 L 40.746094 22.621094 L 40.75 22.476562 L 40.761719 22.152344 L 40.765625 21.984375 L 40.773438 21.609375 L 40.773438 21.417969 L 40.777344 20.996094 L 40.78125 20.316406 L 40.78125 19.90625 L 40.789062 19.160156 L 40.789062 18.984375 L 40.792969 18.65625 L 40.796875 18.5 L 40.800781 18.21875 L 40.804688 18.082031 L 40.8125 17.851562 L 40.816406 17.746094 L 40.824219 17.578125 L 40.828125 17.503906 L 40.835938 17.40625 L 40.851562 17.34375 L 40.878906 17.34375 L 40.996094 17.386719 L 41.066406 17.417969 L 41.257812 17.511719 L 41.359375 17.5625 L 41.597656 17.691406 L 41.726562 17.761719 L 41.996094 17.914062 L 42.269531 18.074219 L 42.824219 18.414062 L 42.953125 18.5 L 43.191406 18.65625 L 43.492188 18.863281 L 43.691406 19.015625 L 44.105469 19.367188 L 44.316406 19.554688 L 44.742188 19.96875 L 44.957031 20.183594 L 45.382812 20.644531 L 45.597656 20.878906 L 46.019531 21.378906 L 46.226562 21.628906 L 46.628906 22.152344 L 46.828125 22.414062 L 47.199219 22.945312 L 47.382812 23.210938 L 47.714844 23.738281 L 48.160156 24.519531 L 48.238281 24.667969 L 48.433594 24.921875 L 48.480469 24.976562 L 48.570312 25.0625 L 48.667969 25.121094 L 48.589844 25.109375 L 48.550781 25.152344 L 48.542969 25.210938 L 48.539062 25.28125 L 48.539062 25.328125 L 48.542969 25.433594 L 48.546875 25.496094 L 48.558594 25.640625 L 48.566406 25.726562 L 48.582031 25.914062 L 48.59375 26.027344 L 48.640625 26.667969 L 48.664062 27.136719 L 48.671875 27.390625 L 48.683594 28.425781 L 48.671875 28.953125 L 48.65625 29.472656 L 48.648438 29.726562 L 48.621094 30.21875 L 48.605469 30.449219 L 48.570312 30.894531 L 48.546875 31.089844 L 48.5 31.460938 L 48.472656 31.609375 L 48.398438 32.042969 L 48.355469 32.304688 L 48.335938 32.417969 L 48.304688 32.621094 L 48.296875 32.691406 L 48.28125 32.8125 L 48.28125 32.832031 L 48.296875 32.871094 L 48.328125 32.886719 L 48.40625 32.910156 L 48.472656 32.914062 L 48.621094 32.921875 L 48.726562 32.917969 L 48.8125 32.914062 L 48.203125 32.960938 L 47.867188 34.085938 L 47.84375 34.164062 L 47.785156 34.347656 L 47.75 34.441406 L 47.675781 34.648438 L 47.59375 34.867188 L 47.398438 35.347656 L 47.292969 35.59375 L 47.070312 36.09375 L 46.738281 36.796875 L 46.574219 37.128906 L 46.214844 37.769531 L 46.03125 38.089844 L 45.636719 38.707031 L 45.433594 39.015625 L 45.007812 39.605469 L 44.789062 39.898438 L 44.328125 40.464844 L 44.09375 40.742188 L 43.605469 41.28125 L 43.355469 41.542969 L 42.835938 42.050781 L 42.574219 42.296875 L 42.03125 42.773438 L 41.753906 43.007812 L 41.1875 43.449219 L 40.898438 43.664062 L 40.304688 44.070312 L 40.007812 44.269531 L 39.394531 44.640625 L 39.085938 44.824219 L 38.453125 45.15625 L 38.136719 45.320312 L 37.484375 45.617188 L 37.160156 45.757812 L 36.492188 46.015625 L 36.15625 46.136719 L 35.480469 46.351562 L 35.140625 46.457031 L 34.445312 46.628906 L 33.398438 46.835938 L 32.285156 47.023438 L 31.097656 48.171875 L 30.9375 48.328125 L 30.605469 48.632812 L 30.4375 48.78125 L 30.128906 49.039062 L 29.980469 49.160156 L 29.730469 49.347656 L 29.671875 49.386719 L 29.574219 49.449219 L 29.457031 49.511719 L 29.574219 49.449219 Z M 29.671875 49.386719 "/>
<path style=" stroke:none;fill-rule:nonzero;fill:rgb(98.431373%,43.921569%,38.82353%);fill-opacity:1;" d="M 9.242188 39.671875 L 9.375 39.703125 L 9.632812 39.816406 L 9.976562 40.078125 L 10.058594 40.15625 L 10.164062 40.285156 L 10.207031 40.351562 L 10.261719 40.503906 L 10.285156 40.589844 L 10.304688 40.828125 L 10.308594 40.898438 L 10.3125 41.0625 L 10.3125 42.304688 L 17.398438 42.304688 L 16.835938 41.738281 L 17.09375 41.980469 L 17.628906 42.476562 L 17.902344 42.707031 L 18.464844 43.167969 L 18.753906 43.382812 L 19.339844 43.8125 L 19.644531 44.011719 L 20.253906 44.402344 L 20.570312 44.585938 L 21.210938 44.945312 L 21.539062 45.113281 L 22.015625 45.351562 L 22.082031 45.382812 L 22.210938 45.441406 L 22.265625 45.460938 L 22.363281 45.496094 L 22.398438 45.507812 L 22.535156 45.527344 L 22.585938 45.511719 L 22.675781 45.460938 L 22.726562 45.417969 L 22.734375 45.410156 L 16.113281 52.03125 L 10.3125 52.03125 L 10.3125 53.070312 L 10.304688 53.289062 L 10.300781 53.394531 L 10.28125 53.578125 L 10.269531 53.664062 L 10.238281 53.816406 L 10.222656 53.890625 L 10.175781 54.015625 L 10.121094 54.132812 L 9.957031 54.316406 L 9.609375 54.550781 L 9.5 54.605469 L 9.296875 54.675781 L 9.199219 54.703125 L 9.003906 54.71875 L 8.90625 54.71875 L 8.710938 54.675781 L 8.609375 54.648438 L 8.40625 54.554688 L 8.394531 54.550781 L 8.355469 54.523438 L 8.332031 54.503906 L 8.269531 54.457031 L 8.203125 54.402344 L 8.011719 54.234375 L 7.90625 54.140625 L 7.640625 53.90625 L 7.503906 53.78125 L 7.179688 53.484375 L 7.007812 53.328125 L 6.632812 52.980469 L 6.441406 52.804688 L 6.027344 52.414062 L 5.8125 52.21875 L 5.371094 51.796875 L 4.679688 51.140625 L 4.523438 50.996094 L 4.230469 50.710938 L 4.085938 50.574219 L 3.816406 50.316406 L 3.550781 50.0625 L 3.09375 49.613281 L 2.875 49.398438 L 2.5 49.03125 L 2.320312 48.851562 L 2.027344 48.554688 L 1.890625 48.414062 L 1.671875 48.175781 L 1.570312 48.066406 L 1.421875 47.890625 L 1.355469 47.8125 L 1.273438 47.691406 L 1.210938 47.566406 L 1.1875 47.453125 L 1.160156 47.261719 L 1.152344 47.171875 L 1.167969 46.992188 L 1.1875 46.898438 L 1.277344 46.699219 L 1.304688 46.648438 L 1.378906 46.53125 L 1.421875 46.46875 L 1.523438 46.339844 L 1.578125 46.269531 L 1.710938 46.113281 L 1.785156 46.035156 L 1.953125 45.855469 L 2.039062 45.761719 L 2.246094 45.554688 L 2.351562 45.445312 L 2.597656 45.203125 L 2.726562 45.078125 L 3.015625 44.796875 L 3.167969 44.652344 L 3.503906 44.328125 L 3.679688 44.164062 L 4.066406 43.796875 L 4.710938 43.1875 L 4.945312 42.960938 L 5.40625 42.53125 L 5.632812 42.316406 L 6.070312 41.910156 L 6.285156 41.710938 L 6.683594 41.34375 L 6.878906 41.164062 L 7.234375 40.839844 L 7.40625 40.683594 L 7.703125 40.417969 L 7.84375 40.289062 L 8.078125 40.085938 L 8.1875 39.992188 L 8.34375 39.863281 L 8.375 39.835938 L 8.429688 39.796875 L 8.480469 39.761719 L 8.59375 39.703125 L 8.847656 39.652344 L 8.976562 39.640625 M 29.574219 49.449219 L 29.457031 49.511719 L 29.371094 49.550781 L 29.175781 49.605469 L 29.070312 49.628906 L 28.851562 49.660156 L 28.625 49.6875 L 28.324219 49.675781 L 28.753906 49.664062 L 28.953125 49.632812 L 29.148438 49.601562 L 29.234375 49.582031 L 29.402344 49.53125 L 29.472656 49.503906 L 29.582031 49.445312 M 25.851562 48.742188 L 26.039062 48.875 L 26.410156 49.121094 L 26.59375 49.222656 L 26.734375 49.296875 L 26.679688 49.277344 L 26.535156 49.207031 L 26.226562 49.011719 L 26.070312 48.90625 L 25.742188 48.660156 L 25.578125 48.53125 L 25.5 48.460938 M 16.320312 41.203125 L 16.804688 41.707031 L 16.558594 41.453125 L 16.320312 41.214844 L 16.15625 41.027344 M 15.898438 40.738281 L 15.855469 40.6875 L 15.625 40.417969 L 15.621094 40.417969 M 12.515625 35.152344 L 12.613281 35.390625 L 12.824219 35.871094 L 12.9375 36.117188 L 13.175781 36.613281 L 13.304688 36.859375 L 13.753906 37.710938 L 13.71875 37.648438 L 13.355469 36.992188 L 13.183594 36.664062 L 12.867188 36.003906 L 12.71875 35.675781 L 12.457031 35.03125 L 12.371094 34.78125 Z M 12.515625 35.152344 "/>
<path style=" stroke:none;fill-rule:nonzero;fill:rgb(99.607843%,65.882355%,66.666669%);fill-opacity:1;" d="M 28.539062 40.453125 L 28.535156 40.535156 L 28.503906 40.640625 L 28.476562 40.714844 L 28.417969 40.871094 L 28.378906 40.964844 L 28.296875 41.15625 L 28.25 41.257812 L 27.894531 42.160156 L 27.722656 42.785156 L 27.664062 43.109375 L 27.570312 43.757812 L 27.554688 44.085938 L 27.539062 44.746094 L 27.5625 45.074219 L 27.625 45.734375 L 27.6875 46.058594 L 27.828125 46.703125 L 27.925781 47.015625 L 28.144531 47.636719 L 28.285156 47.933594 L 28.578125 48.519531 L 28.753906 48.792969 L 28.898438 49.015625 L 28.964844 49.105469 L 29.089844 49.261719 L 29.152344 49.316406 L 29.273438 49.410156 L 29.339844 49.425781 L 29.46875 49.445312 L 29.546875 49.425781 L 29.691406 49.375 L 29.683594 49.378906 L 29.585938 49.441406 L 29.472656 49.503906 L 29.402344 49.53125 L 29.234375 49.582031 L 29.148438 49.601562 L 28.953125 49.632812 L 28.753906 49.664062 L 28.316406 49.675781 L 28.09375 49.671875 L 27.671875 49.625 L 27.570312 49.609375 L 27.378906 49.566406 L 27.289062 49.542969 L 27.128906 49.484375 L 26.953125 49.414062 L 26.59375 49.222656 L 26.410156 49.121094 L 26.039062 48.875 L 25.851562 48.742188 L 25.484375 48.449219 L 25.296875 48.296875 L 24.941406 47.964844 L 24.761719 47.796875 L 24.425781 47.433594 L 24.261719 47.253906 L 23.953125 46.875 L 23.804688 46.683594 L 23.539062 46.296875 L 23.199219 45.71875 L 23.136719 45.601562 L 23.050781 45.449219 L 23.011719 45.382812 L 22.945312 45.324219 L 22.914062 45.304688 L 22.851562 45.320312 L 22.726562 45.417969 L 22.675781 45.460938 L 22.671875 45.464844 L 22.6875 45.453125 L 22.742188 45.40625 L 22.84375 45.289062 L 22.882812 45.214844 L 22.882812 45.164062 L 22.878906 45.054688 L 22.816406 44.804688 L 22.78125 44.683594 L 22.671875 44.203125 L 22.625 43.875 L 22.617188 43.710938 L 22.613281 43.378906 L 22.621094 43.214844 L 22.652344 42.894531 L 22.679688 42.738281 L 22.742188 42.429688 L 22.785156 42.289062 L 22.882812 42.007812 L 22.941406 41.882812 L 23.066406 41.636719 L 23.140625 41.535156 L 23.296875 41.335938 L 23.382812 41.261719 L 23.71875 41.003906 L 23.8125 40.941406 L 23.851562 40.921875 L 23.921875 40.890625 L 23.9375 40.890625 L 23.976562 40.878906 L 23.976562 40.867188 L 23.96875 40.855469 L 23.902344 40.8125 L 23.832031 40.785156 L 23.757812 40.730469 L 24.65625 40.78125 L 25.410156 40.824219 L 25.417969 40.835938 L 25.4375 40.859375 L 25.492188 40.914062 L 25.53125 40.945312 L 25.621094 41.011719 L 25.675781 41.050781 L 26.027344 41.347656 L 26.136719 41.464844 L 26.1875 41.523438 L 26.277344 41.636719 L 26.308594 41.6875 L 26.503906 41.953125 L 26.5625 42.015625 L 26.585938 42.035156 L 26.628906 42.066406 L 26.644531 42.066406 L 26.75 42 L 26.882812 41.898438 L 26.96875 41.820312 L 27.15625 41.65625 L 27.265625 41.554688 L 27.492188 41.347656 L 27.609375 41.230469 L 27.953125 40.910156 L 28.15625 40.726562 L 28.238281 40.65625 L 28.394531 40.53125 L 28.445312 40.492188 L 28.492188 40.464844 L 28.507812 40.457031 L 28.535156 40.449219 M 31.726562 47.539062 L 31.636719 47.632812 L 31.445312 47.828125 L 31.125 48.144531 L 30.957031 48.304688 L 30.882812 48.375 L 31.046875 48.214844 L 31.382812 47.886719 L 31.585938 47.683594 L 31.675781 47.589844 L 31.898438 47.351562 M 32.167969 47.023438 L 32.046875 47.1875 L 32.023438 47.214844 L 32.140625 47.058594 L 32.273438 46.875 M 32.46875 46.542969 L 32.390625 46.703125 L 32.382812 46.71875 L 32.457031 46.570312 L 32.515625 46.425781 M 32.597656 46.21875 L 32.597656 46.226562 L 32.617188 46.113281 M 32.632812 46.042969 L 32.628906 46.054688 L 32.636719 45.992188 M 19.480469 43.902344 L 19.339844 43.8125 L 19.332031 43.804688 M 18.730469 43.367188 L 18.984375 43.550781 L 18.753906 43.382812 L 18.464844 43.167969 L 18.449219 43.152344 M 17.886719 42.691406 L 18.304688 43.035156 L 17.902344 42.707031 L 17.628906 42.476562 L 17.609375 42.457031 M 16.3125 41.191406 L 16.816406 41.71875 L 17.078125 41.96875 L 17.585938 42.4375 L 17.09375 41.980469 L 16.828125 41.730469 L 16.320312 41.203125 L 16.070312 40.933594 L 16.0625 40.925781 M 27.1875 41.515625 L 27.101562 41.589844 L 26.941406 41.726562 L 26.882812 41.769531 L 26.785156 41.835938 L 26.773438 41.835938 L 26.875 41.769531 L 26.9375 41.726562 L 27.097656 41.589844 L 27.183594 41.515625 L 27.390625 41.328125 L 27.71875 41.003906 L 27.390625 41.328125 M 25.679688 40.839844 L 26.144531 41.335938 L 26.242188 41.4375 L 26.175781 41.382812 L 26.105469 41.308594 L 25.886719 41.101562 L 25.75 40.984375 L 25.6875 40.9375 L 25.574219 40.847656 L 25.542969 40.832031 M 15.976562 40.828125 L 15.585938 40.375 L 15.582031 40.371094 M 21.613281 37.347656 L 21.691406 37.507812 L 21.875 37.859375 L 22.0625 38.21875 L 22.484375 38.960938 L 22.554688 39.082031 L 22.429688 38.878906 L 22.28125 38.621094 L 21.992188 38.105469 L 21.863281 37.859375 L 21.621094 37.386719 L 21.53125 37.179688 L 21.511719 37.140625 M 20.894531 30.667969 L 21.050781 30.691406 L 21.277344 30.75 L 21.375 30.78125 L 21.492188 30.855469 L 21.5625 30.984375 L 21.5625 31.0625 L 21.644531 31.207031 L 21.699219 31.273438 L 21.867188 31.394531 L 21.957031 31.453125 L 22.179688 31.53125 L 22.535156 31.582031 L 22.640625 31.582031 L 22.800781 31.597656 L 22.875 31.609375 L 23 31.664062 L 23.058594 31.699219 L 23.179688 31.816406 L 23.394531 32.078125 L 23.523438 32.246094 L 23.703125 32.59375 L 23.777344 32.769531 L 23.863281 33.128906 L 23.894531 33.3125 L 23.886719 33.671875 L 23.871094 33.855469 L 23.773438 34.210938 L 23.714844 34.386719 L 23.53125 34.722656 L 23.429688 34.890625 L 23.164062 35.203125 L 23.023438 35.355469 L 22.679688 35.628906 L 22.082031 35.988281 L 21.976562 36.039062 L 21.78125 36.144531 L 21.6875 36.195312 L 21.523438 36.285156 L 21.449219 36.328125 L 21.34375 36.394531 L 21.296875 36.429688 L 21.296875 36.421875 L 21.3125 36.402344 L 21.335938 36.332031 L 21.285156 36.300781 L 21.21875 36.292969 L 21.148438 36.289062 L 21.101562 36.285156 L 20.9375 36.285156 L 20.804688 36.289062 L 20.726562 36.292969 L 20.558594 36.300781 L 20.460938 36.304688 L 19.679688 36.289062 L 19.191406 36.21875 L 18.964844 36.15625 L 18.523438 36.015625 L 18.324219 35.921875 L 17.941406 35.714844 L 17.773438 35.589844 L 17.453125 35.328125 L 17.324219 35.175781 L 17.078125 34.863281 L 16.988281 34.6875 L 16.824219 34.324219 L 16.777344 34.132812 L 16.707031 33.730469 L 16.707031 33.515625 L 16.777344 32.9375 L 16.886719 32.574219 L 16.96875 32.40625 L 17.15625 32.078125 L 17.273438 31.929688 L 17.53125 31.644531 L 17.679688 31.519531 L 18 31.28125 L 18.179688 31.179688 L 18.558594 30.992188 L 18.761719 30.921875 L 19.1875 30.792969 L 19.417969 30.753906 L 19.882812 30.691406 L 20.132812 30.683594 L 20.890625 30.664062 M 39.96875 30.765625 L 40.285156 30.777344 L 40.441406 30.789062 L 40.726562 30.820312 L 40.863281 30.839844 L 41.117188 30.890625 L 41.242188 30.921875 L 41.46875 30.996094 L 41.582031 31.039062 L 41.789062 31.136719 L 41.890625 31.1875 L 42.078125 31.3125 L 42.609375 31.785156 L 42.742188 31.933594 L 42.960938 32.246094 L 43.058594 32.398438 L 43.203125 32.714844 L 43.265625 32.875 L 43.335938 33.195312 L 43.363281 33.355469 L 43.359375 33.671875 L 43.347656 33.832031 L 43.273438 34.148438 L 43.226562 34.304688 L 43.082031 34.609375 L 43 34.761719 L 42.78125 35.054688 L 42.375 35.472656 L 42.257812 35.578125 L 41.996094 35.761719 L 41.867188 35.847656 L 41.578125 35.996094 L 41.433594 36.066406 L 41.125 36.179688 L 40.96875 36.234375 L 40.648438 36.3125 L 40.484375 36.347656 L 39.992188 36.40625 L 39.492188 36.40625 L 39.164062 36.367188 L 39 36.34375 L 38.679688 36.265625 L 38.480469 36.210938 L 38.136719 36.082031 L 37.972656 36.011719 L 37.675781 35.847656 L 37.53125 35.761719 L 37.261719 35.542969 L 36.859375 35.148438 L 36.730469 35 L 36.539062 34.75 L 36.453125 34.625 L 36.339844 34.386719 L 36.289062 34.265625 L 36.238281 33.992188 L 36.210938 33.503906 L 36.210938 33.34375 L 36.25 33.046875 L 36.277344 32.898438 L 36.375 32.625 L 36.429688 32.488281 L 36.582031 32.230469 L 36.882812 31.855469 L 36.941406 31.792969 L 37.042969 31.703125 L 37.09375 31.660156 L 37.191406 31.617188 L 37.242188 31.597656 L 37.355469 31.585938 L 37.5625 31.605469 L 37.640625 31.617188 L 37.765625 31.625 L 37.824219 31.625 L 37.929688 31.597656 L 37.980469 31.582031 L 38.078125 31.519531 L 38.234375 31.382812 L 38.3125 31.308594 L 38.484375 31.09375 L 38.53125 31.019531 L 38.578125 30.929688 L 38.585938 30.898438 L 38.65625 30.847656 L 38.703125 30.828125 L 38.863281 30.796875 L 38.90625 30.789062 L 39.019531 30.78125 L 39.082031 30.777344 L 39.226562 30.769531 L 39.304688 30.769531 L 39.484375 30.765625 L 39.792969 30.765625 M 20.441406 30.605469 L 20.636719 30.628906 L 20.730469 30.640625 L 20.804688 30.652344 L 19.628906 30.527344 L 20.332031 30.597656 Z M 20.441406 30.605469 "/>
<path style=" stroke:none;fill-rule:nonzero;fill:rgb(99.607843%,79.215688%,74.117649%);fill-opacity:1;" d="M 28.753906 48.792969 L 28.578125 48.519531 L 28.285156 47.933594 L 28.144531 47.636719 L 27.925781 47.015625 L 27.828125 46.703125 L 27.6875 46.058594 L 27.625 45.734375 L 27.5625 45.074219 L 27.539062 44.746094 L 27.554688 44.085938 L 27.570312 43.757812 L 27.664062 43.109375 L 27.722656 42.785156 L 27.894531 42.160156 L 28.25 41.257812 L 28.296875 41.15625 L 28.378906 40.964844 L 28.417969 40.871094 L 28.476562 40.714844 L 28.503906 40.640625 L 28.535156 40.535156 L 28.539062 40.453125 L 28.535156 40.449219 L 28.507812 40.457031 L 28.492188 40.464844 L 28.445312 40.492188 L 28.394531 40.53125 L 28.238281 40.65625 L 28.15625 40.726562 L 27.953125 40.910156 L 27.609375 41.230469 L 27.492188 41.347656 L 27.265625 41.554688 L 27.15625 41.65625 L 26.96875 41.820312 L 26.882812 41.898438 L 26.75 42 L 26.644531 42.066406 L 26.628906 42.066406 L 26.585938 42.035156 L 26.5625 42.015625 L 26.503906 41.953125 L 26.308594 41.6875 L 26.277344 41.636719 L 26.1875 41.523438 L 26.136719 41.464844 L 26.027344 41.347656 L 25.675781 41.050781 L 25.621094 41.011719 L 25.53125 40.945312 L 25.492188 40.914062 L 25.4375 40.859375 L 25.417969 40.835938 L 25.402344 40.800781 L 25.425781 40.78125 L 25.449219 40.78125 L 25.527344 40.824219 L 25.574219 40.847656 L 25.6875 40.9375 L 25.75 40.984375 L 25.886719 41.101562 L 26.105469 41.308594 L 26.175781 41.382812 L 26.320312 41.515625 L 26.390625 41.578125 L 26.578125 41.730469 L 26.671875 41.792969 L 26.765625 41.835938 L 26.785156 41.835938 L 26.882812 41.769531 L 26.941406 41.726562 L 27.101562 41.589844 L 27.1875 41.515625 L 27.390625 41.328125 L 27.71875 41.003906 L 27.832031 40.886719 L 28.183594 40.558594 L 28.40625 40.367188 L 28.515625 40.277344 L 28.703125 40.136719 L 28.914062 40.007812 L 29.015625 39.960938 L 29.238281 39.902344 L 29.351562 39.875 L 29.582031 39.855469 L 29.699219 39.847656 L 29.933594 39.863281 L 30.050781 39.875 L 30.277344 39.925781 L 30.394531 39.957031 L 30.609375 40.039062 L 30.714844 40.085938 L 30.914062 40.199219 L 31.007812 40.261719 L 31.179688 40.40625 L 31.398438 40.652344 L 31.414062 40.675781 L 31.457031 40.757812 L 31.480469 40.804688 L 31.53125 40.929688 L 31.558594 40.992188 L 31.617188 41.152344 L 31.648438 41.234375 L 31.710938 41.421875 L 31.777344 41.617188 L 31.914062 42.066406 L 32.117188 42.792969 L 32.171875 43 L 32.273438 43.382812 L 32.320312 43.566406 L 32.402344 43.90625 L 32.445312 44.070312 L 32.511719 44.375 L 32.542969 44.519531 L 32.589844 44.789062 L 32.613281 44.917969 L 32.644531 45.15625 L 32.65625 45.273438 L 32.667969 45.488281 L 32.675781 45.695312 L 32.628906 46.0625 L 32.59375 46.242188 L 32.457031 46.570312 L 32.375 46.730469 L 32.140625 47.058594 L 32.011719 47.226562 L 31.675781 47.589844 L 31.585938 47.683594 L 31.382812 47.886719 L 31.046875 48.214844 L 30.851562 48.402344 L 30.527344 48.710938 L 30.371094 48.851562 L 30.117188 49.074219 L 29.996094 49.175781 L 29.796875 49.3125 L 29.703125 49.371094 L 29.546875 49.425781 L 29.46875 49.445312 L 29.339844 49.425781 L 29.273438 49.410156 L 29.152344 49.316406 L 29.089844 49.261719 L 28.964844 49.105469 L 28.898438 49.015625 M 21.503906 45.101562 L 21.175781 44.929688 L 20.539062 44.570312 L 20.222656 44.386719 L 19.613281 43.992188 L 19.3125 43.792969 L 18.730469 43.367188 L 18.441406 43.148438 L 17.886719 42.691406 L 17.609375 42.457031 L 17.078125 41.96875 L 16.816406 41.71875 L 16.3125 41.191406 L 16.0625 40.925781 L 15.582031 40.367188 L 14.886719 39.492188 L 14.761719 39.324219 L 14.496094 38.933594 L 14.363281 38.734375 L 14.09375 38.292969 L 13.824219 37.84375 L 13.304688 36.859375 L 13.175781 36.613281 L 12.9375 36.117188 L 12.824219 35.871094 L 12.613281 35.390625 L 12.515625 35.152344 L 12.339844 34.707031 L 12.132812 34.085938 L 11.792969 32.960938 L 10.949219 32.898438 L 10.746094 32.882812 L 10.359375 32.816406 L 10.164062 32.777344 L 9.800781 32.664062 L 9.621094 32.601562 L 9.277344 32.445312 L 9.109375 32.359375 L 8.796875 32.160156 L 8.640625 32.050781 L 8.351562 31.808594 L 8.214844 31.679688 L 7.953125 31.394531 L 7.828125 31.246094 L 7.601562 30.917969 L 7.296875 30.378906 L 7.246094 30.273438 L 7.160156 30.097656 L 7.117188 30.011719 L 7.054688 29.859375 L 6.992188 29.714844 L 6.921875 29.460938 L 6.894531 29.328125 L 6.867188 29.03125 L 6.863281 28.949219 L 6.859375 28.757812 L 6.859375 28.113281 L 6.863281 28.019531 L 6.871094 27.851562 L 6.878906 27.691406 L 6.917969 27.433594 L 6.9375 27.308594 L 7.011719 27.074219 L 7.175781 26.683594 L 7.257812 26.511719 L 7.386719 26.230469 L 7.449219 26.101562 L 7.5625 25.894531 L 7.617188 25.800781 L 7.730469 25.65625 L 7.789062 25.589844 L 7.925781 25.496094 L 7.996094 25.453125 L 8.175781 25.394531 L 8.273438 25.371094 L 8.515625 25.335938 L 8.648438 25.324219 L 8.976562 25.304688 L 9.585938 25.273438 L 9.8125 25.265625 L 10.234375 25.242188 L 10.4375 25.226562 L 10.796875 25.203125 L 10.960938 25.1875 L 11.207031 25.160156 L 11.261719 25.15625 L 11.339844 25.140625 L 11.414062 25.125 L 11.441406 25.113281 L 11.511719 25.050781 L 11.550781 25.015625 L 11.636719 24.910156 L 11.886719 24.507812 L 12.003906 24.277344 L 12.28125 23.796875 L 12.421875 23.554688 L 12.742188 23.0625 L 12.90625 22.816406 L 13.261719 22.320312 L 13.445312 22.074219 L 13.824219 21.59375 L 14.019531 21.355469 L 14.414062 20.894531 L 14.613281 20.667969 L 15.015625 20.242188 L 15.214844 20.039062 L 15.613281 19.664062 L 16.191406 19.164062 L 16.417969 18.988281 L 16.953125 18.609375 L 17.222656 18.421875 L 17.777344 18.074219 L 17.914062 17.992188 L 18.171875 17.839844 L 18.300781 17.769531 L 18.53125 17.644531 L 18.644531 17.585938 L 18.835938 17.496094 L 19.070312 17.40625 L 19.335938 17.328125 L 19.335938 21.199219 L 19.339844 21.53125 L 19.339844 21.691406 L 19.34375 21.984375 L 19.347656 22.125 L 19.351562 22.382812 L 19.355469 22.507812 L 19.363281 22.734375 L 19.367188 22.84375 L 19.378906 23.039062 L 19.390625 23.230469 L 19.421875 23.53125 L 19.4375 23.667969 L 19.484375 23.886719 L 19.507812 23.988281 L 19.574219 24.144531 L 19.609375 24.214844 L 19.695312 24.328125 L 19.847656 24.476562 L 19.910156 24.53125 L 19.964844 24.632812 L 19.929688 24.777344 L 19.910156 24.796875 L 19.875 24.875 L 19.859375 24.917969 L 19.820312 25.039062 L 19.804688 25.101562 L 19.773438 25.253906 L 19.753906 25.335938 L 19.722656 25.519531 L 19.691406 25.710938 L 19.632812 26.164062 L 19.609375 26.398438 L 19.5625 26.914062 L 19.523438 27.433594 L 19.488281 28.484375 L 19.484375 28.734375 L 19.496094 29.191406 L 19.535156 29.765625 L 19.628906 30.527344 L 20.273438 30.597656 L 20.917969 30.664062 L 20.132812 30.683594 L 19.882812 30.691406 L 19.417969 30.753906 L 19.1875 30.792969 L 18.761719 30.921875 L 18.558594 30.992188 L 18.179688 31.179688 L 18 31.28125 L 17.679688 31.519531 L 17.53125 31.644531 L 17.273438 31.929688 L 17.15625 32.078125 L 16.96875 32.40625 L 16.886719 32.574219 L 16.777344 32.9375 L 16.707031 33.515625 L 16.707031 33.730469 L 16.777344 34.132812 L 16.824219 34.324219 L 16.988281 34.6875 L 17.078125 34.863281 L 17.324219 35.175781 L 17.453125 35.328125 L 17.773438 35.589844 L 17.941406 35.714844 L 18.324219 35.921875 L 18.523438 36.015625 L 18.964844 36.15625 L 19.191406 36.21875 L 19.679688 36.289062 L 20.460938 36.304688 L 20.558594 36.300781 L 20.726562 36.292969 L 20.804688 36.289062 L 20.9375 36.285156 L 21.101562 36.285156 L 21.148438 36.289062 L 21.21875 36.292969 L 21.285156 36.300781 L 21.335938 36.332031 L 21.3125 36.402344 L 21.296875 36.421875 L 21.296875 36.5 L 21.300781 36.542969 L 21.332031 36.667969 L 21.351562 36.734375 L 21.410156 36.898438 L 21.445312 36.984375 L 21.53125 37.179688 L 21.621094 37.386719 L 21.863281 37.859375 L 21.992188 38.105469 L 22.28125 38.621094 L 22.429688 38.878906 L 22.738281 39.378906 L 22.890625 39.621094 L 23.179688 40.046875 L 23.25 40.148438 L 23.382812 40.324219 L 23.445312 40.40625 L 23.5625 40.542969 L 23.617188 40.609375 L 23.714844 40.703125 L 23.832031 40.785156 L 23.902344 40.8125 L 23.96875 40.855469 L 23.976562 40.867188 L 23.976562 40.878906 L 23.9375 40.890625 L 23.921875 40.890625 L 23.851562 40.921875 L 23.8125 40.941406 L 23.71875 41.003906 L 23.382812 41.261719 L 23.296875 41.335938 L 23.140625 41.535156 L 23.066406 41.636719 L 22.941406 41.882812 L 22.882812 42.007812 L 22.785156 42.289062 L 22.742188 42.429688 L 22.679688 42.738281 L 22.652344 42.894531 L 22.621094 43.214844 L 22.613281 43.378906 L 22.617188 43.710938 L 22.625 43.875 L 22.671875 44.203125 L 22.78125 44.683594 L 22.816406 44.804688 L 22.878906 45.054688 L 22.882812 45.164062 L 22.882812 45.214844 L 22.84375 45.289062 L 22.742188 45.40625 L 22.6875 45.453125 L 22.585938 45.53125 L 22.492188 45.582031 L 22.484375 45.582031 L 22.398438 45.546875 L 22.34375 45.519531 L 22.179688 45.441406 L 22.089844 45.394531 L 21.871094 45.289062 L 21.757812 45.230469 M 48.28125 32.832031 L 48.28125 32.8125 L 48.296875 32.691406 L 48.304688 32.621094 L 48.335938 32.417969 L 48.355469 32.304688 L 48.398438 32.042969 L 48.472656 31.609375 L 48.5 31.460938 L 48.546875 31.089844 L 48.570312 30.894531 L 48.605469 30.449219 L 48.621094 30.21875 L 48.648438 29.726562 L 48.65625 29.472656 L 48.671875 28.953125 L 48.683594 28.425781 L 48.671875 27.390625 L 48.664062 27.136719 L 48.640625 26.667969 L 48.59375 26.027344 L 48.582031 25.914062 L 48.566406 25.726562 L 48.558594 25.640625 L 48.546875 25.496094 L 48.542969 25.433594 L 48.539062 25.328125 L 48.539062 25.28125 L 48.542969 25.210938 L 48.550781 25.152344 L 48.589844 25.109375 L 48.695312 25.121094 L 48.710938 25.128906 L 48.769531 25.140625 L 48.800781 25.144531 L 48.898438 25.15625 L 49 25.171875 L 49.296875 25.199219 L 49.460938 25.210938 L 49.839844 25.238281 L 50.46875 25.273438 L 50.691406 25.285156 L 51.058594 25.304688 L 51.230469 25.3125 L 51.503906 25.339844 L 51.632812 25.351562 L 51.835938 25.398438 L 51.929688 25.421875 L 52.082031 25.496094 L 52.152344 25.539062 L 52.273438 25.660156 L 52.328125 25.722656 L 52.4375 25.898438 L 52.492188 25.992188 L 52.613281 26.234375 L 52.824219 26.683594 L 52.890625 26.828125 L 52.988281 27.074219 L 53.03125 27.191406 L 53.082031 27.433594 L 53.105469 27.554688 L 53.128906 27.851562 L 53.136719 27.933594 L 53.140625 28.113281 L 53.140625 28.421875 L 53.144531 28.546875 L 53.140625 28.757812 L 53.140625 28.859375 L 53.132812 29.03125 L 53.125 29.195312 L 53.078125 29.460938 L 53.050781 29.589844 L 52.945312 29.859375 L 52.914062 29.933594 L 52.839844 30.097656 L 52.703125 30.378906 L 52.609375 30.566406 L 52.402344 30.910156 L 52.292969 31.078125 L 52.050781 31.382812 L 51.925781 31.53125 L 51.65625 31.796875 L 51.519531 31.921875 L 51.21875 32.148438 L 51.066406 32.253906 L 50.742188 32.433594 L 50.574219 32.519531 L 50.226562 32.65625 L 50.046875 32.71875 L 49.675781 32.808594 L 49.09375 32.894531 L 48.949219 32.90625 L 48.726562 32.917969 L 48.621094 32.921875 L 48.472656 32.914062 L 48.40625 32.910156 L 48.328125 32.886719 L 48.296875 32.871094 Z M 48.28125 32.832031 "/>
</g>
</svg>
