<?xml version="1.0" encoding="UTF-8"?>
<svg xmlns="http://www.w3.org/2000/svg" xmlns:xlink="http://www.w3.org/1999/xlink" width="85px" height="px" viewBox="0 0 85 85" version="1.1">
<g id="surface1">
<path style=" stroke:none;fill-rule:nonzero;fill:rgb(0%,0%,0%);fill-opacity:1;" d="M 67.292969 3.542969 L 17.707031 3.542969 C 7.933594 3.554688 0.0117188 11.476562 0 21.25 L 0 49.582031 C 0.0117188 59.359375 7.933594 67.28125 17.707031 67.292969 L 38.957031 67.292969 L 38.957031 74.375 L 24.792969 74.375 C 22.835938 74.375 21.25 75.960938 21.25 77.917969 C 21.25 79.871094 22.835938 81.457031 24.792969 81.457031 L 60.207031 81.457031 C 62.164062 81.457031 63.75 79.871094 63.75 77.917969 C 63.75 75.960938 62.164062 74.375 60.207031 74.375 L 46.042969 74.375 L 46.042969 67.292969 L 67.292969 67.292969 C 77.066406 67.28125 84.988281 59.359375 85 49.582031 L 85 21.25 C 84.988281 11.476562 77.066406 3.554688 67.292969 3.542969 Z M 17.707031 10.625 L 67.292969 10.625 C 73.160156 10.625 77.917969 15.382812 77.917969 21.25 L 77.917969 46.042969 L 7.082031 46.042969 L 7.082031 21.25 C 7.082031 15.382812 11.839844 10.625 17.707031 10.625 Z M 67.292969 60.207031 L 17.707031 60.207031 C 13.222656 60.191406 9.230469 57.355469 7.734375 53.125 L 77.265625 53.125 C 75.769531 57.355469 71.777344 60.191406 67.292969 60.207031 Z M 67.292969 60.207031 "/>
</g>
</svg>
