<?xml version="1.0" encoding="UTF-8"?>
<svg xmlns="http://www.w3.org/2000/svg" xmlns:xlink="http://www.w3.org/1999/xlink" width="60px" height="60px" viewBox="0 0 60 60" version="1.1">
<g id="surface1">
<path style=" stroke:none;fill-rule:nonzero;fill:rgb(19.607843%,24.313726%,25.098041%);fill-opacity:1;" d="M 31.964844 21.664062 L 32.265625 21.726562 L 32.460938 21.789062 L 33.414062 22.023438 L 34.027344 22.121094 L 34.21875 22.121094 L 35.023438 22.023438 L 35.6875 21.882812 L 35.976562 21.789062 L 36.445312 21.699219 L 36.6875 21.707031 L 36.777344 21.746094 L 37.050781 21.976562 L 37.050781 22.171875 L 36.964844 22.617188 L 36.789062 22.871094 L 36.34375 23.394531 L 35.992188 23.644531 L 35.363281 24.027344 L 35.039062 24.160156 L 34.421875 24.375 L 34.21875 24.375 L 33.324219 24.148438 L 32.691406 23.816406 L 32.410156 23.597656 L 31.875 23.125 L 31.691406 22.878906 L 31.40625 22.390625 L 31.40625 22.1875 L 31.460938 21.859375 L 31.554688 21.71875 L 31.640625 21.6875 L 31.828125 21.652344 M 26.664062 20.253906 L 27.226562 20.714844 L 27.421875 21.324219 L 27.421875 21.765625 L 27.355469 22.53125 L 27.253906 22.789062 L 27 23.210938 L 26.835938 23.277344 L 26.492188 23.316406 L 26.320312 23.179688 L 25.976562 22.789062 L 25.84375 22.421875 L 25.613281 21.46875 L 25.617188 20.9375 L 25.691406 20.746094 L 25.882812 20.40625 L 26.046875 20.320312 L 26.417969 20.207031 M 42.421875 20.320312 L 42.484375 20.417969 L 42.589844 20.648438 L 42.617188 20.828125 L 42.65625 21.226562 L 42.65625 21.5 L 42.628906 22.21875 L 42.570312 22.476562 L 42.429688 22.925781 L 42.320312 23.054688 L 42.070312 23.234375 L 41.898438 23.226562 L 41.53125 23.140625 L 41.300781 23 L 40.890625 22.378906 L 40.824219 21.796875 L 40.878906 21.496094 L 41.054688 20.90625 L 41.21875 20.679688 L 41.585938 20.292969 L 41.835938 20.246094 L 42.230469 20.234375 Z M 42.421875 20.320312 "/>
<path style=" stroke:none;fill-rule:nonzero;fill:rgb(91.764706%,36.078432%,43.921569%);fill-opacity:1;" d="M 19.921875 52.925781 L 20.550781 53.160156 L 20.761719 53.226562 L 20.265625 53.070312 L 19.890625 52.914062 M 18.777344 52.445312 L 18.328125 52.246094 L 17.488281 51.816406 M 7.96875 19.484375 L 10.546875 22.03125 L 11.277344 22.765625 L 11.691406 23.203125 L 11.863281 23.394531 L 12.460938 24.109375 L 12.648438 24.417969 L 12.957031 25.003906 L 13.027344 25.296875 L 13.125 25.898438 L 13.125 26.246094 L 12.886719 27.769531 L 12.722656 28.269531 L 12.628906 28.496094 L 12.421875 28.917969 L 12.308594 29.078125 L 11.835938 30.21875 L 11.628906 31.265625 L 11.582031 31.90625 L 11.515625 33.265625 L 11.539062 34.039062 L 11.609375 35.640625 L 11.695312 36.5 L 11.902344 38.273438 L 12.046875 39.203125 L 12.371094 41.078125 L 12.578125 42.027344 L 13.015625 43.9375 L 13.28125 44.878906 L 13.828125 46.75 L 14.136719 47.648438 L 14.722656 49.167969 L 15.09375 49.914062 L 15.300781 50.195312 L 15.742188 50.71875 L 16.015625 50.9375 L 16.539062 51.304688 L 16.261719 51.144531 L 16.007812 50.996094 L 15.601562 50.71875 L 15.414062 50.585938 L 15.160156 50.367188 L 15 50.117188 L 15 50.03125 L 14.648438 49.800781 L 13.804688 49.492188 L 13.59375 49.433594 L 12.988281 49.082031 L 12.664062 48.871094 L 11.867188 48.25 L 11.453125 47.90625 L 10.523438 47.070312 L 10.050781 46.636719 L 9.054688 45.652344 L 8.058594 44.648438 L 6.125 42.464844 L 5.667969 41.929688 L 4.847656 40.890625 L 3.824219 39.445312 L 3.5625 39.03125 L 3 38.078125 L 2.71875 37.589844 L 2.175781 36.5625 L 1.914062 36.050781 L 1.449219 35.082031 L 0.90625 33.820312 L 0.582031 32.953125 L 0.210938 31.148438 L 0.0703125 30.238281 L 0.0429688 28.410156 L 0.0703125 27.5 L 0.34375 25.753906 L 0.511719 24.898438 L 1.050781 23.335938 L 1.34375 22.578125 L 2.105469 21.289062 L 2.511719 20.691406 L 3.453125 19.78125 L 3.699219 19.578125 L 4.21875 19.269531 L 4.480469 19.128906 L 5.035156 18.945312 L 5.316406 18.871094 L 5.890625 18.828125 L 6.789062 18.941406 L 7.96875 19.238281 L 7.96875 15.195312 M 8.40625 10.574219 L 8.410156 10.550781 L 8.539062 10.148438 M 8.007812 13.554688 L 8.03125 13.046875 L 8.125 12.140625 L 8.175781 11.699219 L 8.324219 10.921875 L 8.394531 10.601562 L 8.320312 10.953125 L 8.171875 11.742188 L 8.117188 12.1875 L 8.03125 13.117188 L 8.007812 13.636719 L 7.96875 14.71875 L 7.96875 14.609375 Z M 8.007812 13.554688 "/>
<path style=" stroke:none;fill-rule:nonzero;fill:rgb(98.823529%,85.09804%,57.647061%);fill-opacity:1;" d="M 55.398438 16.78125 L 55.28125 16.90625 L 54.984375 17.230469 L 54.742188 17.484375 L 54.1875 18.0625 L 53.816406 18.441406 L 53.011719 19.265625 L 52.519531 19.773438 L 51.472656 20.835938 L 50.859375 21.460938 L 48.648438 23.6875 L 47.300781 25.023438 L 46.691406 25.617188 L 45.515625 26.757812 L 44.984375 27.257812 L 43.964844 28.21875 L 43.507812 28.632812 L 42.636719 29.414062 L 42.253906 29.742188 L 41.515625 30.359375 L 41.195312 30.609375 L 40.589844 31.070312 L 40.328125 31.242188 L 39.839844 31.550781 L 39.632812 31.65625 L 38.863281 32 L 38.441406 32.140625 L 37.570312 32.40625 L 37.105469 32.503906 L 35.195312 32.8125 L 34.203125 32.839844 L 32.226562 32.796875 L 31.304688 32.648438 L 30.398438 32.476562 L 29.976562 32.351562 L 29.15625 32.089844 L 28.789062 31.921875 L 27.921875 31.414062 L 27.183594 30.898438 L 26.757812 30.582031 L 24.941406 29.152344 L 24.03125 28.363281 L 23.140625 27.582031 L 22.734375 27.210938 L 21.960938 26.484375 L 21.648438 26.164062 L 21.078125 25.570312 L 20.902344 25.351562 L 20.625 24.960938 L 20.625 24.867188 L 20.855469 24.628906 L 21.191406 24.53125 L 21.40625 24.53125 L 22.199219 24.773438 L 22.761719 25.140625 L 23.015625 25.382812 L 23.488281 25.894531 L 23.648438 26.160156 L 23.90625 26.691406 L 23.90625 26.914062 L 24.070312 27.398438 L 24.332031 27.789062 L 24.523438 28.003906 L 24.953125 28.449219 L 25.214844 28.683594 L 25.761719 29.15625 L 26.078125 29.394531 L 27.394531 30.335938 L 28.097656 30.742188 L 29.503906 31.476562 L 30.132812 31.683594 L 32.417969 32.164062 L 34.078125 32.273438 L 34.917969 32.226562 L 36.578125 32.070312 L 37.34375 31.894531 L 38.816406 31.476562 L 39.417969 31.171875 L 41.070312 30.109375 L 42.214844 29.1875 L 42.710938 28.71875 L 43.191406 28.25 L 43.390625 28.03125 L 43.765625 27.601562 L 43.90625 27.414062 L 44.148438 27.0625 L 44.203125 26.921875 L 44.269531 26.675781 L 44.226562 26.605469 L 44.210938 26.375 L 44.296875 26.183594 L 44.375 26.082031 L 44.78125 25.632812 L 45.054688 25.414062 L 45.636719 25.011719 L 45.914062 24.886719 L 46.445312 24.703125 L 46.609375 24.757812 L 46.824219 24.660156 L 47.089844 24.46875 L 47.277344 24.320312 L 47.6875 23.984375 L 47.9375 23.765625 L 48.472656 23.300781 L 48.78125 23.023438 L 49.425781 22.445312 L 49.777344 22.121094 L 50.507812 21.441406 L 50.898438 21.070312 L 52.527344 19.519531 L 53.40625 18.660156 L 54.5 17.59375 L 55.015625 17.09375 L 55.171875 16.949219 L 55.410156 16.734375 L 55.429688 16.730469 Z M 55.398438 16.78125 "/>
<path style=" stroke:none;fill-rule:nonzero;fill:rgb(98.823529%,88.627452%,62.352943%);fill-opacity:1;" d="M 59.101562 40.765625 L 59.089844 40.777344 L 59.183594 40.539062 M 59.242188 40.378906 L 59.242188 40.382812 L 59.246094 40.378906 M 59.691406 38.367188 L 59.648438 38.644531 L 59.695312 38.292969 M 39.324219 31.796875 L 38.820312 32.019531 L 37.832031 32.40625 L 37.335938 32.523438 L 36.324219 32.699219 L 35.773438 32.742188 L 35.59375 32.75 L 37.105469 32.503906 L 37.570312 32.40625 L 38.441406 32.140625 L 38.863281 32 L 39.34375 31.785156 M 41.351562 6.109375 L 43.117188 6.113281 L 43.96875 6.113281 L 45.5 6.117188 L 46.242188 6.121094 L 47.570312 6.132812 L 48.207031 6.136719 L 49.339844 6.15625 L 49.882812 6.160156 L 50.839844 6.183594 L 51.300781 6.191406 L 52.101562 6.214844 L 52.484375 6.230469 L 53.148438 6.261719 L 53.460938 6.28125 L 54.003906 6.324219 L 54.519531 6.367188 L 55.261719 6.472656 L 55.59375 6.53125 L 56.082031 6.675781 L 56.679688 6.945312 L 57.085938 7.15625 L 57.742188 7.570312 L 58.050781 7.78125 L 58.546875 8.289062 L 58.78125 8.558594 L 59.136719 9.277344 L 59.300781 9.675781 L 59.539062 10.734375 L 59.59375 11.023438 L 59.679688 11.695312 L 59.722656 12.046875 L 59.78125 12.675781 L 50.742188 21.664062 L 48.886719 23.507812 L 47.75 24.628906 L 47.230469 25.140625 L 46.21875 26.125 L 45.753906 26.5625 L 44.855469 27.421875 L 44.4375 27.800781 L 43.636719 28.542969 L 43.265625 28.867188 L 42.546875 29.492188 L 42.429688 29.59375 L 42.636719 29.414062 L 43.507812 28.632812 L 43.964844 28.21875 L 44.984375 27.257812 L 45.515625 26.757812 L 46.691406 25.617188 L 47.300781 25.023438 L 48.648438 23.6875 L 50.859375 21.460938 L 51.472656 20.835938 L 52.519531 19.773438 L 53.011719 19.265625 L 53.816406 18.441406 L 54.1875 18.0625 L 54.742188 17.484375 L 54.984375 17.230469 L 55.28125 16.90625 L 55.398438 16.78125 L 55.429688 16.730469 L 55.410156 16.734375 L 55.171875 16.949219 L 55.015625 17.09375 L 54.5 17.59375 L 53.40625 18.660156 L 52.527344 19.519531 L 50.898438 21.070312 L 50.507812 21.441406 L 49.777344 22.121094 L 49.425781 22.445312 L 48.78125 23.023438 L 48.472656 23.300781 L 47.9375 23.765625 L 47.6875 23.984375 L 47.277344 24.320312 L 47.089844 24.46875 L 46.824219 24.660156 L 46.609375 24.757812 L 46.445312 24.703125 L 45.914062 24.886719 L 45.636719 25.011719 L 45.054688 25.414062 L 44.78125 25.632812 L 44.375 26.082031 L 44.296875 26.183594 L 44.210938 26.375 L 44.226562 26.605469 L 44.269531 26.675781 L 44.203125 26.921875 L 44.148438 27.0625 L 43.90625 27.414062 L 43.765625 27.601562 L 43.390625 28.03125 L 43.191406 28.25 L 42.710938 28.71875 L 42.214844 29.1875 L 41.070312 30.109375 L 39.417969 31.171875 L 38.816406 31.476562 L 37.34375 31.894531 L 36.578125 32.070312 L 34.917969 32.226562 L 34.078125 32.273438 L 32.417969 32.164062 L 30.132812 31.683594 L 29.503906 31.476562 L 28.097656 30.742188 L 27.394531 30.335938 L 26.078125 29.394531 L 25.761719 29.15625 L 25.214844 28.683594 L 24.953125 28.449219 L 24.523438 28.003906 L 24.332031 27.789062 L 24.070312 27.398438 L 23.90625 26.914062 L 23.90625 26.691406 L 23.648438 26.160156 L 23.488281 25.894531 L 23.015625 25.382812 L 22.761719 25.140625 L 22.199219 24.773438 L 21.40625 24.53125 L 21.191406 24.53125 L 20.855469 24.628906 L 20.652344 24.839844 L 17.34375 21.402344 L 17.34375 15.976562 L 17.351562 14.410156 L 17.367188 13.507812 L 17.382812 13.128906 L 17.410156 12.402344 L 17.433594 12.09375 L 17.484375 11.503906 L 17.515625 11.253906 L 17.675781 10.355469 L 17.804688 10 L 18.089844 9.332031 L 18.285156 9.007812 L 19.152344 7.84375 L 19.449219 7.539062 L 19.578125 7.425781 L 19.828125 7.238281 L 19.925781 7.199219 L 20.429688 6.960938 L 20.625 6.816406 L 20.652344 6.75 L 20.667969 6.617188 L 20.605469 6.558594 L 20.441406 6.445312 L 20.296875 6.398438 L 19.960938 6.304688 L 19.730469 6.265625 L 19.226562 6.203125 L 19.027344 6.183594 L 19.757812 6.171875 L 20.394531 6.164062 L 21.824219 6.15625 L 22.570312 6.148438 L 24.234375 6.140625 L 25.097656 6.136719 L 27.007812 6.125 L 27.992188 6.125 L 30.171875 6.121094 L 33.765625 6.117188 L 35 6.113281 L 37.269531 6.113281 L 38.371094 6.109375 L 40.382812 6.109375 M 26.757812 30.582031 L 27.183594 30.898438 L 27.921875 31.414062 L 28.546875 31.78125 L 28.1875 31.578125 L 27.308594 31.058594 L 26.855469 30.726562 L 25.921875 30.003906 L 25.414062 29.558594 L 25.105469 29.277344 M 26.046875 20.320312 L 25.882812 20.40625 L 25.691406 20.746094 L 25.617188 20.9375 L 25.613281 21.46875 L 25.835938 22.390625 L 25.492188 21.84375 L 25.039062 21.5625 L 24.789062 21.5625 L 23.960938 21.816406 L 23.347656 22.195312 L 23.0625 22.4375 L 22.519531 22.949219 L 22.332031 23.207031 L 22.03125 23.710938 L 22.03125 23.90625 L 22.308594 24.511719 L 22.710938 25.054688 L 22.96875 25.3125 L 23.59375 25.785156 L 24.003906 25.941406 L 24.871094 26.1875 L 25.328125 26.226562 L 26.226562 26.242188 L 26.617188 26.152344 L 27.335938 25.914062 L 27.5625 25.6875 L 27.960938 24.964844 L 28.125 24.320312 L 28.125 24.015625 L 28.082031 23.46875 L 28.007812 23.234375 L 27.9375 23.179688 L 27.769531 23.09375 L 27.640625 23.105469 L 27.351562 23.152344 L 27.15625 23.210938 L 26.839844 23.277344 L 27 23.210938 L 27.253906 22.789062 L 27.355469 22.53125 L 27.421875 21.765625 L 27.421875 21.324219 L 27.226562 20.714844 L 26.664062 20.253906 L 26.417969 20.207031 M 41.835938 20.246094 L 41.585938 20.292969 L 41.21875 20.679688 L 41.054688 20.90625 L 40.878906 21.496094 L 40.824219 21.796875 L 40.890625 22.378906 L 41.300781 22.996094 L 40.871094 22.804688 L 40.632812 22.753906 L 40.542969 22.773438 L 40.375 22.835938 L 40.304688 22.917969 L 40.179688 23.105469 L 40.125 23.246094 L 40.0625 23.972656 L 40.175781 24.511719 L 40.296875 24.773438 L 40.574219 25.285156 L 40.757812 25.484375 L 41.148438 25.851562 L 41.363281 25.9375 L 42.078125 26.160156 L 42.4375 26.183594 L 43.140625 26.179688 L 43.472656 26.105469 L 44.117188 25.914062 L 44.410156 25.757812 L 44.957031 25.421875 L 45.183594 25.203125 L 45.589844 24.753906 L 45.726562 24.507812 L 45.957031 23.992188 L 45.984375 23.71875 L 45.984375 23.175781 L 45.890625 22.902344 L 45.625 22.375 L 45.375 22.125 L 44.582031 21.652344 L 43.988281 21.539062 L 43.707031 21.578125 L 43.164062 21.722656 L 42.953125 21.882812 L 42.628906 22.214844 L 42.65625 21.5 L 42.65625 21.226562 L 42.617188 20.828125 L 42.589844 20.648438 L 42.484375 20.417969 L 42.421875 20.320312 L 42.230469 20.234375 M 31.640625 21.6875 L 31.554688 21.71875 L 31.460938 21.859375 L 31.40625 22.1875 L 31.40625 22.390625 L 31.691406 22.878906 L 31.875 23.125 L 32.410156 23.597656 L 32.691406 23.816406 L 33.324219 24.148438 L 34.21875 24.375 L 34.421875 24.375 L 35.039062 24.160156 L 35.363281 24.027344 L 35.992188 23.644531 L 36.34375 23.394531 L 36.789062 22.871094 L 36.964844 22.617188 L 37.050781 22.171875 L 37.050781 21.976562 L 36.777344 21.746094 L 36.6875 21.707031 L 36.445312 21.699219 L 35.976562 21.789062 L 35.6875 21.882812 L 35.023438 22.023438 L 34.21875 22.121094 L 34.027344 22.121094 L 33.414062 22.023438 L 32.460938 21.789062 L 32.265625 21.726562 L 31.964844 21.664062 L 31.828125 21.652344 M 26.679688 23.3125 L 26.597656 23.304688 L 26.828125 23.28125 M 26.320312 23.179688 L 26.46875 23.296875 L 26.433594 23.296875 L 26.339844 23.246094 L 26.164062 23.109375 L 26.101562 22.992188 L 26.035156 22.851562 M 42.214844 23.195312 L 42.132812 23.230469 L 41.9375 23.257812 L 41.808594 23.226562 L 41.691406 23.179688 L 41.898438 23.226562 L 42.070312 23.234375 L 42.308594 23.058594 M 8.058594 12.824219 L 7.992188 13.96875 L 8.007812 13.636719 L 8.03125 13.117188 L 8.066406 12.722656 M 8.152344 11.902344 L 8.171875 11.742188 L 8.320312 10.953125 L 8.351562 10.808594 M 8.367188 10.738281 L 8.40625 10.574219 L 8.410156 10.5625 M 8.726562 9.601562 L 8.851562 9.261719 L 8.882812 9.214844 M 11.507812 6.777344 L 11.511719 6.773438 L 11.71875 6.6875 L 12.027344 6.609375 M 58.503906 41.617188 L 58.710938 41.347656 L 58.972656 40.953125 L 58.71875 41.34375 L 58.515625 41.609375 L 58 42.046875 L 57.046875 42.675781 L 57.992188 42.046875 Z M 58.503906 41.617188 "/>
<path style=" stroke:none;fill-rule:nonzero;fill:rgb(99.607843%,56.078434%,61.56863%);fill-opacity:1;" d="M 11.617188 33.359375 L 11.773438 33.820312 L 12.148438 34.757812 L 12.40625 35.234375 L 12.976562 36.203125 L 13.316406 36.679688 L 14.042969 37.632812 L 14.457031 38.085938 L 15.320312 38.984375 L 15.789062 39.402344 L 16.753906 40.214844 L 17.269531 40.570312 L 18.308594 41.25 L 18.851562 41.527344 L 19.78125 41.976562 L 20.335938 42.214844 L 20.585938 42.304688 L 21.535156 42.578125 L 21.964844 42.589844 L 22.820312 42.539062 L 23.28125 42.394531 L 24.25 42.023438 L 24.84375 41.71875 L 26.554688 41.015625 L 27.539062 40.8125 L 27.984375 40.851562 L 28.855469 41.011719 L 29.28125 41.230469 L 30.132812 41.765625 L 30.578125 42.171875 L 32.109375 43.566406 L 43.734375 43.578125 L 46.425781 43.589844 L 45.765625 43.589844 L 43.855469 43.59375 L 32.171875 43.59375 L 33.519531 45.003906 L 34.003906 45.507812 L 34.59375 46.554688 L 34.828125 47.085938 L 34.925781 48.148438 L 34.917969 48.679688 L 34.527344 49.703125 L 34.402344 49.949219 L 34.054688 50.4375 L 33.394531 51.132812 L 33.050781 51.4375 L 32.230469 51.980469 L 31.804688 52.242188 L 30.847656 52.683594 L 30.355469 52.890625 L 29.296875 53.226562 L 28.757812 53.375 L 27.632812 53.601562 L 27.0625 53.695312 L 25.898438 53.796875 L 25.3125 53.832031 L 24.148438 53.808594 L 23.570312 53.78125 L 22.4375 53.625 L 21.882812 53.53125 L 20.816406 53.242188 L 20.550781 53.160156 L 19.921875 52.925781 L 19.597656 52.800781 L 18.910156 52.507812 L 17.019531 51.585938 L 16.621094 51.367188 L 16.015625 50.9375 L 15.742188 50.71875 L 15.300781 50.195312 L 15.09375 49.914062 L 14.722656 49.167969 L 14.136719 47.648438 L 13.828125 46.75 L 13.28125 44.878906 L 13.015625 43.9375 L 12.578125 42.027344 L 12.371094 41.078125 L 12.046875 39.203125 L 11.902344 38.273438 L 11.695312 36.5 L 11.609375 35.640625 L 11.539062 34.039062 L 11.515625 33.265625 L 11.535156 32.914062 M 56.699219 42.886719 L 55.917969 43.171875 L 55.6875 43.238281 L 55.105469 43.335938 L 54.789062 43.382812 L 53.972656 43.449219 L 53.527344 43.480469 L 53.09375 43.496094 L 53.535156 43.457031 L 54.652344 43.34375 L 55.132812 43.261719 L 56.054688 43.0625 L 56.441406 42.933594 L 56.976562 42.71875 M 59.761719 37.832031 L 59.59375 39.03125 L 59.5 39.582031 L 59.234375 40.40625 L 59.089844 40.78125 L 58.710938 41.347656 L 58.503906 41.617188 L 58.285156 41.804688 L 58.320312 41.761719 L 58.765625 41.203125 L 58.941406 40.859375 L 59.265625 40.140625 L 59.390625 39.707031 L 59.609375 38.804688 L 59.691406 38.273438 L 59.78125 37.570312 M 60 26.621094 L 60 27.351562 L 60 12.453125 M 25.492188 21.84375 L 25.925781 22.542969 L 25.976562 22.730469 L 26.101562 22.992188 L 26.164062 23.109375 L 26.339844 23.246094 L 26.433594 23.296875 L 26.679688 23.3125 L 27.15625 23.210938 L 27.351562 23.152344 L 27.640625 23.105469 L 27.769531 23.09375 L 27.9375 23.179688 L 28.007812 23.234375 L 28.082031 23.46875 L 28.125 24.015625 L 28.125 24.320312 L 27.960938 24.964844 L 27.5625 25.6875 L 27.335938 25.914062 L 26.617188 26.152344 L 26.226562 26.242188 L 25.328125 26.226562 L 24.871094 26.1875 L 24.003906 25.941406 L 23.59375 25.785156 L 22.96875 25.3125 L 22.710938 25.054688 L 22.308594 24.511719 L 22.03125 23.90625 L 22.03125 23.710938 L 22.332031 23.207031 L 22.519531 22.949219 L 23.0625 22.4375 L 23.347656 22.195312 L 23.960938 21.816406 L 24.789062 21.5625 L 25.039062 21.5625 M 44.582031 21.652344 L 45.375 22.125 L 45.625 22.375 L 45.890625 22.902344 L 45.984375 23.175781 L 45.984375 23.71875 L 45.957031 23.992188 L 45.726562 24.507812 L 45.589844 24.753906 L 45.183594 25.203125 L 44.957031 25.421875 L 44.410156 25.757812 L 44.117188 25.914062 L 43.472656 26.105469 L 43.140625 26.179688 L 42.4375 26.183594 L 42.078125 26.160156 L 41.363281 25.9375 L 41.148438 25.851562 L 40.757812 25.484375 L 40.574219 25.285156 L 40.296875 24.773438 L 40.175781 24.511719 L 40.0625 23.972656 L 40.125 23.246094 L 40.179688 23.105469 L 40.304688 22.917969 L 40.375 22.835938 L 40.542969 22.773438 L 40.632812 22.753906 L 40.871094 22.804688 L 41.328125 23.011719 L 41.523438 23.113281 L 41.808594 23.226562 L 41.9375 23.257812 L 42.132812 23.230469 L 42.214844 23.195312 L 42.347656 23.007812 L 42.511719 22.53125 L 42.582031 22.261719 L 42.953125 21.882812 L 43.164062 21.722656 L 43.707031 21.578125 L 43.988281 21.539062 M 12.804688 28.152344 L 12.730469 28.351562 L 12.570312 28.714844 L 12.484375 28.84375 L 12.046875 29.703125 L 12.308594 29.078125 L 12.421875 28.917969 L 12.628906 28.496094 L 12.722656 28.269531 L 12.886719 27.769531 L 13.125 26.246094 L 12.9375 27.699219 M 17.34375 21.402344 L 17.34375 15.976562 L 17.34375 21.402344 L 21.914062 26.140625 L 22.59375 26.851562 L 21.914062 26.140625 Z M 17.34375 21.402344 "/>
<path style=" stroke:none;fill-rule:nonzero;fill:rgb(99.607843%,70.19608%,34.509805%);fill-opacity:1;" d="M 48.867188 43.566406 L 49.65625 43.554688 L 51.144531 43.53125 L 51.769531 43.519531 L 52.9375 43.480469 L 53.414062 43.453125 L 53.929688 43.421875 L 53.535156 43.457031 L 52.953125 43.507812 L 51.628906 43.5625 L 50.933594 43.578125 L 49.375 43.59375 L 48.5625 43.597656 L 46.753906 43.589844 L 43.734375 43.578125 L 47 43.574219 M 58.941406 40.859375 L 58.765625 41.203125 L 58.320312 41.761719 L 58.082031 42.023438 L 57.496094 42.441406 L 57.1875 42.632812 L 56.949219 42.730469 L 57.921875 42.003906 L 58.65625 41.21875 L 58.964844 40.777344 L 59.023438 40.679688 M 21.566406 42.578125 L 21.535156 42.578125 L 21.253906 42.496094 M 22.820312 42.539062 L 22.5625 42.554688 L 22.84375 42.535156 M 20.609375 42.3125 L 20.585938 42.304688 L 20.335938 42.214844 L 19.78125 41.976562 L 19.542969 41.859375 M 24.25 42.023438 L 23.996094 42.117188 L 24.261719 42.015625 M 8.296875 12.332031 L 8.453125 12.523438 L 8.792969 12.941406 L 9.015625 13.195312 L 9.484375 13.730469 L 9.757812 14.035156 L 10.96875 15.347656 L 11.695312 16.105469 L 13.222656 17.679688 L 14.0625 18.515625 L 16.429688 20.90625 L 17.136719 21.632812 L 17.464844 21.96875 L 18.089844 22.621094 L 18.367188 22.914062 L 18.890625 23.476562 L 19.109375 23.710938 L 19.519531 24.160156 L 19.671875 24.332031 L 19.949219 24.652344 L 20.03125 24.753906 L 20.15625 24.929688 L 20.15625 24.953125 L 20.023438 25.238281 L 19.820312 25.546875 L 19.664062 25.75 L 18.945312 26.648438 L 18.488281 27.160156 L 16.8125 29.007812 L 16.917969 34.835938 L 17.015625 40.390625 L 16.753906 40.214844 L 15.789062 39.402344 L 15.320312 38.984375 L 14.457031 38.085938 L 14.042969 37.632812 L 13.316406 36.679688 L 12.976562 36.203125 L 12.40625 35.234375 L 12.148438 34.757812 L 11.773438 33.820312 L 11.617188 33.359375 L 11.460938 32.488281 L 11.503906 31.304688 L 11.597656 30.882812 L 11.929688 29.945312 L 12.484375 28.84375 L 12.570312 28.714844 L 12.730469 28.351562 L 12.804688 28.152344 L 12.9375 27.699219 L 13.125 26.246094 L 13.125 25.898438 L 13.027344 25.296875 L 12.957031 25.003906 L 12.648438 24.417969 L 12.460938 24.109375 L 11.863281 23.394531 L 11.691406 23.203125 L 11.277344 22.765625 L 10.546875 22.03125 L 7.96875 19.484375 L 7.96875 14.410156 L 8.058594 12.824219 L 8.117188 12.085938 M 60 25.796875 L 60 26.976562 L 60.003906 29.101562 L 60.003906 31.972656 L 60 32.859375 L 59.972656 34.4375 L 59.953125 35.195312 L 59.878906 36.53125 L 59.832031 37.167969 L 59.765625 37.6875 L 59.703125 37.589844 L 59.5625 37.386719 L 59.246094 36.960938 L 59.039062 36.703125 L 58.59375 36.164062 L 58.328125 35.855469 L 57.757812 35.207031 L 57.4375 34.851562 L 56.757812 34.117188 L 56.375 33.710938 L 54.757812 32.023438 L 53.8125 31.078125 L 47.621094 24.875 L 44.476562 27.910156 L 43.054688 29.226562 L 42.171875 29.980469 L 41.757812 30.300781 L 40.929688 30.90625 L 40.53125 31.148438 L 39.742188 31.613281 L 39.34375 31.800781 L 39.171875 31.867188 L 39.324219 31.796875 L 40.398438 31.140625 L 40.953125 30.769531 L 42.214844 29.769531 L 42.546875 29.492188 L 43.265625 28.867188 L 43.636719 28.542969 L 44.4375 27.800781 L 44.855469 27.421875 L 45.753906 26.5625 L 46.21875 26.125 L 47.230469 25.140625 L 47.75 24.628906 L 48.886719 23.507812 L 50.742188 21.664062 L 60 12.453125 M 11.3125 6.847656 L 11 7.039062 L 9.917969 7.96875 L 9.230469 8.785156 L 8.945312 9.238281 L 8.722656 9.613281 L 8.890625 9.1875 L 9.117188 8.71875 L 9.71875 7.964844 L 10.039062 7.617188 L 10.855469 7.085938 L 11.296875 6.84375 L 11.386719 6.816406 Z M 11.3125 6.847656 "/>
<path style=" stroke:none;fill-rule:nonzero;fill:rgb(99.607843%,80.392158%,44.313726%);fill-opacity:1;" d="M 30.578125 42.171875 L 30.132812 41.765625 L 29.28125 41.230469 L 28.855469 41.011719 L 27.984375 40.851562 L 27.539062 40.8125 L 26.554688 41.015625 L 24.84375 41.71875 L 24.261719 42.015625 L 23.320312 42.382812 L 22.867188 42.53125 L 22.035156 42.59375 L 21.617188 42.59375 L 20.71875 42.355469 L 19.070312 41.664062 L 17.019531 40.664062 L 16.917969 34.835938 L 16.8125 29.007812 L 18.488281 27.160156 L 18.945312 26.648438 L 19.664062 25.75 L 19.820312 25.546875 L 20.023438 25.238281 L 20.15625 24.953125 L 20.15625 24.929688 L 20.03125 24.753906 L 19.949219 24.652344 L 19.671875 24.332031 L 19.519531 24.160156 L 19.109375 23.710938 L 18.890625 23.476562 L 18.367188 22.914062 L 18.089844 22.621094 L 17.464844 21.96875 L 17.136719 21.632812 L 16.429688 20.90625 L 14.0625 18.515625 L 13.222656 17.679688 L 11.695312 16.105469 L 10.96875 15.347656 L 9.757812 14.035156 L 9.484375 13.730469 L 9.015625 13.195312 L 8.792969 12.941406 L 8.453125 12.523438 L 8.296875 12.332031 L 8.09375 12.046875 L 7.96875 11.796875 L 7.96875 11.453125 L 8.242188 10.597656 L 8.410156 10.15625 L 8.945312 9.238281 L 9.230469 8.785156 L 9.917969 7.96875 L 11 7.039062 L 11.3125 6.847656 L 11.933594 6.570312 L 12.261719 6.449219 L 13.035156 6.28125 L 13.453125 6.210938 L 14.511719 6.136719 L 16.578125 6.09375 L 17.042969 6.09375 L 17.863281 6.113281 L 18.253906 6.125 L 18.914062 6.171875 L 19.226562 6.203125 L 19.730469 6.265625 L 19.960938 6.304688 L 20.296875 6.398438 L 20.441406 6.445312 L 20.605469 6.558594 L 20.667969 6.617188 L 20.652344 6.75 L 20.625 6.816406 L 20.429688 6.960938 L 19.925781 7.199219 L 19.828125 7.238281 L 19.578125 7.425781 L 19.449219 7.539062 L 19.152344 7.84375 L 18.285156 9.007812 L 18.089844 9.332031 L 17.804688 10 L 17.675781 10.355469 L 17.515625 11.253906 L 17.484375 11.503906 L 17.433594 12.09375 L 17.410156 12.402344 L 17.382812 13.128906 L 17.367188 13.507812 L 17.351562 14.410156 L 17.34375 15.976562 L 17.34375 21.402344 L 21.914062 26.140625 L 22.59375 26.851562 L 23.792969 28.050781 L 24.375 28.617188 L 25.414062 29.558594 L 25.921875 30.003906 L 26.855469 30.726562 L 27.308594 31.058594 L 28.1875 31.578125 L 28.621094 31.820312 L 29.488281 32.175781 L 29.925781 32.335938 L 30.835938 32.546875 L 31.304688 32.640625 L 32.3125 32.738281 L 33.984375 32.792969 L 34.523438 32.792969 L 35.503906 32.742188 L 35.984375 32.703125 L 36.875 32.574219 L 37.75 32.414062 L 39.34375 31.800781 L 39.742188 31.613281 L 40.53125 31.148438 L 40.929688 30.90625 L 41.757812 30.300781 L 42.171875 29.980469 L 43.054688 29.226562 L 44.476562 27.910156 L 47.621094 24.875 L 53.8125 31.078125 L 54.757812 32.023438 L 56.375 33.710938 L 56.757812 34.117188 L 57.4375 34.851562 L 57.757812 35.207031 L 58.328125 35.855469 L 58.59375 36.164062 L 59.039062 36.703125 L 59.246094 36.960938 L 59.5625 37.386719 L 59.703125 37.589844 L 59.886719 37.894531 L 60 38.207031 L 59.996094 38.570312 L 59.710938 39.429688 L 59.527344 39.871094 L 58.964844 40.777344 L 58.65625 41.21875 L 57.921875 42.003906 L 56.761719 42.867188 L 56.617188 42.941406 L 56.265625 43.070312 L 56.070312 43.128906 L 55.589844 43.234375 L 55.328125 43.28125 L 54.660156 43.359375 L 54.304688 43.398438 L 53.414062 43.453125 L 52.9375 43.480469 L 51.769531 43.519531 L 51.144531 43.53125 L 49.65625 43.554688 L 48.867188 43.566406 L 47 43.574219 L 43.734375 43.578125 L 32.109375 43.566406 Z M 30.578125 42.171875 "/>
</g>
</svg>
