<?xml version="1.0" encoding="UTF-8"?>
<svg xmlns="http://www.w3.org/2000/svg" xmlns:xlink="http://www.w3.org/1999/xlink" width="85px" height="px" viewBox="0 0 85 85" version="1.1">
<g id="surface1">
<path style=" stroke:none;fill-rule:nonzero;fill:rgb(0%,0%,0%);fill-opacity:1;" d="M 25.234375 11.953125 C 23.507812 15.273438 13.148438 15.671875 10.625 12.617188 C 6.640625 7.835938 -0.398438 13.015625 2.65625 18.59375 C 4.382812 21.78125 8.234375 22.046875 10.625 19.257812 C 11.820312 17.796875 15.007812 17.265625 22.046875 17.265625 C 30.8125 17.265625 31.875 17.53125 31.875 19.789062 C 31.875 21.78125 30.546875 22.445312 25.5 23.242188 C 22.046875 23.640625 18.460938 24.4375 17.664062 24.96875 C 16.203125 25.898438 0 55.117188 0 56.976562 C 0 57.507812 2.125 58.96875 4.648438 60.164062 C 9.828125 62.554688 9.695312 62.6875 15.140625 52.460938 C 17.132812 48.609375 17.132812 48.875 17.265625 62.023438 L 17.265625 75.703125 L 49.007812 75.703125 L 49.40625 62.023438 L 49.804688 48.476562 L 53.65625 55.382812 C 55.78125 59.234375 57.90625 62.421875 58.304688 62.421875 C 58.703125 62.421875 61.09375 61.226562 63.484375 59.765625 L 67.867188 57.109375 L 59.632812 41.4375 C 54.984375 32.9375 50.734375 25.5 49.9375 24.96875 C 49.273438 24.4375 45.6875 23.640625 42.234375 23.242188 C 37.1875 22.445312 35.859375 21.78125 35.859375 19.789062 C 35.859375 17.53125 36.921875 17.265625 49.804688 17.265625 C 62.820312 17.265625 63.75 17.398438 63.75 19.921875 C 63.75 21.78125 62.820312 22.578125 60.695312 22.578125 C 55.117188 22.578125 54.054688 25.367188 58.039062 29.484375 C 62.289062 33.867188 67.867188 34.398438 71.71875 30.546875 C 73.976562 28.289062 74.90625 28.15625 77.695312 29.484375 C 81.945312 31.476562 81.945312 33.070312 77.03125 38.515625 C 74.90625 40.90625 73.046875 43.828125 73.046875 44.757812 C 73.046875 45.6875 71.585938 46.484375 69.726562 46.484375 C 65.34375 46.484375 65.476562 48.875 69.859375 49.40625 C 72.515625 49.671875 74.375 51.53125 77.429688 56.84375 L 81.414062 63.882812 L 78.226562 67.203125 C 73.976562 71.71875 66.539062 73.578125 59.632812 71.71875 C 53.789062 70.125 51.664062 70.789062 54.1875 73.3125 C 54.984375 74.109375 59.234375 75.039062 63.351562 75.304688 C 71.984375 75.96875 78.359375 73.3125 82.875 67.335938 L 85.398438 64.015625 L 80.617188 55.515625 C 75.703125 46.617188 75.703125 43.164062 80.75 39.710938 C 82.210938 38.648438 83.671875 35.992188 84.203125 33.601562 C 85.132812 29.484375 84.867188 29.21875 78.492188 26.03125 C 74.773438 24.039062 70.921875 22.578125 69.726562 22.578125 C 68.664062 22.578125 67.734375 21.382812 67.734375 19.921875 C 67.734375 16.734375 71.984375 16.335938 74.375 19.257812 C 76.765625 22.046875 80.617188 21.78125 82.34375 18.59375 C 85.398438 13.015625 78.359375 7.835938 74.375 12.617188 C 71.984375 15.40625 68.132812 15.140625 66.40625 11.953125 C 65.609375 10.359375 63.617188 9.296875 61.757812 9.296875 C 59.898438 9.296875 57.90625 10.359375 57.109375 11.953125 C 55.914062 14.210938 54.320312 14.609375 45.820312 14.609375 C 37.320312 14.609375 35.726562 14.210938 34.53125 11.953125 C 33.734375 10.359375 31.742188 9.296875 29.882812 9.296875 C 28.023438 9.296875 26.03125 10.359375 25.234375 11.953125 Z M 31.210938 13.28125 C 31.609375 13.945312 31.34375 14.609375 30.679688 14.609375 C 29.882812 14.609375 29.21875 13.945312 29.21875 13.28125 C 29.21875 12.484375 29.484375 11.953125 29.75 11.953125 C 30.148438 11.953125 30.8125 12.484375 31.210938 13.28125 Z M 63.085938 13.28125 C 63.484375 13.945312 63.21875 14.609375 62.554688 14.609375 C 61.757812 14.609375 61.09375 13.945312 61.09375 13.28125 C 61.09375 12.484375 61.359375 11.953125 61.625 11.953125 C 62.023438 11.953125 62.6875 12.484375 63.085938 13.28125 Z M 8.632812 15.9375 C 9.03125 16.601562 8.5 17.265625 7.4375 17.265625 C 6.242188 17.265625 5.3125 16.601562 5.3125 15.9375 C 5.3125 15.140625 5.84375 14.609375 6.507812 14.609375 C 7.304688 14.609375 8.234375 15.140625 8.632812 15.9375 Z M 79.6875 15.9375 C 79.6875 16.601562 79.15625 17.265625 78.492188 17.265625 C 77.695312 17.265625 76.765625 16.601562 76.367188 15.9375 C 75.96875 15.140625 76.5 14.609375 77.5625 14.609375 C 78.757812 14.609375 79.6875 15.140625 79.6875 15.9375 Z M 35.726562 28.820312 C 35.59375 30.148438 35.195312 32.671875 34.664062 34.53125 C 33.734375 37.585938 33.601562 37.453125 32.273438 32.140625 C 30.945312 27.09375 31.078125 26.5625 33.335938 26.5625 C 34.929688 26.5625 35.859375 27.492188 35.726562 28.820312 Z M 68.53125 28.554688 C 65.210938 31.078125 64.414062 31.078125 62.421875 28.554688 C 60.960938 26.828125 61.492188 26.5625 65.875 26.5625 C 70.65625 26.695312 70.921875 26.828125 68.53125 28.554688 Z M 21.78125 29.75 C 21.382812 30.8125 21.78125 32.007812 22.578125 32.539062 C 23.640625 33.203125 23.640625 34 22.445312 35.328125 C 21.117188 36.921875 21.78125 38.382812 26.296875 42.898438 L 31.875 48.609375 L 31.875 73.046875 L 21.25 73.046875 L 21.25 56.578125 C 21.25 47.414062 20.71875 39.710938 20.054688 39.3125 C 19.390625 38.78125 16.601562 42.5 13.8125 47.414062 C 7.835938 58.304688 8.5 57.640625 6.109375 56.710938 C 4.648438 56.179688 5.84375 52.859375 11.554688 41.96875 C 15.671875 34.265625 19.789062 27.890625 20.71875 27.890625 C 21.648438 27.890625 22.179688 28.6875 21.78125 29.75 Z M 27.890625 30.015625 C 27.890625 31.078125 27.226562 31.609375 26.5625 31.210938 C 25.765625 30.679688 25.5 29.75 25.898438 29.085938 C 27.09375 27.226562 27.890625 27.625 27.890625 30.015625 Z M 40.640625 31.34375 C 40.109375 32.539062 39.445312 33.335938 39.179688 32.9375 C 38.78125 32.539062 38.78125 31.210938 39.3125 30.015625 C 39.84375 28.820312 40.507812 28.023438 40.773438 28.421875 C 41.171875 28.820312 41.171875 30.148438 40.640625 31.34375 Z M 55.515625 41.570312 C 59.367188 49.007812 62.421875 55.515625 62.421875 56.046875 C 62.421875 56.710938 61.492188 57.109375 60.5625 57.109375 C 59.5 57.109375 56.3125 52.859375 53.65625 47.8125 C 51 42.632812 48.210938 38.914062 47.679688 39.445312 C 47.015625 40.109375 46.351562 47.679688 46.21875 56.445312 L 45.820312 72.382812 L 40.90625 72.78125 L 35.859375 73.179688 L 35.859375 48.609375 L 41.4375 42.898438 C 46.085938 38.117188 46.617188 37.054688 45.15625 35.195312 C 43.960938 33.734375 43.828125 32.804688 45.023438 31.476562 C 45.820312 30.414062 46.085938 29.21875 45.554688 28.820312 C 45.15625 28.289062 45.554688 27.890625 46.617188 27.890625 C 47.679688 27.890625 51.664062 34 55.515625 41.570312 Z M 29.75 37.851562 C 30.679688 41.4375 30.546875 41.703125 28.554688 39.710938 C 27.359375 38.515625 26.828125 36.65625 27.359375 35.328125 C 28.421875 32.539062 28.554688 32.804688 29.75 37.851562 Z M 39.445312 39.445312 C 37.320312 41.570312 37.1875 41.570312 37.1875 39.046875 C 37.1875 37.585938 37.585938 35.859375 38.117188 35.460938 C 38.648438 34.929688 39.578125 35.0625 40.375 35.859375 C 41.304688 36.789062 41.039062 37.984375 39.445312 39.445312 Z M 39.445312 39.445312 "/>
</g>
</svg>
