<?xml version="1.0" encoding="UTF-8"?>
<svg xmlns="http://www.w3.org/2000/svg" xmlns:xlink="http://www.w3.org/1999/xlink" width="30px" height="30px" viewBox="0 0 30 30" version="1.1">
<g id="surface1">
<path style=" stroke:none;fill-rule:nonzero;fill:rgb(0%,0%,0%);fill-opacity:1;" d="M 14.488281 0.46875 L 15.367188 0.46875 L 15.835938 0.5 L 16.390625 0.554688 L 16.800781 0.628906 L 17.226562 0.734375 L 17.59375 0.835938 L 18.324219 1.085938 L 18.765625 1.203125 L 19.21875 1.289062 L 19.6875 1.347656 L 20.304688 1.390625 L 20.785156 1.40625 L 21.636719 1.40625 L 21.753906 1.4375 L 21.828125 1.480469 L 21.914062 1.609375 L 21.972656 1.789062 L 22 1.976562 L 22.015625 2.226562 L 22.015625 2.460938 L 21.988281 2.753906 L 21.929688 3.046875 L 21.839844 3.296875 L 21.722656 3.574219 L 21.648438 3.691406 L 21.648438 3.792969 L 21.765625 4.027344 L 21.914062 4.335938 L 22.046875 4.6875 L 22.191406 5.1875 L 22.28125 5.582031 L 22.367188 6.0625 L 22.425781 6.578125 L 22.441406 6.8125 L 22.441406 7.96875 L 22.414062 8.511719 L 22.367188 8.949219 L 22.296875 9.359375 L 22.191406 9.785156 L 22.191406 9.992188 L 22.351562 10.445312 L 22.414062 10.695312 L 22.441406 10.957031 L 22.441406 11.601562 L 22.414062 11.894531 L 22.339844 12.246094 L 22.222656 12.597656 L 22.105469 12.832031 L 21.972656 13.050781 L 21.855469 13.210938 L 21.722656 13.375 L 21.53125 13.5625 L 21.296875 13.726562 L 21.136719 13.785156 L 20.960938 13.859375 L 20.917969 13.886719 L 20.800781 14.371094 L 20.625 14.898438 L 20.507812 15.21875 L 20.347656 15.585938 L 20.199219 15.894531 L 20.039062 16.1875 L 19.921875 16.375 L 19.789062 16.597656 L 19.613281 16.816406 L 19.484375 16.976562 L 19.320312 17.183594 L 19.234375 17.359375 L 19.21875 17.492188 L 19.21875 18.96875 L 19.25 19.234375 L 19.304688 19.484375 L 19.421875 19.746094 L 19.539062 19.9375 L 19.703125 20.140625 L 19.890625 20.332031 L 20.054688 20.464844 L 20.242188 20.609375 L 20.507812 20.800781 L 20.667969 20.902344 L 20.890625 21.035156 L 21.195312 21.210938 L 21.695312 21.460938 L 22.074219 21.621094 L 22.296875 21.710938 L 22.867188 21.929688 L 23.511719 22.148438 L 24.125 22.339844 L 24.757812 22.515625 L 25.296875 22.660156 L 25.632812 22.765625 L 26.015625 22.882812 L 26.410156 23.027344 L 26.734375 23.160156 L 27.011719 23.304688 L 27.230469 23.421875 L 27.4375 23.554688 L 27.625 23.6875 L 27.859375 23.863281 L 28.066406 24.039062 L 28.183594 24.140625 L 28.285156 24.257812 L 28.460938 24.449219 L 28.609375 24.640625 L 28.785156 24.917969 L 28.960938 25.253906 L 29.105469 25.589844 L 29.210938 25.882812 L 29.328125 26.324219 L 29.398438 26.6875 L 29.457031 27.15625 L 29.5 27.742188 L 29.515625 28.273438 L 29.515625 28.945312 L 29.5 29.179688 L 29.457031 29.296875 L 29.355469 29.414062 L 29.195312 29.472656 L 29.105469 29.488281 L 28.871094 29.488281 L 28.753906 29.445312 L 28.667969 29.339844 L 28.609375 29.179688 L 28.59375 28.988281 L 28.5625 28.210938 L 28.519531 27.554688 L 28.460938 26.984375 L 28.417969 26.632812 L 28.316406 26.175781 L 28.226562 25.914062 L 28.066406 25.5625 L 27.933594 25.328125 L 27.816406 25.152344 L 27.65625 24.945312 L 27.480469 24.757812 L 27.335938 24.625 L 27.144531 24.476562 L 26.921875 24.332031 L 26.632812 24.15625 L 26.265625 23.980469 L 25.867188 23.820312 L 25.429688 23.671875 L 24.886719 23.523438 L 24.273438 23.363281 L 23.730469 23.21875 L 22.75 22.910156 L 21.914062 22.632812 L 21.828125 22.660156 L 21.753906 22.734375 L 21.621094 22.882812 L 21.546875 22.96875 L 21.445312 23.054688 L 21.429688 23.085938 L 21.402344 23.085938 L 21.371094 23.144531 L 21.152344 23.351562 L 20.992188 23.496094 L 20.785156 23.65625 L 20.609375 23.804688 L 20.316406 24.023438 L 20.097656 24.183594 L 19.90625 24.300781 L 19.539062 24.523438 L 19.160156 24.726562 L 18.925781 24.84375 L 18.617188 24.992188 L 18.222656 25.152344 L 17.960938 25.253906 L 17.402344 25.429688 L 16.917969 25.546875 L 16.273438 25.664062 L 15.761719 25.722656 L 15.351562 25.75 L 14.515625 25.75 L 13.960938 25.707031 L 13.507812 25.648438 L 12.890625 25.515625 L 12.363281 25.371094 L 11.878906 25.210938 L 11.441406 25.035156 L 11.164062 24.917969 L 10.929688 24.800781 L 10.515625 24.578125 L 10.269531 24.433594 L 9.976562 24.242188 L 9.695312 24.054688 L 9.390625 23.820312 L 9.214844 23.671875 L 9.082031 23.570312 L 8.90625 23.40625 L 8.789062 23.304688 L 8.539062 23.070312 L 8.363281 22.882812 L 8.261719 22.765625 L 8.101562 22.632812 L 7.96875 22.648438 L 7.585938 22.777344 L 7.222656 22.910156 L 6.578125 23.117188 L 6.050781 23.261719 L 5.507812 23.40625 L 5.070312 23.523438 L 4.410156 23.714844 L 4.070312 23.832031 L 3.78125 23.949219 L 3.457031 24.097656 L 3.179688 24.257812 L 2.914062 24.433594 L 2.710938 24.59375 L 2.546875 24.726562 L 2.3125 24.960938 L 2.109375 25.238281 L 1.933594 25.546875 L 1.816406 25.78125 L 1.714844 26.03125 L 1.640625 26.28125 L 1.566406 26.644531 L 1.523438 26.921875 L 1.464844 27.453125 L 1.421875 27.992188 L 1.40625 28.285156 L 1.390625 28.945312 L 1.363281 29.003906 L 1.320312 29.019531 L 1.070312 29.03125 L 0.484375 29.03125 L 0.453125 29.003906 L 0.453125 28.519531 L 0.5 27.65625 L 0.542969 27.039062 L 0.585938 26.617188 L 0.6875 26.164062 L 0.789062 25.796875 L 0.878906 25.5625 L 1.011719 25.269531 L 1.203125 24.929688 L 1.304688 24.757812 L 1.421875 24.59375 L 1.554688 24.417969 L 1.683594 24.257812 L 1.84375 24.082031 L 2.078125 23.875 L 2.328125 23.6875 L 2.503906 23.570312 L 2.8125 23.378906 L 3.238281 23.160156 L 3.515625 23.042969 L 3.941406 22.882812 L 4.378906 22.75 L 5.007812 22.574219 L 5.976562 22.308594 L 6.605469 22.117188 L 7.132812 21.945312 L 7.5 21.8125 L 7.894531 21.648438 L 8.1875 21.519531 L 8.421875 21.414062 L 8.90625 21.167969 L 9.15625 21.019531 L 9.417969 20.859375 L 9.695312 20.667969 L 9.84375 20.550781 L 10.035156 20.390625 L 10.136719 20.304688 L 10.238281 20.1875 L 10.355469 20.054688 L 10.515625 19.820312 L 10.605469 19.628906 L 10.695312 19.367188 L 10.738281 19.117188 L 10.75 18.824219 L 10.765625 17.445312 L 10.75 17.3125 L 10.621094 17.125 L 10.488281 16.976562 L 10.355469 16.800781 L 10.164062 16.539062 L 9.960938 16.214844 L 9.8125 15.96875 L 9.59375 15.542969 L 9.417969 15.132812 L 9.289062 14.78125 L 9.171875 14.429688 L 9.109375 14.195312 L 9.054688 13.886719 L 9.039062 13.859375 L 8.773438 13.753906 L 8.613281 13.667969 L 8.421875 13.519531 L 8.277344 13.390625 L 8.160156 13.273438 L 8.027344 13.09375 L 7.851562 12.816406 L 7.734375 12.597656 L 7.601562 12.203125 L 7.53125 11.878906 L 7.5 11.585938 L 7.5 11.03125 L 7.53125 10.695312 L 7.574219 10.429688 L 7.632812 10.238281 L 7.691406 10.0625 L 7.691406 9.8125 L 7.648438 9.578125 L 7.585938 9.300781 L 7.53125 8.714844 L 7.5 8.203125 L 7.484375 7.660156 L 7.484375 6.636719 L 7.5 6.210938 L 7.542969 5.800781 L 7.617188 5.421875 L 7.777344 4.90625 L 7.867188 4.6875 L 8.054688 4.292969 L 8.1875 4.085938 L 8.277344 3.925781 L 8.394531 3.765625 L 8.554688 3.546875 L 8.585938 3.5 L 8.613281 3.5 L 8.640625 3.441406 L 8.863281 3.207031 L 9.023438 3.046875 L 9.183594 2.914062 L 9.332031 2.796875 L 9.609375 2.609375 L 9.859375 2.460938 L 9.976562 2.375 L 10.078125 2.257812 L 10.164062 2.152344 L 10.195312 2.152344 L 10.226562 2.09375 L 10.355469 1.960938 L 10.445312 1.859375 L 10.5625 1.757812 L 10.707031 1.625 L 11 1.40625 L 11.308594 1.214844 L 11.570312 1.070312 L 11.9375 0.90625 L 12.21875 0.804688 L 12.597656 0.703125 L 12.976562 0.617188 L 13.433594 0.542969 L 13.902344 0.5 Z M 14.75 1.390625 L 14.164062 1.421875 L 13.679688 1.464844 L 13.140625 1.554688 L 12.730469 1.640625 L 12.21875 1.816406 L 11.910156 1.960938 L 11.632812 2.140625 L 11.425781 2.285156 L 11.21875 2.460938 L 11.175781 2.492188 L 11.175781 2.519531 L 11.117188 2.546875 L 11.015625 2.652344 L 10.839844 2.871094 L 10.839844 2.898438 L 10.8125 2.898438 L 10.679688 3.078125 L 10.546875 3.195312 L 10.386719 3.28125 L 10.0625 3.472656 L 9.886719 3.589844 L 9.742188 3.707031 L 9.578125 3.835938 L 9.578125 3.867188 L 9.550781 3.867188 L 9.550781 3.898438 L 9.523438 3.898438 L 9.460938 3.953125 L 9.460938 3.984375 L 9.40625 4.015625 L 9.199219 4.261719 L 9.066406 4.453125 L 8.964844 4.613281 L 8.875 4.773438 L 8.730469 5.070312 L 8.628906 5.359375 L 8.523438 5.757812 L 8.480469 5.992188 L 8.4375 6.414062 L 8.4375 7.894531 L 8.480469 8.773438 L 8.523438 9.242188 L 8.613281 9.214844 L 8.789062 9.097656 L 9.023438 8.90625 L 9.15625 8.804688 L 9.34375 8.628906 L 9.667969 8.304688 L 9.902344 8.011719 L 10.019531 7.851562 L 10.164062 7.648438 L 10.253906 7.5 L 10.34375 7.367188 L 10.429688 7.207031 L 10.578125 6.957031 L 10.855469 6.414062 L 11 6.109375 L 11.207031 5.625 L 11.324219 5.390625 L 11.441406 5.242188 L 11.558594 5.15625 L 11.585938 5.140625 L 11.777344 5.15625 L 11.921875 5.214844 L 12.1875 5.40625 L 12.335938 5.523438 L 12.582031 5.683594 L 12.964844 5.890625 L 13.300781 6.019531 L 13.535156 6.09375 L 13.871094 6.167969 L 14.355469 6.226562 L 14.5625 6.242188 L 15.058594 6.242188 L 15.46875 6.210938 L 17.066406 6.035156 L 17.242188 6.019531 L 17.914062 6.019531 L 18.222656 6.0625 L 18.574219 6.167969 L 18.851562 6.285156 L 19.101562 6.414062 L 19.277344 6.53125 L 19.421875 6.648438 L 19.570312 6.78125 L 19.6875 6.882812 L 19.820312 7.03125 L 19.953125 7.191406 L 20.125 7.441406 L 20.316406 7.75 L 20.539062 8.128906 L 20.65625 8.335938 L 20.828125 8.65625 L 20.992188 8.9375 L 21.109375 9.125 L 21.242188 9.273438 L 21.285156 9.316406 L 21.3125 9.316406 L 21.3125 9.34375 L 21.34375 9.34375 L 21.429688 8.585938 L 21.476562 8.011719 L 21.488281 7.703125 L 21.488281 6.914062 L 21.445312 6.402344 L 21.402344 6.035156 L 21.285156 5.492188 L 21.179688 5.140625 L 21.019531 4.6875 L 20.800781 4.21875 L 20.609375 3.882812 L 20.550781 3.75 L 20.566406 3.632812 L 20.683594 3.398438 L 20.828125 3.148438 L 20.976562 2.796875 L 21.0625 2.476562 L 21.0625 2.386719 L 21.035156 2.359375 L 20.933594 2.34375 L 20.023438 2.300781 L 19.320312 2.242188 L 18.941406 2.183594 L 18.414062 2.066406 L 18.03125 1.960938 L 17.546875 1.800781 L 17.183594 1.683594 L 16.832031 1.597656 L 16.375 1.507812 L 15.953125 1.449219 L 15.382812 1.40625 L 15.074219 1.390625 Z M 11.894531 6.476562 L 11.820312 6.59375 L 11.734375 6.8125 L 11.601562 7.0625 L 11.484375 7.296875 L 11.335938 7.574219 L 11.207031 7.808594 L 11.089844 7.984375 L 10.957031 8.1875 L 10.765625 8.46875 L 10.632812 8.640625 L 10.429688 8.890625 L 10.238281 9.109375 L 10.136719 9.214844 L 10.035156 9.332031 L 9.917969 9.449219 L 9.886719 9.460938 L 9.886719 9.492188 L 9.828125 9.523438 L 9.652344 9.683594 L 9.40625 9.875 L 9.15625 10.046875 L 8.832031 10.238281 L 8.523438 10.414062 L 8.4375 10.488281 L 8.40625 10.707031 L 8.394531 10.867188 L 8.378906 11.25 L 8.40625 11.703125 L 8.453125 11.953125 L 8.539062 12.246094 L 8.65625 12.496094 L 8.757812 12.640625 L 8.863281 12.773438 L 9.007812 12.875 L 9.15625 12.964844 L 9.375 13.050781 L 9.625 13.140625 L 9.757812 13.226562 L 9.828125 13.34375 L 9.917969 13.609375 L 10.0625 14.148438 L 10.195312 14.589844 L 10.371094 15.058594 L 10.5625 15.484375 L 10.695312 15.734375 L 10.855469 15.996094 L 11.058594 16.273438 L 11.234375 16.480469 L 11.425781 16.671875 L 11.542969 16.773438 L 11.894531 17.125 L 12.085938 17.269531 L 12.347656 17.460938 L 12.597656 17.621094 L 12.976562 17.855469 L 13.242188 18.003906 L 13.550781 18.132812 L 13.886719 18.222656 L 14.148438 18.265625 L 14.472656 18.296875 L 14.765625 18.3125 L 15.277344 18.3125 L 15.644531 18.28125 L 15.996094 18.222656 L 16.273438 18.148438 L 16.507812 18.0625 L 16.832031 17.898438 L 17.183594 17.679688 L 17.460938 17.503906 L 17.828125 17.257812 L 18.015625 17.109375 L 18.222656 16.933594 L 18.25 16.875 L 18.3125 16.84375 L 18.3125 16.816406 L 18.367188 16.789062 L 18.367188 16.757812 L 18.429688 16.726562 L 18.71875 16.4375 L 18.882812 16.230469 L 19 16.070312 L 19.203125 15.734375 L 19.378906 15.394531 L 19.484375 15.175781 L 19.65625 14.75 L 19.773438 14.382812 L 19.890625 13.976562 L 20.007812 13.476562 L 20.082031 13.285156 L 20.171875 13.167969 L 20.214844 13.125 L 20.523438 13.050781 L 20.785156 12.933594 L 20.992188 12.789062 L 21.09375 12.6875 L 21.242188 12.464844 L 21.328125 12.289062 L 21.429688 11.894531 L 21.476562 11.585938 L 21.488281 11.425781 L 21.488281 11.191406 L 21.460938 10.824219 L 21.386719 10.5625 L 21.296875 10.386719 L 21.210938 10.3125 L 21.035156 10.238281 L 20.828125 10.121094 L 20.683594 10.003906 L 20.476562 9.800781 L 20.257812 9.507812 L 20.097656 9.257812 L 19.921875 8.964844 L 19.703125 8.585938 L 19.453125 8.171875 L 19.304688 7.953125 L 19.175781 7.777344 L 19.042969 7.617188 L 19.015625 7.617188 L 18.984375 7.558594 L 18.808594 7.398438 L 18.589844 7.25 L 18.355469 7.132812 L 18.003906 7.015625 L 17.769531 6.988281 L 17.386719 6.988281 L 16.90625 7.03125 L 15.851562 7.164062 L 15.335938 7.207031 L 15.085938 7.222656 L 14.371094 7.222656 L 13.769531 7.164062 L 13.390625 7.089844 L 13.023438 6.988281 L 12.6875 6.871094 L 12.304688 6.695312 L 12.039062 6.546875 L 11.921875 6.476562 Z M 11.734375 18.089844 L 11.703125 18.851562 L 11.675781 19.277344 L 11.632812 19.585938 L 11.570312 19.789062 L 11.441406 20.097656 L 11.265625 20.40625 L 11.074219 20.65625 L 10.941406 20.800781 L 10.839844 20.917969 L 10.707031 21.050781 L 10.546875 21.179688 L 10.472656 21.242188 L 10.472656 21.269531 L 10.414062 21.296875 L 10.210938 21.460938 L 9.960938 21.636719 L 9.667969 21.8125 L 9.433594 21.945312 L 9.054688 22.117188 L 8.980469 22.148438 L 9.023438 22.222656 L 9.125 22.324219 L 9.171875 22.382812 L 9.199219 22.382812 L 9.199219 22.414062 L 9.316406 22.515625 L 9.507812 22.691406 L 9.828125 22.953125 L 10.046875 23.128906 L 10.296875 23.304688 L 10.503906 23.453125 L 10.78125 23.628906 L 11.117188 23.820312 L 11.515625 24.023438 L 11.792969 24.15625 L 12.378906 24.390625 L 12.859375 24.535156 L 13.199219 24.625 L 13.59375 24.695312 L 14.105469 24.769531 L 14.648438 24.8125 L 15.410156 24.8125 L 15.894531 24.769531 L 16.464844 24.683594 L 16.890625 24.59375 L 17.402344 24.449219 L 17.753906 24.332031 L 18.078125 24.199219 L 18.472656 24.023438 L 18.867188 23.820312 L 19.378906 23.511719 L 19.644531 23.335938 L 19.804688 23.21875 L 19.9375 23.117188 L 20.082031 23 L 20.242188 22.867188 L 20.390625 22.734375 L 20.539062 22.617188 L 20.699219 22.46875 L 20.816406 22.367188 L 21.007812 22.191406 L 21.007812 22.164062 L 20.59375 21.972656 L 20.257812 21.78125 L 20.113281 21.695312 L 19.9375 21.578125 L 19.730469 21.429688 L 19.527344 21.269531 L 19.234375 21.007812 L 19.027344 20.800781 L 18.898438 20.640625 L 18.75 20.449219 L 18.601562 20.214844 L 18.484375 19.980469 L 18.414062 19.804688 L 18.324219 19.496094 L 18.296875 19.304688 L 18.28125 18.984375 L 18.265625 18.121094 L 18.195312 18.132812 L 17.929688 18.296875 L 17.769531 18.414062 L 17.5625 18.546875 L 17.34375 18.675781 L 17.007812 18.851562 L 16.683594 18.96875 L 16.304688 19.070312 L 15.980469 19.132812 L 15.542969 19.175781 L 15.234375 19.1875 L 14.53125 19.1875 L 14.164062 19.160156 L 13.742188 19.101562 L 13.445312 19.027344 L 13.125 18.910156 L 12.804688 18.765625 L 12.539062 18.617188 L 12.320312 18.472656 L 12.070312 18.296875 L 11.792969 18.105469 Z M 11.734375 18.089844 "/>
</g>
</svg>
