<?xml version="1.0" encoding="UTF-8"?>
<svg xmlns="http://www.w3.org/2000/svg" xmlns:xlink="http://www.w3.org/1999/xlink" width="60px" height="60px" viewBox="0 0 60 60" version="1.1">
<g id="surface1">
<path style=" stroke:none;fill-rule:nonzero;fill:rgb(16.470589%,17.647059%,41.960785%);fill-opacity:1;" d="M 34.597656 19.730469 L 34.765625 19.78125 L 34.839844 19.835938 L 34.992188 19.964844 L 35.058594 20.0625 L 35.183594 20.269531 L 35.234375 20.398438 L 35.320312 20.675781 L 35.347656 20.839844 L 35.390625 21.179688 L 35.390625 21.367188 L 35.363281 21.875 L 35.3125 22.164062 L 35.273438 22.289062 L 35.183594 22.53125 L 35.121094 22.636719 L 34.980469 22.84375 L 34.765625 23.078125 L 34.714844 23.117188 L 34.625 23.179688 L 34.582031 23.1875 L 34.496094 23.175781 L 34.441406 23.148438 L 34.320312 23.074219 L 34.234375 23.011719 L 34.023438 22.808594 L 33.902344 22.628906 L 33.855469 22.523438 L 33.765625 22.304688 L 33.730469 22.183594 L 33.671875 21.9375 L 33.65625 21.804688 L 33.628906 21.542969 L 33.625 21.40625 L 33.632812 21.136719 L 33.652344 21.007812 L 33.695312 20.746094 L 33.730469 20.625 L 33.8125 20.386719 L 33.863281 20.277344 L 34.09375 19.941406 L 34.257812 19.800781 L 34.34375 19.765625 L 34.515625 19.71875 M 25.484375 19.726562 L 25.5625 19.75 L 25.769531 19.890625 L 25.894531 20.042969 L 25.949219 20.144531 L 26.046875 20.359375 L 26.085938 20.484375 L 26.160156 20.746094 L 26.183594 20.886719 L 26.226562 21.171875 L 26.234375 21.3125 L 26.238281 21.605469 L 26.230469 21.742188 L 26.199219 22.019531 L 26.167969 22.144531 L 26.097656 22.386719 L 26.046875 22.492188 L 25.886719 22.761719 L 25.800781 22.855469 L 25.628906 23.019531 L 25.542969 23.058594 L 25.367188 23.121094 L 25.28125 23.113281 L 25.117188 23.078125 L 25.039062 23.023438 L 24.886719 22.898438 L 24.820312 22.804688 L 24.695312 22.597656 L 24.648438 22.460938 L 24.558594 22.179688 L 24.535156 22.007812 L 24.492188 21.652344 L 24.492188 21.453125 L 24.511719 21.035156 L 24.546875 20.78125 L 24.574219 20.667969 L 24.632812 20.445312 L 24.667969 20.347656 L 24.75 20.164062 L 24.796875 20.089844 L 24.898438 19.949219 L 24.953125 19.894531 L 25.070312 19.800781 L 25.136719 19.769531 L 25.269531 19.722656 L 25.339844 19.71875 Z M 25.484375 19.726562 "/>
<path style=" stroke:none;fill-rule:nonzero;fill:rgb(30.588236%,36.470589%,65.490198%);fill-opacity:1;" d="M 34.324219 39.460938 L 34.476562 40.015625 L 34.515625 40.144531 L 34.597656 40.378906 L 34.714844 40.65625 L 34.75 40.726562 L 34.820312 40.84375 L 34.863281 40.90625 L 35.007812 41.046875 L 35.054688 41.082031 L 35.167969 41.171875 L 35.230469 41.21875 L 35.382812 41.324219 L 35.46875 41.382812 L 35.675781 41.515625 L 35.78125 41.585938 L 36.050781 41.746094 L 36.191406 41.832031 L 36.523438 42.03125 L 36.699219 42.132812 L 37.109375 42.375 L 37.320312 42.5 L 37.816406 42.78125 L 38.074219 42.929688 L 38.664062 43.269531 L 38.96875 43.441406 L 39.660156 43.835938 L 39.839844 43.9375 L 40.21875 44.152344 L 40.414062 44.261719 L 40.820312 44.492188 L 41.027344 44.609375 L 41.464844 44.859375 L 41.6875 44.984375 L 42.15625 45.25 L 42.394531 45.386719 L 42.894531 45.667969 L 43.683594 46.113281 L 44.304688 46.464844 L 45.492188 47.140625 L 46.074219 47.472656 L 47.179688 48.101562 L 47.445312 48.257812 L 47.964844 48.554688 L 48.222656 48.703125 L 48.710938 48.984375 L 48.953125 49.125 L 49.410156 49.390625 L 49.632812 49.523438 L 50.058594 49.769531 L 50.265625 49.890625 L 50.65625 50.117188 L 50.84375 50.230469 L 51.191406 50.433594 L 51.359375 50.535156 L 51.664062 50.714844 L 51.8125 50.804688 L 52.074219 50.960938 L 52.199219 51.039062 L 52.414062 51.171875 L 52.511719 51.234375 L 52.675781 51.335938 L 52.75 51.386719 L 52.863281 51.460938 L 52.964844 51.535156 L 53.1875 51.726562 L 53.597656 52.160156 L 53.796875 52.386719 L 54.171875 52.890625 L 54.351562 53.148438 L 54.679688 53.714844 L 54.839844 54.003906 L 55.125 54.617188 L 55.261719 54.929688 L 55.492188 55.585938 L 55.605469 55.917969 L 55.78125 56.601562 L 55.863281 56.949219 L 55.984375 57.660156 L 56.097656 58.742188 L 56.167969 60 L 3.832031 60 L 3.902344 58.742188 L 3.921875 58.382812 L 4 57.691406 L 4.046875 57.351562 L 4.179688 56.6875 L 4.253906 56.359375 L 4.4375 55.730469 L 4.535156 55.417969 L 4.773438 54.820312 L 4.894531 54.527344 L 5.183594 53.964844 L 5.332031 53.6875 L 5.667969 53.164062 L 5.839844 52.90625 L 6.226562 52.421875 L 6.859375 51.738281 L 6.9375 51.660156 L 7.132812 51.496094 L 7.238281 51.410156 L 7.523438 51.207031 L 7.601562 51.152344 L 7.785156 51.03125 L 7.882812 50.96875 L 8.105469 50.828125 L 8.21875 50.753906 L 8.488281 50.589844 L 8.628906 50.507812 L 8.945312 50.316406 L 9.109375 50.21875 L 9.484375 50 L 9.679688 49.882812 L 10.117188 49.632812 L 10.34375 49.5 L 10.847656 49.210938 L 11.109375 49.0625 L 11.6875 48.730469 L 11.988281 48.558594 L 12.644531 48.1875 L 12.988281 47.992188 L 13.730469 47.570312 L 14.117188 47.355469 L 14.953125 46.882812 L 16.316406 46.113281 L 16.617188 45.945312 L 17.191406 45.621094 L 17.476562 45.460938 L 18.007812 45.160156 L 18.273438 45.011719 L 18.769531 44.734375 L 19.015625 44.59375 L 19.476562 44.335938 L 19.703125 44.207031 L 20.128906 43.964844 L 20.335938 43.847656 L 20.730469 43.625 L 20.925781 43.515625 L 21.289062 43.3125 L 21.464844 43.210938 L 21.796875 43.023438 L 21.957031 42.929688 L 22.261719 42.753906 L 22.40625 42.667969 L 22.679688 42.507812 L 22.949219 42.355469 L 23.410156 42.078125 L 23.628906 41.949219 L 23.992188 41.71875 L 24.167969 41.609375 L 24.453125 41.414062 L 24.585938 41.324219 L 24.804688 41.160156 L 24.902344 41.078125 L 25.0625 40.9375 L 25.132812 40.867188 L 25.242188 40.738281 L 25.289062 40.683594 L 25.222656 40.863281 L 25.148438 41.027344 L 25.148438 41.136719 L 25.199219 41.210938 L 25.253906 41.25 L 25.390625 41.339844 L 25.496094 41.394531 L 25.734375 41.511719 L 25.898438 41.585938 L 26.648438 41.886719 L 27.191406 42.070312 L 27.472656 42.15625 L 28.039062 42.3125 L 28.316406 42.375 L 28.871094 42.492188 L 29.128906 42.53125 L 29.355469 42.5625 L 29.480469 42.574219 L 29.738281 42.59375 L 29.875 42.59375 L 30.445312 42.597656 L 30.742188 42.582031 L 31.339844 42.535156 L 31.621094 42.5 L 32.171875 42.410156 L 32.402344 42.351562 L 32.75 42.246094 L 33.027344 42.148438 L 33.175781 42.089844 L 33.480469 41.964844 L 33.628906 41.898438 L 33.921875 41.769531 L 34.050781 41.703125 L 34.996094 41.234375 L 34.722656 40.683594 L 34.605469 40.398438 L 34.519531 40.160156 L 34.480469 40.027344 L 34.324219 39.472656 L 34.277344 39.21875 L 34.277344 39.214844 M 25.894531 36.574219 L 25.894531 36.730469 L 25.890625 37.390625 L 25.867188 37.738281 L 25.816406 38.433594 L 25.773438 38.75 L 25.730469 38.949219 L 25.75 38.789062 L 25.769531 38.605469 L 25.808594 38.195312 L 25.824219 37.992188 L 25.851562 37.570312 L 25.863281 37.363281 L 25.882812 36.960938 L 25.890625 36.765625 L 25.894531 36.527344 M 34.152344 35.710938 L 34.140625 35.816406 L 34.121094 36.09375 L 34.117188 36.242188 L 34.109375 36.585938 L 34.109375 36.761719 L 34.113281 36.964844 L 34.109375 36.761719 L 34.109375 36.585938 L 34.117188 36.242188 L 34.121094 36.09375 L 34.140625 35.816406 L 34.152344 35.710938 L 34.179688 35.53125 L 34.199219 35.480469 L 34.179688 35.527344 M 25.445312 35.246094 L 25.589844 35.347656 L 25.640625 35.386719 L 25.730469 35.464844 L 25.75 35.488281 L 25.773438 35.539062 L 25.742188 35.496094 L 25.621094 35.378906 L 25.550781 35.320312 L 25.425781 35.234375 M 24.914062 34.917969 L 25.050781 35.003906 L 25.011719 34.980469 L 24.90625 34.921875 L 24.839844 34.878906 M 23.542969 33.878906 L 23.523438 33.859375 L 23.511719 33.851562 M 23.453125 33.800781 L 23.398438 33.75 L 23.382812 33.734375 M 22.722656 33.074219 L 22.820312 33.175781 L 23.164062 33.527344 L 23.15625 33.523438 L 23.042969 33.410156 L 22.832031 33.191406 L 22.734375 33.085938 L 22.566406 32.886719 L 22.375 32.625 L 22.558594 32.878906 Z M 22.722656 33.074219 "/>
<path style=" stroke:none;fill-rule:nonzero;fill:rgb(32.941177%,17.647059%,42.745098%);fill-opacity:1;" d="M 34.238281 35.429688 L 34.25 35.410156 L 34.28125 35.375 M 34.453125 35.21875 L 34.382812 35.277344 L 34.28125 35.371094 L 34.34375 35.304688 L 34.40625 35.25 L 34.542969 35.140625 L 34.628906 35.082031 L 34.726562 35.015625 M 41.128906 25.601562 L 41.375 25.796875 L 41.542969 25.890625 L 41.628906 25.921875 L 41.800781 25.976562 L 41.886719 25.984375 L 42.0625 25.996094 L 42.148438 25.984375 L 42.324219 25.957031 L 42.410156 25.929688 L 42.582031 25.863281 L 42.667969 25.816406 L 42.765625 25.757812 L 42.714844 25.796875 L 42.636719 25.84375 L 42.492188 25.96875 L 42.417969 26.042969 L 42.269531 26.25 L 42.230469 26.308594 L 42.148438 26.449219 L 42.105469 26.519531 L 42.011719 26.691406 L 41.964844 26.78125 L 41.859375 26.992188 L 41.683594 27.355469 L 41.59375 27.535156 L 41.386719 27.941406 L 41.277344 28.144531 L 40.9375 28.765625 L 40.714844 29.140625 L 40.425781 29.601562 L 40.367188 29.6875 L 40.226562 29.882812 L 39.976562 30.195312 L 39.796875 30.414062 L 39.367188 30.898438 L 39.140625 31.144531 L 38.640625 31.667969 L 38.382812 31.929688 L 37.847656 32.453125 L 37.578125 32.714844 L 37.035156 33.214844 L 36.765625 33.457031 L 36.25 33.902344 L 35.996094 34.113281 L 35.671875 34.367188 L 35.941406 34.140625 L 36.082031 34.015625 L 36.367188 33.75 L 36.507812 33.605469 L 37.074219 33.023438 L 37.335938 32.71875 L 37.585938 32.414062 L 37.703125 32.261719 L 37.925781 31.960938 L 38.023438 31.816406 L 38.417969 31.195312 L 38.675781 30.746094 L 38.804688 30.507812 L 39.300781 29.527344 L 39.53125 29 L 39.976562 27.9375 L 40.167969 27.398438 L 40.527344 26.316406 L 40.664062 25.796875 L 40.796875 25.285156 M 19.109375 25.636719 L 19.140625 25.667969 L 19.164062 25.75 L 19.183594 25.8125 L 19.199219 25.855469 L 19.261719 26.058594 L 19.304688 26.191406 L 19.398438 26.480469 L 19.449219 26.652344 L 19.5625 27 L 19.625 27.183594 L 20.097656 28.492188 L 20.453125 29.335938 L 20.648438 29.734375 L 21.046875 30.523438 L 21.261719 30.894531 L 21.695312 31.621094 L 21.925781 31.953125 L 22.390625 32.609375 L 22.632812 32.902344 L 23.125 33.472656 L 23.375 33.722656 L 23.515625 33.851562 L 23.492188 33.835938 L 23.25 33.613281 L 22.820312 33.175781 L 22.722656 33.074219 L 22.558594 32.878906 L 22.375 32.625 L 22.308594 32.515625 L 22.15625 32.34375 L 22.117188 32.308594 L 22.050781 32.257812 L 21.972656 32.226562 L 21.941406 32.226562 L 21.835938 32.160156 L 21.773438 32.117188 L 21.617188 31.976562 L 21.535156 31.898438 L 21.339844 31.695312 L 21.238281 31.589844 L 21.015625 31.339844 L 20.902344 31.207031 L 20.667969 30.921875 L 20.546875 30.777344 L 20.304688 30.46875 L 19.625 29.523438 L 19.539062 29.394531 L 19.351562 29.101562 L 19.257812 28.949219 L 18.875 28.292969 L 18.519531 27.621094 L 18.433594 27.457031 L 18.285156 27.15625 L 18.210938 27.007812 L 18.097656 26.753906 L 18.042969 26.636719 L 17.972656 26.449219 L 17.929688 26.265625 L 17.929688 26.246094 L 17.894531 26.195312 L 17.871094 26.171875 L 17.800781 26.109375 L 17.492188 25.910156 L 17.359375 25.84375 L 17.546875 25.933594 L 17.664062 25.960938 L 17.898438 26.003906 L 18.015625 26 L 18.25 25.980469 L 18.371094 25.941406 L 18.605469 25.851562 L 18.722656 25.78125 L 18.902344 25.679688 L 18.996094 25.640625 L 19.03125 25.632812 L 19.089844 25.628906 M 15.632812 21.234375 L 15.597656 21.949219 L 15.625 22.3125 L 15.707031 23.039062 L 15.789062 23.382812 L 15.878906 23.726562 L 15.933594 23.890625 L 16.050781 24.210938 L 16.117188 24.363281 L 16.359375 24.820312 L 16.28125 24.691406 L 16.105469 24.34375 L 16.023438 24.167969 L 15.882812 23.78125 L 15.820312 23.582031 L 15.71875 23.164062 L 15.675781 22.949219 L 15.621094 22.503906 L 15.585938 21.808594 L 15.589844 21.613281 L 15.632812 21.1875 L 15.640625 21.128906 M 43.796875 24.53125 L 43.691406 24.722656 L 43.65625 24.777344 L 43.804688 24.519531 M 44.28125 23.0625 L 44.257812 23.230469 L 44.195312 23.535156 L 44.078125 23.921875 L 43.996094 24.136719 L 43.890625 24.34375 L 43.96875 24.148438 L 44.167969 23.59375 L 44.238281 23.289062 L 44.285156 23.03125 M 33.066406 0.015625 L 33.289062 0.0234375 L 33.722656 0.0742188 L 33.9375 0.105469 L 34.367188 0.203125 L 34.578125 0.253906 L 34.988281 0.398438 L 35.191406 0.476562 L 35.582031 0.664062 L 35.773438 0.765625 L 36.140625 1 L 36.320312 1.121094 L 36.660156 1.398438 L 36.824219 1.542969 L 37.125 1.863281 L 37.273438 2.03125 L 37.535156 2.394531 L 37.878906 2.988281 L 37.960938 3.148438 L 38.105469 3.488281 L 38.140625 3.570312 L 38.191406 3.707031 L 38.242188 3.867188 L 38.253906 3.910156 L 38.308594 4.011719 L 38.339844 4.0625 L 38.433594 4.167969 L 38.828125 4.484375 L 38.921875 4.542969 L 39.132812 4.695312 L 39.242188 4.773438 L 39.476562 4.957031 L 39.710938 5.148438 L 40.203125 5.605469 L 40.449219 5.839844 L 40.917969 6.324219 L 41.027344 6.445312 L 41.234375 6.683594 L 41.507812 7.023438 L 41.585938 7.128906 L 41.773438 7.40625 L 41.871094 7.550781 L 42.070312 7.878906 L 42.171875 8.042969 L 42.359375 8.378906 L 42.605469 8.847656 L 42.71875 9.085938 L 42.925781 9.570312 L 43.023438 9.8125 L 43.191406 10.320312 L 43.273438 10.578125 L 43.40625 11.128906 L 43.472656 11.40625 L 43.578125 12.015625 L 43.628906 12.324219 L 43.707031 13.003906 L 43.746094 13.355469 L 43.800781 14.128906 L 43.824219 14.527344 L 43.859375 15.410156 L 43.863281 15.640625 L 43.875 16.117188 L 43.886719 16.875 L 43.890625 17.171875 L 43.894531 17.679688 L 43.898438 17.921875 L 43.90625 18.328125 L 43.914062 18.519531 L 43.925781 18.839844 L 43.929688 18.992188 L 43.949219 19.238281 L 43.957031 19.355469 L 43.976562 19.546875 L 43.988281 19.636719 L 44.019531 19.785156 L 44.078125 19.976562 L 44.035156 19.882812 L 43.925781 19.632812 L 43.859375 19.523438 L 43.730469 19.320312 L 43.65625 19.238281 L 43.507812 19.089844 L 43.425781 19.039062 L 43.257812 18.941406 L 43.164062 18.917969 L 43.117188 18.921875 L 43.011719 18.953125 L 42.941406 18.988281 L 42.785156 19.078125 L 42.675781 19.148438 L 42.476562 19.285156 L 42.359375 19.386719 L 42.3125 19.441406 L 42.21875 19.566406 L 42.179688 19.648438 L 42.101562 19.816406 L 42.066406 19.929688 L 41.996094 20.167969 L 41.960938 20.320312 L 41.894531 20.648438 L 41.859375 20.851562 L 41.820312 21.0625 L 41.804688 21.179688 L 41.765625 21.425781 L 41.742188 21.558594 L 41.703125 21.832031 L 41.679688 21.984375 L 41.632812 22.296875 L 41.609375 22.464844 L 41.503906 23.046875 L 41.421875 23.375 L 41.382812 23.5 L 41.296875 23.730469 L 41.253906 23.800781 L 41.210938 23.859375 L 41.191406 23.878906 L 41.152344 23.90625 L 41.132812 23.90625 L 41.117188 23.863281 L 41.101562 23.792969 L 41.09375 23.738281 L 41.082031 23.617188 L 41.074219 23.539062 L 41.0625 23.375 L 41.054688 23.277344 L 41.039062 23.074219 L 41.035156 22.960938 L 41.019531 22.726562 L 41.015625 22.597656 L 40.988281 22.0625 L 40.980469 21.765625 L 40.941406 20.933594 L 40.910156 20.425781 L 40.890625 20.195312 L 40.84375 19.75 L 40.816406 19.546875 L 40.757812 19.152344 L 40.726562 18.972656 L 40.652344 18.625 L 40.609375 18.464844 L 40.523438 18.15625 L 40.472656 18.015625 L 40.371094 17.738281 L 40.308594 17.609375 L 40.1875 17.355469 L 40.117188 17.238281 L 40.023438 17.097656 L 39.933594 16.976562 L 39.875 16.90625 L 39.753906 16.757812 L 39.679688 16.675781 L 39.53125 16.503906 L 39.445312 16.410156 L 39.085938 16.019531 L 38.886719 15.808594 L 38.472656 15.386719 L 38.257812 15.175781 L 37.550781 14.453125 L 37.140625 14 L 36.964844 13.78125 L 36.625 13.351562 L 36.484375 13.144531 L 36.214844 12.730469 L 36.101562 12.523438 L 35.890625 12.105469 L 35.804688 11.890625 L 35.648438 11.457031 L 35.585938 11.230469 L 35.472656 10.769531 L 35.429688 10.523438 L 35.351562 10.019531 L 35.328125 9.746094 L 35.242188 8.914062 L 34.960938 9.136719 L 34.542969 9.378906 L 34.371094 9.449219 L 34.273438 9.484375 L 34.070312 9.546875 L 33.953125 9.578125 L 33.714844 9.636719 L 33.578125 9.664062 L 33.300781 9.71875 L 33.148438 9.742188 L 32.828125 9.796875 L 32.652344 9.820312 L 32.289062 9.867188 L 32.089844 9.890625 L 31.542969 9.960938 L 31.210938 10.011719 L 31.058594 10.039062 L 30.765625 10.101562 L 30.632812 10.132812 L 30.375 10.199219 L 30.035156 10.316406 L 29.933594 10.355469 L 29.738281 10.445312 L 29.652344 10.492188 L 29.328125 10.695312 L 29.199219 10.816406 L 29.042969 11.003906 L 28.898438 11.199219 L 28.8125 11.324219 L 28.640625 11.589844 L 28.546875 11.734375 L 28.359375 12.035156 L 28.273438 12.1875 L 27.878906 12.839844 L 27.640625 13.21875 L 27.53125 13.382812 L 27.316406 13.695312 L 27.21875 13.832031 L 27.015625 14.089844 L 26.917969 14.199219 L 26.726562 14.414062 L 26.628906 14.503906 L 26.433594 14.679688 L 26.332031 14.757812 L 25.914062 15.046875 L 25.671875 15.171875 L 25.175781 15.394531 L 24.839844 15.5 L 24.628906 15.535156 L 24.414062 15.570312 L 24.289062 15.585938 L 24.027344 15.613281 L 23.871094 15.628906 L 23.546875 15.652344 L 23.355469 15.660156 L 22.957031 15.683594 L 22.722656 15.695312 L 21.972656 15.738281 L 21.542969 15.773438 L 21.359375 15.796875 L 21.011719 15.847656 L 20.863281 15.878906 L 20.582031 15.945312 L 20.464844 15.988281 L 20.238281 16.078125 L 20.140625 16.132812 L 19.957031 16.253906 L 19.875 16.324219 L 19.71875 16.472656 L 19.648438 16.5625 L 19.507812 16.746094 L 19.441406 16.855469 L 19.25 17.1875 L 19.171875 17.386719 L 19.148438 17.511719 L 19.128906 17.644531 L 19.121094 17.726562 L 19.113281 17.894531 L 19.109375 17.996094 L 19.105469 18.21875 L 19.101562 18.351562 L 19.101562 18.804688 L 19.09375 19.40625 L 19.078125 19.863281 L 19.070312 20.105469 L 19.023438 21.113281 L 18.992188 21.597656 L 18.960938 22.074219 L 18.945312 22.289062 L 18.910156 22.707031 L 18.894531 22.882812 L 18.859375 23.210938 L 18.84375 23.332031 L 18.828125 23.445312 L 18.804688 23.5625 L 18.796875 23.585938 L 18.722656 23.730469 L 18.664062 23.789062 L 18.640625 23.789062 L 18.597656 23.757812 L 18.570312 23.703125 L 18.554688 23.660156 L 18.523438 23.554688 L 18.507812 23.484375 L 18.46875 23.328125 L 18.449219 23.222656 L 18.40625 23.007812 L 18.382812 22.871094 L 18.332031 22.585938 L 18.300781 22.417969 L 18.242188 22.0625 L 18.210938 21.855469 L 18.144531 21.421875 L 18.105469 21.175781 L 18.003906 20.589844 L 17.929688 20.242188 L 17.890625 20.089844 L 17.808594 19.796875 L 17.765625 19.671875 L 17.675781 19.433594 L 17.628906 19.332031 L 17.535156 19.152344 L 17.484375 19.082031 L 17.382812 18.953125 L 17.328125 18.914062 L 17.21875 18.84375 L 17.164062 18.832031 L 17.046875 18.820312 L 16.988281 18.835938 L 16.84375 18.898438 L 16.738281 18.972656 L 16.679688 19.019531 L 16.445312 19.242188 L 16.332031 19.378906 L 16.105469 19.667969 L 16.015625 19.816406 L 15.960938 19.914062 L 15.964844 19.90625 L 16.035156 19.757812 L 16.144531 19.574219 L 16.1875 19.515625 L 16.246094 19.410156 L 16.269531 19.355469 L 16.296875 19.242188 L 16.304688 19.183594 L 16.304688 19.050781 L 16.273438 18.808594 L 16.257812 18.746094 L 16.238281 18.558594 L 16.226562 18.457031 L 16.210938 18.21875 L 16.179688 17.460938 L 16.175781 17.21875 L 16.140625 16.722656 L 16.128906 16.605469 L 16.101562 16.40625 L 16.058594 16.179688 L 16.027344 16.074219 L 15.972656 15.816406 L 15.945312 15.683594 L 15.898438 15.382812 L 15.859375 15.070312 L 15.804688 14.375 L 15.78125 14.023438 L 15.773438 13.332031 L 15.777344 13.164062 L 15.789062 12.851562 L 15.824219 12.429688 L 15.851562 12.21875 L 15.914062 11.820312 L 15.945312 11.625 L 16.023438 11.261719 L 16.0625 11.085938 L 16.15625 10.761719 L 16.203125 10.601562 L 16.308594 10.304688 L 16.367188 10.164062 L 16.492188 9.894531 L 16.558594 9.761719 L 16.703125 9.515625 L 17.226562 8.847656 L 17.292969 8.777344 L 17.421875 8.609375 L 17.484375 8.523438 L 17.601562 8.332031 L 17.871094 7.734375 L 17.957031 7.46875 L 18.167969 6.941406 L 18.277344 6.675781 L 18.539062 6.164062 L 18.675781 5.910156 L 18.976562 5.425781 L 19.128906 5.183594 L 19.464844 4.730469 L 19.632812 4.511719 L 19.996094 4.105469 L 20.175781 3.90625 L 20.554688 3.554688 L 20.746094 3.386719 L 21.136719 3.101562 L 21.722656 2.757812 L 21.914062 2.660156 L 22.300781 2.507812 L 22.492188 2.433594 L 22.878906 2.324219 L 23.070312 2.277344 L 23.464844 2.210938 L 23.664062 2.1875 L 24.066406 2.167969 L 24.269531 2.164062 L 24.6875 2.191406 L 24.902344 2.210938 L 25.34375 2.28125 L 25.566406 2.324219 L 26.03125 2.4375 L 26.765625 2.664062 L 27.691406 2.984375 L 27.871094 2.691406 L 27.894531 2.652344 L 27.996094 2.523438 L 28.054688 2.453125 L 28.210938 2.277344 L 28.769531 1.6875 L 28.9375 1.519531 L 29.300781 1.21875 L 29.484375 1.074219 L 29.871094 0.828125 L 30.066406 0.710938 L 30.476562 0.515625 L 30.679688 0.425781 L 31.105469 0.28125 L 31.316406 0.214844 L 31.75 0.117188 L 31.96875 0.078125 L 32.40625 0.03125 L 32.628906 0.0117188 M 44.238281 20.507812 L 44.269531 20.640625 L 44.273438 20.667969 L 44.234375 20.492188 M 44.171875 20.253906 L 44.203125 20.375 L 44.183594 20.296875 L 44.152344 20.203125 M 34.1875 17.242188 L 34.4375 17.25 L 34.578125 17.261719 L 34.875 17.289062 L 35.039062 17.3125 L 35.664062 17.414062 L 36.035156 17.5 L 36.199219 17.546875 L 36.511719 17.652344 L 36.644531 17.710938 L 36.890625 17.828125 L 36.988281 17.890625 L 37.164062 18.023438 L 37.222656 18.09375 L 37.324219 18.234375 L 37.34375 18.304688 L 37.363281 18.453125 L 37.339844 18.527344 L 37.273438 18.675781 L 37.207031 18.75 L 37.082031 18.871094 L 37.011719 18.90625 L 36.859375 18.957031 L 36.761719 18.957031 L 36.554688 18.9375 L 36.414062 18.902344 L 36.273438 18.859375 L 36.015625 18.777344 L 35.917969 18.738281 L 35.605469 18.648438 L 35.367188 18.597656 L 35.238281 18.578125 L 34.96875 18.546875 L 34.828125 18.535156 L 34.53125 18.523438 L 34.378906 18.519531 L 33.898438 18.507812 L 33.65625 18.488281 L 33.5625 18.472656 L 33.394531 18.433594 L 33.328125 18.402344 L 33.203125 18.335938 L 33.148438 18.292969 L 33.011719 18.167969 L 32.957031 18.089844 L 32.945312 18.050781 L 32.933594 17.96875 L 32.941406 17.917969 L 32.96875 17.808594 L 32.992188 17.738281 L 33.074219 17.574219 L 33.148438 17.484375 L 33.195312 17.445312 L 33.300781 17.375 L 33.367188 17.351562 L 33.5 17.300781 L 33.582031 17.285156 L 33.753906 17.253906 L 33.855469 17.246094 L 34.066406 17.238281 M 26.234375 17.253906 L 26.359375 17.273438 L 26.480469 17.296875 L 26.527344 17.3125 L 26.617188 17.347656 L 26.644531 17.371094 L 26.804688 17.585938 L 26.859375 17.773438 L 26.859375 17.867188 L 26.84375 18.0625 L 26.808594 18.148438 L 26.722656 18.308594 L 26.652344 18.359375 L 26.503906 18.425781 L 26.363281 18.460938 L 26.269531 18.472656 L 26.078125 18.496094 L 25.964844 18.503906 L 25.734375 18.515625 L 25.609375 18.515625 L 25.234375 18.53125 L 24.96875 18.554688 L 24.832031 18.570312 L 24.570312 18.605469 L 24.453125 18.628906 L 24.226562 18.675781 L 24.136719 18.699219 L 23.882812 18.773438 L 23.773438 18.800781 L 23.570312 18.855469 L 23.488281 18.875 L 23.328125 18.914062 L 23.261719 18.925781 L 23.140625 18.945312 L 23.089844 18.949219 L 22.917969 18.949219 L 22.859375 18.925781 L 22.746094 18.863281 L 22.695312 18.8125 L 22.554688 18.613281 L 22.507812 18.472656 L 22.507812 18.402344 L 22.519531 18.261719 L 22.550781 18.191406 L 22.621094 18.058594 L 22.679688 18 L 22.804688 17.902344 L 22.914062 17.839844 L 22.980469 17.808594 L 23.273438 17.6875 L 23.453125 17.632812 L 23.832031 17.523438 L 24.039062 17.476562 L 24.460938 17.390625 L 24.679688 17.355469 L 25.113281 17.292969 L 25.320312 17.277344 L 25.722656 17.246094 L 25.898438 17.242188 M 34.183594 38.503906 L 34.167969 38.332031 L 34.121094 37.597656 L 34.109375 37.226562 L 34.101562 36.859375 L 34.101562 36.6875 L 34.105469 36.347656 L 34.109375 36.199219 L 34.121094 35.917969 L 34.132812 35.804688 L 34.15625 35.605469 L 34.175781 35.539062 L 34.179688 35.535156 L 34.152344 35.710938 L 34.140625 35.816406 L 34.121094 36.09375 L 34.117188 36.242188 L 34.109375 36.585938 L 34.109375 36.761719 L 34.117188 37.144531 L 34.125 37.53125 L 34.167969 38.296875 L 34.183594 38.480469 L 34.214844 38.808594 L 34.277344 39.21875 L 34.21875 38.820312 Z M 34.183594 38.503906 "/>
<path style=" stroke:none;fill-rule:nonzero;fill:rgb(77.254903%,49.019608%,52.549022%);fill-opacity:1;" d="M 32.542969 29.65625 L 32.574219 29.664062 L 32.625 29.691406 L 32.640625 29.710938 L 32.671875 29.761719 L 32.675781 29.796875 L 32.679688 29.867188 L 32.675781 29.914062 L 32.613281 30.054688 L 32.53125 30.15625 L 32.464844 30.207031 L 32.3125 30.316406 L 32.210938 30.375 L 31.980469 30.503906 L 31.835938 30.578125 L 31.519531 30.734375 L 31.386719 30.789062 L 31.132812 30.882812 L 31.003906 30.914062 L 30.75 30.96875 L 30.597656 30.984375 L 30.28125 31.007812 L 30.078125 31.015625 L 29.421875 31.015625 L 29.042969 30.980469 L 28.863281 30.941406 L 28.519531 30.855469 L 28.347656 30.789062 L 28 30.648438 L 27.8125 30.550781 L 27.484375 30.351562 L 27.316406 30.222656 L 27.261719 30.164062 L 27.164062 30.042969 L 27.148438 29.984375 L 27.125 29.871094 L 27.148438 29.820312 L 27.257812 29.6875 L 27.378906 29.652344 L 27.460938 29.664062 L 27.636719 29.699219 L 27.75 29.746094 L 27.992188 29.851562 L 28.140625 29.933594 L 28.5625 30.140625 L 28.84375 30.246094 L 28.988281 30.285156 L 29.273438 30.355469 L 29.421875 30.375 L 29.710938 30.40625 L 29.855469 30.40625 L 30.148438 30.394531 L 30.296875 30.375 L 30.597656 30.328125 L 30.746094 30.289062 L 31.046875 30.203125 L 31.199219 30.148438 L 31.503906 30.019531 L 31.65625 29.945312 L 31.917969 29.820312 L 32.074219 29.753906 L 32.140625 29.730469 L 32.269531 29.6875 L 32.324219 29.671875 L 32.425781 29.652344 L 32.46875 29.652344 M 30.019531 24.507812 L 30.074219 24.542969 L 30.175781 24.621094 L 30.199219 24.6875 L 30.207031 24.875 L 30.1875 24.957031 L 30.171875 25.007812 L 30.128906 25.113281 L 30.097656 25.175781 L 30.035156 25.308594 L 29.992188 25.382812 L 29.898438 25.546875 L 29.84375 25.640625 L 29.726562 25.839844 L 29.65625 25.953125 L 29.507812 26.191406 L 29.421875 26.328125 L 29.273438 26.578125 L 29.199219 26.722656 L 29.175781 26.789062 L 29.132812 26.914062 L 29.125 26.96875 L 29.113281 27.074219 L 29.148438 27.214844 L 29.175781 27.257812 L 29.234375 27.347656 L 29.28125 27.386719 L 29.378906 27.472656 L 29.441406 27.515625 L 29.574219 27.601562 L 29.65625 27.648438 L 29.878906 27.785156 L 29.984375 27.867188 L 30.019531 27.90625 L 30.074219 27.988281 L 30.085938 28.027344 L 30.101562 28.109375 L 30.09375 28.15625 L 30.0625 28.308594 L 30.03125 28.355469 L 29.953125 28.425781 L 29.894531 28.429688 L 29.757812 28.414062 L 29.65625 28.378906 L 29.550781 28.335938 L 29.492188 28.308594 L 29.363281 28.246094 L 29.289062 28.207031 L 28.882812 27.921875 L 28.65625 27.691406 L 28.574219 27.566406 L 28.433594 27.3125 L 28.402344 27.183594 L 28.378906 27.0625 L 28.375 27 L 28.382812 26.882812 L 28.394531 26.828125 L 28.464844 26.65625 L 28.546875 26.492188 L 28.601562 26.390625 L 28.851562 25.960938 L 28.996094 25.742188 L 29.207031 25.414062 L 29.335938 25.203125 L 29.386719 25.109375 L 29.488281 24.933594 L 29.523438 24.867188 L 29.582031 24.746094 L 29.59375 24.714844 L 29.710938 24.558594 L 29.828125 24.5 L 29.890625 24.5 M 16.664062 25.257812 L 16.746094 25.347656 L 16.914062 25.515625 L 17 25.589844 L 17.175781 25.726562 L 17.457031 25.878906 L 17.550781 25.910156 L 17.742188 25.96875 L 17.839844 25.980469 L 18.035156 25.996094 L 18.132812 25.984375 L 18.332031 25.953125 L 18.410156 25.925781 L 18.371094 25.941406 L 18.25 25.980469 L 18.015625 26 L 17.898438 26.003906 L 17.664062 25.960938 L 17.546875 25.933594 L 17.316406 25.824219 L 17.203125 25.761719 L 16.984375 25.59375 L 16.878906 25.5 L 16.671875 25.269531 L 16.570312 25.148438 L 16.53125 25.085938 M 18.605469 25.851562 L 18.457031 25.910156 L 18.628906 25.839844 M 17.929688 20.242188 L 18.003906 20.589844 L 18.105469 21.175781 L 18.144531 21.421875 L 18.210938 21.855469 L 18.242188 22.0625 L 18.300781 22.417969 L 18.332031 22.585938 L 18.382812 22.871094 L 18.40625 23.007812 L 18.449219 23.222656 L 18.46875 23.328125 L 18.507812 23.484375 L 18.523438 23.554688 L 18.554688 23.660156 L 18.570312 23.703125 L 18.597656 23.757812 L 18.640625 23.789062 L 18.664062 23.789062 L 18.722656 23.730469 L 18.726562 23.722656 L 18.628906 23.984375 L 18.566406 24.089844 L 18.496094 24.191406 L 18.460938 24.226562 L 18.386719 24.296875 L 18.347656 24.316406 L 18.273438 24.351562 L 18.234375 24.355469 L 18.152344 24.351562 L 18.113281 24.335938 L 18.023438 24.265625 L 17.988281 24.183594 L 17.980469 24.113281 L 17.972656 23.957031 L 17.976562 23.835938 L 17.980469 23.710938 L 17.988281 23.636719 L 18 23.480469 L 18.007812 23.390625 L 18.03125 23.105469 L 18.039062 22.953125 L 18.042969 22.890625 L 18.046875 22.777344 L 18.042969 22.730469 L 18.039062 22.652344 L 18.03125 22.621094 L 17.996094 22.527344 L 17.957031 22.503906 L 17.867188 22.46875 L 17.800781 22.453125 L 17.515625 22.417969 L 17.308594 22.414062 L 17.226562 22.417969 L 17.085938 22.417969 L 17.019531 22.402344 L 16.996094 22.386719 L 16.957031 22.347656 L 16.949219 22.320312 L 16.933594 22.253906 L 16.933594 22.210938 L 16.957031 22.101562 L 16.996094 22.039062 L 17.03125 22.007812 L 17.105469 21.957031 L 17.15625 21.933594 L 17.269531 21.890625 L 17.34375 21.871094 L 17.644531 21.78125 L 17.722656 21.753906 L 17.75 21.746094 L 17.792969 21.726562 L 17.796875 21.722656 L 17.789062 21.667969 L 17.761719 21.59375 L 17.738281 21.542969 L 17.679688 21.429688 L 17.644531 21.367188 L 17.570312 21.230469 L 17.527344 21.15625 L 17.417969 20.953125 L 17.359375 20.832031 L 17.339844 20.78125 L 17.308594 20.683594 L 17.304688 20.644531 L 17.292969 20.570312 L 17.300781 20.539062 L 17.316406 20.484375 L 17.332031 20.464844 L 17.375 20.429688 L 17.402344 20.421875 L 17.46875 20.40625 L 17.507812 20.40625 L 17.597656 20.410156 L 17.652344 20.421875 L 17.847656 20.410156 L 17.921875 20.34375 L 17.929688 20.277344 L 17.925781 20.238281 M 42.570312 20.398438 L 42.609375 20.414062 L 42.6875 20.464844 L 42.714844 20.507812 L 42.71875 20.59375 L 42.695312 20.6875 L 42.671875 20.746094 L 42.558594 21.007812 L 42.472656 21.15625 L 42.355469 21.367188 L 42.289062 21.492188 L 42.265625 21.542969 L 42.222656 21.636719 L 42.210938 21.667969 L 42.195312 21.71875 L 42.25 21.746094 L 42.3125 21.765625 L 42.355469 21.78125 L 42.542969 21.839844 L 42.65625 21.871094 L 42.84375 21.933594 L 42.9375 21.980469 L 42.96875 22.007812 L 43.027344 22.066406 L 43.042969 22.101562 L 43.066406 22.171875 L 43.066406 22.210938 L 43.050781 22.320312 L 43.027344 22.371094 L 43.003906 22.386719 L 42.949219 22.414062 L 42.914062 22.417969 L 42.828125 22.421875 L 42.773438 22.417969 L 42.484375 22.417969 L 42.28125 22.4375 L 42.207031 22.453125 L 42.050781 22.503906 L 41.988281 22.566406 L 41.972656 22.628906 L 41.960938 22.695312 L 41.957031 22.742188 L 41.953125 22.839844 L 41.953125 22.902344 L 41.957031 23.039062 L 41.957031 23.125 L 41.964844 23.304688 L 41.972656 23.410156 L 41.980469 23.667969 L 41.984375 23.808594 L 41.984375 23.871094 L 41.980469 24.082031 L 41.96875 24.148438 L 41.941406 24.265625 L 41.917969 24.292969 L 41.863281 24.339844 L 41.824219 24.347656 L 41.734375 24.339844 L 41.671875 24.308594 L 41.640625 24.277344 L 41.585938 24.210938 L 41.558594 24.167969 L 41.503906 24.070312 L 41.476562 24.007812 L 41.414062 23.875 L 41.375 23.804688 L 41.320312 23.75 L 41.304688 23.746094 L 41.285156 23.75 L 41.296875 23.730469 L 41.382812 23.5 L 41.421875 23.375 L 41.503906 23.046875 L 41.609375 22.464844 L 41.632812 22.296875 L 41.679688 21.984375 L 41.703125 21.832031 L 41.742188 21.558594 L 41.765625 21.425781 L 41.804688 21.179688 L 41.820312 21.0625 L 41.859375 20.851562 L 41.894531 20.648438 L 41.90625 20.59375 L 41.898438 20.65625 L 41.921875 20.726562 L 41.945312 20.730469 L 42.007812 20.730469 L 42.046875 20.703125 L 42.132812 20.632812 L 42.1875 20.566406 L 42.324219 20.449219 L 42.425781 20.402344 L 42.472656 20.398438 M 41.277344 23.769531 L 41.222656 23.890625 L 41.191406 23.921875 L 41.175781 23.914062 L 41.164062 23.898438 L 41.191406 23.878906 L 41.210938 23.859375 L 41.253906 23.800781 L 41.28125 23.753906 M 41.015625 22.597656 L 41.019531 22.726562 L 41.035156 22.960938 L 41.039062 23.074219 L 41.046875 23.148438 L 41.042969 23.097656 L 41.03125 22.941406 L 41.011719 22.613281 L 41.003906 22.417969 L 40.996094 22.160156 M 18.929688 22.503906 L 18.917969 22.613281 L 18.902344 22.824219 L 18.890625 22.910156 L 18.875 23.066406 L 18.894531 22.882812 L 18.910156 22.707031 L 18.933594 22.425781 M 15.707031 20.765625 L 15.671875 20.988281 L 15.660156 21.109375 L 15.632812 21.363281 L 15.621094 21.503906 L 15.628906 22.367188 L 15.625 22.3125 L 15.597656 21.949219 L 15.632812 21.234375 L 15.648438 21.058594 L 15.703125 20.71875 L 15.742188 20.5625 M 15.898438 20.03125 L 15.84375 20.199219 L 15.746094 20.539062 L 15.820312 20.234375 L 15.835938 20.171875 L 15.898438 20.035156 L 15.933594 19.964844 L 15.988281 19.871094 M 16.09375 19.691406 L 16.105469 19.667969 L 16.214844 19.53125 M 42.199219 19.613281 L 42.164062 19.679688 L 42.179688 19.648438 L 42.21875 19.566406 L 42.234375 19.550781 M 17.164062 18.832031 L 17.21875 18.84375 L 17.328125 18.914062 L 17.382812 18.953125 L 17.484375 19.082031 L 17.535156 19.152344 L 17.628906 19.332031 L 17.675781 19.433594 L 17.691406 19.480469 L 17.605469 19.289062 L 17.507812 19.121094 L 17.460938 19.058594 L 17.363281 18.945312 L 17.3125 18.910156 L 17.210938 18.851562 L 17.15625 18.839844 L 17.046875 18.832031 L 16.988281 18.847656 L 16.867188 18.894531 L 16.800781 18.9375 L 16.671875 19.03125 L 16.679688 19.019531 L 16.738281 18.972656 L 16.84375 18.898438 L 16.988281 18.835938 L 17.046875 18.820312 M 42.285156 19.480469 L 42.3125 19.441406 L 42.359375 19.386719 L 42.476562 19.285156 L 42.675781 19.148438 L 42.394531 19.359375 M 16.441406 19.25 L 16.4375 19.25 L 16.445312 19.242188 L 16.492188 19.199219 M 19.460938 16.828125 L 19.273438 17.160156 L 19.230469 17.277344 L 19.214844 17.347656 L 19.183594 17.496094 L 19.171875 17.59375 L 19.148438 17.796875 L 19.136719 17.929688 L 19.121094 18.214844 L 19.113281 18.394531 L 19.101562 18.644531 L 19.101562 18.351562 L 19.105469 18.21875 L 19.109375 17.996094 L 19.113281 17.894531 L 19.121094 17.726562 L 19.128906 17.644531 L 19.148438 17.511719 L 19.171875 17.386719 L 19.25 17.1875 L 19.441406 16.855469 L 19.507812 16.746094 M 20.199219 16.101562 L 20.238281 16.078125 L 20.242188 16.078125 M 21.550781 15.773438 L 21.371094 15.796875 L 21.019531 15.847656 L 20.871094 15.878906 L 20.59375 15.945312 L 20.472656 15.988281 L 20.351562 16.035156 L 20.464844 15.988281 L 20.582031 15.945312 L 20.863281 15.878906 L 21.011719 15.847656 L 21.359375 15.796875 L 21.542969 15.773438 L 21.972656 15.738281 L 22.722656 15.695312 L 21.980469 15.738281 Z M 21.550781 15.773438 "/>
<path style=" stroke:none;fill-rule:nonzero;fill:rgb(95.686275%,66.274512%,60.392159%);fill-opacity:1;" d="M 25.160156 41 L 25.148438 41.027344 L 25.148438 41.136719 L 25.179688 41.183594 L 25.148438 41.136719 L 25.148438 41.027344 L 25.167969 40.980469 M 34.480469 40.027344 L 34.519531 40.160156 L 34.605469 40.398438 L 34.722656 40.683594 L 34.601562 40.398438 L 34.523438 40.175781 L 34.484375 40.054688 L 34.445312 39.898438 M 23.898438 34.203125 L 24.210938 34.449219 L 24.371094 34.566406 L 24.695312 34.789062 L 24.863281 34.890625 L 25.207031 35.089844 L 25.382812 35.179688 L 25.746094 35.355469 L 25.9375 35.433594 L 26.328125 35.589844 L 26.535156 35.664062 L 26.960938 35.800781 L 27.183594 35.867188 L 27.644531 35.992188 L 27.890625 36.050781 L 28.125 36.09375 L 28.273438 36.113281 L 28.597656 36.144531 L 28.792969 36.152344 L 29.195312 36.167969 L 29.429688 36.171875 L 29.910156 36.171875 L 30.175781 36.164062 L 30.675781 36.148438 L 30.960938 36.140625 L 31.085938 36.132812 L 31.328125 36.117188 L 31.433594 36.109375 L 31.640625 36.085938 L 31.734375 36.070312 L 32.105469 36.003906 L 32.300781 35.953125 L 32.5 35.898438 L 32.609375 35.863281 L 32.835938 35.792969 L 32.964844 35.75 L 33.503906 35.5625 L 33.835938 35.433594 L 33.996094 35.367188 L 34.59375 35.082031 L 34.871094 34.917969 L 35.410156 34.570312 L 35.671875 34.363281 L 35.921875 34.15625 L 35.664062 34.375 L 35.527344 34.484375 L 35.265625 34.679688 L 34.90625 34.910156 L 34.804688 34.964844 L 34.628906 35.082031 L 34.542969 35.140625 L 34.40625 35.25 L 34.34375 35.304688 L 34.25 35.410156 L 34.175781 35.539062 L 34.15625 35.605469 L 34.132812 35.804688 L 34.121094 35.917969 L 34.109375 36.199219 L 34.105469 36.347656 L 34.101562 36.6875 L 34.101562 36.859375 L 34.109375 37.226562 L 34.121094 37.597656 L 34.167969 38.332031 L 34.183594 38.503906 L 34.21875 38.820312 L 34.242188 38.980469 L 34.183594 38.660156 L 34.152344 38.371094 L 34.101562 37.804688 L 34.101562 36.808594 L 32.664062 37.5 L 32.023438 37.796875 L 31.558594 38 L 31.328125 38.097656 L 30.875 38.285156 L 30.667969 38.363281 L 30.46875 38.4375 L 30.378906 38.472656 L 30.203125 38.535156 L 30.125 38.5625 L 29.597656 38.726562 L 29.21875 38.839844 L 29.023438 38.890625 L 28.222656 39.101562 L 27.84375 39.191406 L 27.46875 39.277344 L 27.292969 39.3125 L 26.953125 39.382812 L 26.804688 39.40625 L 26.519531 39.453125 L 26.40625 39.46875 L 26.191406 39.492188 L 26.121094 39.492188 L 25.875 39.503906 L 25.765625 39.539062 L 25.722656 39.585938 L 25.644531 39.691406 L 25.605469 39.785156 L 25.5625 39.886719 L 25.542969 39.949219 L 25.492188 40.085938 L 25.464844 40.164062 L 25.445312 40.21875 L 25.527344 39.945312 L 25.773438 38.75 L 25.816406 38.433594 L 25.867188 37.738281 L 25.890625 37.390625 L 25.894531 36.730469 L 25.894531 36.574219 L 25.886719 36.289062 L 25.878906 36.148438 L 25.859375 35.917969 L 25.84375 35.808594 L 25.8125 35.644531 L 25.75 35.488281 L 25.730469 35.464844 L 25.640625 35.386719 L 25.589844 35.347656 L 25.445312 35.246094 L 24.914062 34.917969 L 24.65625 34.773438 L 24.140625 34.398438 L 23.882812 34.199219 L 23.628906 33.960938 M 35.941406 34.140625 L 35.9375 34.144531 L 35.945312 34.136719 M 37.074219 33.023438 L 36.65625 33.457031 L 37.230469 32.84375 M 38.023438 31.816406 L 37.925781 31.960938 L 37.703125 32.261719 L 37.585938 32.414062 L 37.335938 32.71875 L 37.285156 32.777344 L 37.738281 32.210938 L 37.96875 31.875 L 38.363281 31.28125 M 38.675781 30.746094 L 38.632812 30.816406 L 38.785156 30.542969 M 21.070312 30.566406 L 21.046875 30.523438 L 20.960938 30.355469 M 39.300781 29.527344 L 39.292969 29.542969 L 39.328125 29.46875 M 20.492188 29.417969 L 20.453125 29.335938 L 20.378906 29.15625 M 43.257812 18.941406 L 43.425781 19.039062 L 43.507812 19.089844 L 43.65625 19.238281 L 43.730469 19.320312 L 43.859375 19.523438 L 43.925781 19.632812 L 44.089844 20.007812 L 44.183594 20.296875 L 44.222656 20.441406 L 44.292969 20.757812 L 44.324219 20.917969 L 44.363281 21.257812 L 44.378906 21.429688 L 44.394531 21.78125 L 44.378906 22.320312 L 44.355469 22.65625 L 44.238281 23.289062 L 44.167969 23.59375 L 43.96875 24.148438 L 43.863281 24.414062 L 43.601562 24.871094 L 43.535156 24.980469 L 43.390625 25.175781 L 43.316406 25.269531 L 43.160156 25.4375 L 43.082031 25.515625 L 42.921875 25.648438 L 42.835938 25.714844 L 42.667969 25.816406 L 42.582031 25.863281 L 42.410156 25.929688 L 42.324219 25.957031 L 42.148438 25.984375 L 42.0625 25.996094 L 41.886719 25.984375 L 41.800781 25.976562 L 41.628906 25.921875 L 41.542969 25.890625 L 41.375 25.796875 L 41.128906 25.601562 L 40.796875 25.285156 L 40.664062 25.796875 L 40.527344 26.316406 L 40.167969 27.398438 L 39.976562 27.9375 L 39.761719 28.457031 L 40.011719 27.820312 L 40.148438 27.433594 L 40.28125 27.050781 L 40.34375 26.867188 L 40.457031 26.511719 L 40.507812 26.347656 L 40.597656 26.035156 L 40.632812 25.898438 L 40.695312 25.644531 L 40.710938 25.546875 L 40.75 25.34375 L 40.785156 25.179688 L 40.804688 25.09375 L 40.886719 24.734375 L 40.929688 24.582031 L 40.992188 24.207031 L 41.007812 24.050781 L 41.011719 23.960938 L 41.019531 23.769531 L 41.023438 23.664062 L 41.027344 23.4375 L 41.027344 23.308594 L 41.023438 23.042969 L 41.023438 22.890625 L 41.015625 22.664062 L 41.03125 22.941406 L 41.042969 23.097656 L 41.0625 23.351562 L 41.074219 23.46875 L 41.097656 23.648438 L 41.109375 23.726562 L 41.132812 23.832031 L 41.148438 23.875 L 41.175781 23.914062 L 41.191406 23.921875 L 41.222656 23.890625 L 41.277344 23.769531 L 41.28125 23.75 L 41.304688 23.746094 L 41.320312 23.75 L 41.375 23.804688 L 41.414062 23.875 L 41.476562 24.007812 L 41.503906 24.070312 L 41.558594 24.167969 L 41.585938 24.210938 L 41.640625 24.277344 L 41.671875 24.308594 L 41.734375 24.339844 L 41.824219 24.347656 L 41.863281 24.339844 L 41.917969 24.292969 L 41.941406 24.265625 L 41.96875 24.148438 L 41.980469 24.082031 L 41.984375 23.871094 L 41.984375 23.808594 L 41.980469 23.667969 L 41.972656 23.410156 L 41.964844 23.304688 L 41.957031 23.125 L 41.957031 23.039062 L 41.953125 22.902344 L 41.953125 22.839844 L 41.957031 22.742188 L 41.960938 22.695312 L 41.972656 22.628906 L 41.988281 22.566406 L 42.050781 22.503906 L 42.207031 22.453125 L 42.28125 22.4375 L 42.484375 22.417969 L 42.773438 22.417969 L 42.828125 22.421875 L 42.914062 22.417969 L 42.949219 22.414062 L 43.003906 22.386719 L 43.027344 22.371094 L 43.050781 22.320312 L 43.066406 22.210938 L 43.066406 22.171875 L 43.042969 22.101562 L 43.027344 22.066406 L 42.96875 22.007812 L 42.9375 21.980469 L 42.84375 21.933594 L 42.65625 21.871094 L 42.542969 21.839844 L 42.355469 21.78125 L 42.3125 21.765625 L 42.25 21.746094 L 42.195312 21.71875 L 42.210938 21.667969 L 42.222656 21.636719 L 42.265625 21.542969 L 42.289062 21.492188 L 42.355469 21.367188 L 42.472656 21.15625 L 42.558594 21.007812 L 42.671875 20.746094 L 42.695312 20.6875 L 42.71875 20.59375 L 42.714844 20.507812 L 42.6875 20.464844 L 42.609375 20.414062 L 42.570312 20.398438 L 42.472656 20.398438 L 42.425781 20.402344 L 42.324219 20.449219 L 42.1875 20.566406 L 42.132812 20.632812 L 42.046875 20.703125 L 42.007812 20.730469 L 41.945312 20.730469 L 41.921875 20.726562 L 41.898438 20.65625 L 41.917969 20.476562 L 41.9375 20.375 L 41.984375 20.199219 L 42.007812 20.113281 L 42.050781 19.964844 L 42.09375 19.824219 L 42.199219 19.613281 L 42.253906 19.515625 L 42.394531 19.359375 L 42.675781 19.148438 L 42.785156 19.078125 L 42.941406 18.988281 L 43.011719 18.953125 L 43.117188 18.921875 L 43.164062 18.917969 M 17.15625 18.839844 L 17.210938 18.851562 L 17.3125 18.910156 L 17.363281 18.945312 L 17.460938 19.058594 L 17.507812 19.121094 L 17.605469 19.289062 L 17.75 19.601562 L 17.816406 19.761719 L 17.894531 20.007812 L 17.925781 20.121094 L 17.929688 20.277344 L 17.921875 20.34375 L 17.847656 20.410156 L 17.652344 20.421875 L 17.597656 20.410156 L 17.507812 20.40625 L 17.46875 20.40625 L 17.402344 20.421875 L 17.375 20.429688 L 17.332031 20.464844 L 17.316406 20.484375 L 17.300781 20.539062 L 17.292969 20.570312 L 17.304688 20.644531 L 17.308594 20.683594 L 17.339844 20.78125 L 17.359375 20.832031 L 17.417969 20.953125 L 17.527344 21.15625 L 17.570312 21.230469 L 17.644531 21.367188 L 17.679688 21.429688 L 17.738281 21.542969 L 17.761719 21.59375 L 17.789062 21.667969 L 17.796875 21.722656 L 17.792969 21.726562 L 17.75 21.746094 L 17.722656 21.753906 L 17.644531 21.78125 L 17.34375 21.871094 L 17.269531 21.890625 L 17.15625 21.933594 L 17.105469 21.957031 L 17.03125 22.007812 L 16.996094 22.039062 L 16.957031 22.101562 L 16.933594 22.210938 L 16.933594 22.253906 L 16.949219 22.320312 L 16.957031 22.347656 L 16.996094 22.386719 L 17.019531 22.402344 L 17.085938 22.417969 L 17.226562 22.417969 L 17.308594 22.414062 L 17.515625 22.417969 L 17.800781 22.453125 L 17.867188 22.46875 L 17.957031 22.503906 L 17.996094 22.527344 L 18.03125 22.621094 L 18.039062 22.652344 L 18.042969 22.730469 L 18.046875 22.777344 L 18.042969 22.890625 L 18.039062 22.953125 L 18.03125 23.105469 L 18.007812 23.390625 L 18 23.480469 L 17.988281 23.636719 L 17.980469 23.710938 L 17.976562 23.835938 L 17.972656 23.957031 L 17.980469 24.113281 L 17.988281 24.183594 L 18.023438 24.265625 L 18.113281 24.335938 L 18.152344 24.351562 L 18.234375 24.355469 L 18.273438 24.351562 L 18.347656 24.316406 L 18.386719 24.296875 L 18.460938 24.226562 L 18.496094 24.191406 L 18.566406 24.089844 L 18.628906 23.984375 L 18.742188 23.683594 L 18.863281 23.132812 L 18.816406 23.5625 L 18.800781 23.828125 L 18.804688 23.949219 L 18.816406 24.195312 L 18.835938 24.320312 L 18.878906 24.582031 L 18.910156 24.734375 L 19.207031 25.882812 L 19.199219 25.855469 L 19.183594 25.8125 L 19.164062 25.75 L 19.140625 25.667969 L 19.109375 25.636719 L 19.089844 25.628906 L 19.03125 25.632812 L 18.996094 25.640625 L 18.902344 25.679688 L 18.722656 25.78125 L 18.628906 25.839844 L 18.429688 25.921875 L 18.332031 25.953125 L 18.132812 25.984375 L 18.035156 25.996094 L 17.839844 25.980469 L 17.742188 25.96875 L 17.550781 25.910156 L 17.457031 25.878906 L 17.175781 25.726562 L 17 25.589844 L 16.914062 25.515625 L 16.746094 25.347656 L 16.664062 25.257812 L 16.507812 25.058594 L 16.433594 24.953125 L 16.292969 24.722656 L 16.222656 24.605469 L 16.097656 24.347656 L 15.980469 24.085938 L 15.796875 23.496094 L 15.71875 23.191406 L 15.628906 22.535156 L 15.621094 21.503906 L 15.632812 21.363281 L 15.660156 21.109375 L 15.671875 20.988281 L 15.707031 20.765625 L 15.742188 20.550781 L 15.84375 20.199219 L 15.898438 20.03125 L 16.054688 19.742188 L 16.355469 19.339844 L 16.441406 19.25 L 16.59375 19.101562 L 16.667969 19.03125 L 16.800781 18.9375 L 16.867188 18.894531 L 16.988281 18.847656 L 17.046875 18.832031 M 34.023438 22.808594 L 34.234375 23.011719 L 34.320312 23.074219 L 34.441406 23.148438 L 34.496094 23.175781 L 34.582031 23.1875 L 34.625 23.179688 L 34.714844 23.117188 L 34.765625 23.078125 L 34.980469 22.84375 L 35.078125 22.703125 L 34.8125 23.199219 L 35.070312 23.253906 L 35.21875 23.277344 L 35.34375 23.296875 L 35.421875 23.308594 L 35.734375 23.351562 L 35.890625 23.371094 L 36.351562 23.464844 L 36.667969 23.566406 L 36.816406 23.632812 L 37.101562 23.769531 L 37.214844 23.84375 L 37.425781 23.992188 L 37.488281 24.066406 L 37.589844 24.253906 L 37.613281 24.382812 L 37.605469 24.449219 L 37.574219 24.578125 L 37.539062 24.644531 L 37.453125 24.773438 L 37.394531 24.839844 L 37.265625 24.960938 L 37.183594 25.019531 L 37.011719 25.128906 L 36.910156 25.179688 L 36.699219 25.277344 L 36.582031 25.316406 L 36.335938 25.390625 L 36.199219 25.421875 L 35.765625 25.5 L 35.546875 25.519531 L 35.109375 25.546875 L 34.894531 25.539062 L 34.472656 25.515625 L 34.273438 25.492188 L 33.886719 25.425781 L 33.710938 25.375 L 33.371094 25.273438 L 33.226562 25.207031 L 32.957031 25.070312 L 32.851562 24.988281 L 32.664062 24.820312 L 32.605469 24.722656 L 32.519531 24.53125 L 32.519531 24.425781 L 32.609375 24.136719 L 32.757812 23.945312 L 32.867188 23.859375 L 33.109375 23.6875 L 33.261719 23.617188 L 33.582031 23.480469 L 33.769531 23.433594 L 34.066406 23.328125 L 34.179688 23.257812 L 34.191406 23.207031 L 34.191406 23.09375 L 34.152344 23.019531 L 34.105469 22.9375 L 34.074219 22.886719 L 34.003906 22.785156 L 33.957031 22.726562 L 33.910156 22.636719 M 26.101562 22.378906 L 26.0625 22.476562 L 25.972656 22.671875 L 25.917969 22.75 L 25.804688 22.902344 L 25.738281 22.953125 L 25.652344 23.039062 L 25.617188 23.09375 L 25.613281 23.117188 L 25.613281 23.167969 L 25.652344 23.246094 L 25.675781 23.277344 L 25.824219 23.390625 L 25.941406 23.4375 L 25.992188 23.4375 L 26.105469 23.457031 L 26.210938 23.488281 L 26.273438 23.511719 L 26.550781 23.617188 L 26.691406 23.6875 L 26.992188 23.863281 L 27.144531 23.984375 L 27.199219 24.050781 L 27.292969 24.183594 L 27.316406 24.25 L 27.351562 24.382812 L 27.34375 24.453125 L 27.316406 24.585938 L 27.28125 24.652344 L 27.195312 24.785156 L 27.128906 24.847656 L 26.984375 24.976562 L 26.886719 25.035156 L 26.683594 25.152344 L 26.558594 25.207031 L 26.359375 25.285156 L 26.246094 25.316406 L 26.003906 25.378906 L 25.871094 25.40625 L 25.316406 25.488281 L 25.019531 25.507812 L 24.429688 25.523438 L 24.152344 25.503906 L 23.882812 25.480469 L 23.757812 25.460938 L 23.523438 25.421875 L 23.421875 25.390625 L 23.019531 25.257812 L 22.789062 25.15625 L 22.695312 25.097656 L 22.511719 24.984375 L 22.441406 24.925781 L 22.3125 24.800781 L 22.269531 24.738281 L 22.191406 24.605469 L 22.175781 24.539062 L 22.15625 24.40625 L 22.171875 24.339844 L 22.210938 24.207031 L 22.253906 24.140625 L 22.351562 24.011719 L 22.425781 23.949219 L 22.585938 23.832031 L 22.71875 23.757812 L 22.796875 23.71875 L 23.121094 23.578125 L 23.304688 23.519531 L 23.675781 23.410156 L 23.859375 23.375 L 24.214844 23.320312 L 24.367188 23.316406 L 24.710938 23.285156 L 24.8125 23.265625 L 24.851562 23.253906 L 24.929688 23.226562 L 25.027344 23.148438 L 25.050781 23.113281 L 25.046875 23.089844 L 25.03125 23.042969 L 25.011719 23.011719 L 24.980469 22.976562 L 25.039062 23.023438 L 25.117188 23.078125 L 25.28125 23.113281 L 25.367188 23.121094 L 25.542969 23.058594 L 25.628906 23.019531 L 25.800781 22.855469 L 25.886719 22.761719 L 26.046875 22.492188 L 26.097656 22.386719 L 26.125 22.300781 M 24.535156 22.007812 L 24.558594 22.179688 L 24.648438 22.460938 L 24.695312 22.597656 L 24.777344 22.730469 L 24.714844 22.652344 L 24.617188 22.457031 L 24.585938 22.34375 L 24.53125 22.09375 L 24.515625 21.945312 L 24.496094 21.695312 M 33.730469 22.183594 L 33.765625 22.304688 L 33.855469 22.523438 L 33.898438 22.621094 L 33.832031 22.5 L 33.761719 22.320312 L 33.734375 22.21875 L 33.699219 22.054688 M 19.121094 18.195312 L 19.113281 18.367188 L 19.097656 18.742188 L 19.089844 18.976562 L 19.082031 19.214844 L 19.078125 19.347656 L 19.070312 19.621094 L 19.066406 19.769531 L 19.027344 20.785156 L 18.996094 21.449219 L 18.980469 21.75 L 18.960938 22.046875 L 18.953125 22.179688 L 18.933594 22.441406 L 18.929688 22.492188 L 18.945312 22.25 L 18.953125 22.117188 L 18.972656 21.824219 L 18.992188 21.527344 L 19.023438 20.859375 L 19.0625 19.828125 L 19.066406 19.671875 L 19.074219 19.394531 L 19.078125 19.257812 L 19.085938 19.015625 L 19.097656 18.777344 L 19.113281 18.394531 L 19.121094 18.214844 L 19.136719 17.929688 L 19.136719 17.925781 M 33.65625 21.804688 L 33.664062 21.875 L 33.648438 21.792969 L 33.644531 21.6875 M 26.144531 20.65625 L 26.199219 20.898438 L 26.21875 21.027344 L 26.253906 21.542969 L 26.226562 21.792969 L 26.222656 21.8125 L 26.230469 21.742188 L 26.238281 21.605469 L 26.234375 21.3125 L 26.226562 21.171875 L 26.183594 20.886719 L 26.160156 20.746094 L 26.09375 20.515625 M 35.398438 21.464844 L 35.382812 21.640625 L 35.367188 21.78125 L 35.390625 21.367188 L 35.390625 21.253906 M 24.492188 21.453125 L 24.492188 21.433594 L 24.496094 21.398438 M 35.371094 20.949219 L 35.382812 21.117188 L 35.386719 21.136719 L 35.351562 20.859375 M 33.714844 20.671875 L 33.71875 20.667969 L 33.71875 20.65625 M 33.734375 20.609375 L 33.746094 20.570312 L 33.796875 20.425781 M 24.597656 20.574219 L 24.609375 20.527344 M 35.261719 20.480469 L 35.277344 20.542969 L 35.25 20.453125 M 40.308594 17.609375 L 40.371094 17.738281 L 40.472656 18.015625 L 40.523438 18.15625 L 40.609375 18.464844 L 40.652344 18.625 L 40.726562 18.972656 L 40.757812 19.152344 L 40.816406 19.546875 L 40.84375 19.75 L 40.890625 20.195312 L 40.910156 20.425781 L 40.910156 20.453125 L 40.890625 20.230469 L 40.84375 19.773438 L 40.816406 19.566406 L 40.757812 19.164062 L 40.722656 18.980469 L 40.652344 18.628906 L 40.609375 18.46875 L 40.519531 18.15625 L 40.472656 18.011719 L 40.367188 17.734375 L 40.308594 17.605469 L 40.210938 17.402344 M 33.8125 20.382812 L 33.851562 20.300781 M 35.082031 20.09375 L 35.109375 20.148438 L 35.066406 20.074219 M 34.511719 19.71875 L 34.34375 19.765625 L 34.257812 19.800781 L 34.09375 19.941406 L 34.054688 19.996094 L 34.09375 19.941406 L 34.179688 19.847656 L 34.21875 19.8125 L 34.296875 19.757812 L 34.328125 19.75 L 34.496094 19.71875 M 34.84375 19.824219 L 34.929688 19.910156 L 34.839844 19.835938 L 34.804688 19.8125 M 24.953125 19.894531 L 24.949219 19.902344 L 24.972656 19.867188 L 25.050781 19.8125 L 25.066406 19.800781 M 25.71875 19.855469 L 25.722656 19.859375 L 25.675781 19.824219 M 25.46875 19.710938 L 25.542969 19.742188 L 25.484375 19.726562 L 25.339844 19.71875 L 25.269531 19.722656 L 25.136719 19.769531 L 25.078125 19.796875 L 25.210938 19.71875 L 25.296875 19.707031 M 34.601562 19.726562 L 34.648438 19.742188 L 34.695312 19.761719 L 34.597656 19.730469 L 34.523438 19.722656 M 39.085938 16.019531 L 39.445312 16.410156 L 39.53125 16.503906 L 39.679688 16.675781 L 39.753906 16.757812 L 39.875 16.90625 L 39.933594 16.976562 L 40.023438 17.097656 L 40.117188 17.238281 L 40.121094 17.238281 L 40.027344 17.101562 L 39.933594 16.980469 L 39.878906 16.910156 L 39.753906 16.761719 L 39.53125 16.503906 L 39.445312 16.410156 L 39.085938 16.019531 L 38.886719 15.808594 L 38.472656 15.386719 L 38.886719 15.808594 M 20.148438 16.128906 L 19.964844 16.242188 L 19.886719 16.3125 L 19.730469 16.457031 L 19.660156 16.542969 L 19.523438 16.722656 L 19.476562 16.800781 L 19.523438 16.722656 L 19.660156 16.542969 L 19.730469 16.457031 L 19.886719 16.3125 L 19.964844 16.242188 L 20.152344 16.128906 L 20.199219 16.101562 M 20.246094 16.074219 L 20.351562 16.035156 M 25.734375 41.511719 L 25.898438 41.585938 Z M 25.734375 41.511719 "/>
<path style=" stroke:none;fill-rule:nonzero;fill:rgb(97.254902%,76.862746%,71.764708%);fill-opacity:1;" d="M 29.128906 42.53125 L 28.871094 42.492188 L 28.316406 42.375 L 28.039062 42.3125 L 27.472656 42.15625 L 27.191406 42.070312 L 26.648438 41.886719 L 25.898438 41.585938 L 25.734375 41.511719 L 25.496094 41.394531 L 25.390625 41.339844 L 25.253906 41.25 L 25.199219 41.210938 L 25.148438 41.136719 L 25.148438 41.027344 L 25.160156 41 L 25.203125 40.902344 L 25.222656 40.84375 L 25.277344 40.695312 L 25.464844 40.164062 L 25.492188 40.085938 L 25.542969 39.949219 L 25.5625 39.886719 L 25.605469 39.785156 L 25.644531 39.691406 L 25.722656 39.585938 L 25.765625 39.539062 L 25.875 39.503906 L 26.121094 39.492188 L 26.191406 39.492188 L 26.40625 39.46875 L 26.519531 39.453125 L 26.804688 39.40625 L 26.953125 39.382812 L 27.292969 39.3125 L 27.46875 39.277344 L 27.84375 39.191406 L 28.222656 39.101562 L 29.023438 38.890625 L 29.21875 38.839844 L 29.597656 38.726562 L 30.125 38.5625 L 30.203125 38.535156 L 30.378906 38.472656 L 30.46875 38.4375 L 30.667969 38.363281 L 30.875 38.285156 L 31.328125 38.097656 L 31.558594 38 L 32.023438 37.796875 L 32.664062 37.5 L 34.101562 36.808594 L 34.101562 37.804688 L 34.152344 38.371094 L 34.183594 38.660156 L 34.289062 39.242188 L 34.34375 39.53125 L 34.484375 40.054688 L 34.523438 40.175781 L 34.601562 40.398438 L 34.722656 40.683594 L 34.996094 41.234375 L 34.050781 41.703125 L 33.921875 41.769531 L 33.628906 41.898438 L 33.480469 41.964844 L 33.175781 42.089844 L 33.027344 42.148438 L 32.75 42.246094 L 32.402344 42.351562 L 32.171875 42.410156 L 31.621094 42.5 L 31.339844 42.535156 L 30.742188 42.582031 L 30.445312 42.597656 L 29.875 42.59375 L 29.738281 42.59375 L 29.480469 42.574219 L 29.355469 42.5625 M 27.890625 36.050781 L 27.644531 35.992188 L 27.183594 35.867188 L 26.960938 35.800781 L 26.535156 35.664062 L 26.328125 35.589844 L 25.9375 35.433594 L 25.746094 35.355469 L 25.382812 35.179688 L 25.207031 35.089844 L 24.863281 34.890625 L 24.695312 34.789062 L 24.371094 34.566406 L 24.210938 34.449219 L 23.898438 34.203125 L 23.4375 33.792969 L 23.195312 33.566406 L 22.722656 33.03125 L 22.488281 32.753906 L 22.03125 32.128906 L 21.804688 31.804688 L 21.371094 31.097656 L 21.160156 30.734375 L 20.757812 29.960938 L 20.5625 29.570312 L 20.195312 28.742188 L 20.015625 28.320312 L 19.695312 27.449219 L 19.539062 27.007812 L 19.261719 26.105469 L 18.910156 24.734375 L 18.878906 24.582031 L 18.835938 24.320312 L 18.816406 24.195312 L 18.804688 23.949219 L 18.800781 23.828125 L 18.816406 23.5625 L 18.871094 23.09375 L 18.878906 23.03125 L 18.894531 22.863281 L 18.90625 22.773438 L 18.921875 22.554688 L 18.933594 22.441406 L 18.953125 22.179688 L 18.960938 22.046875 L 18.980469 21.75 L 18.996094 21.449219 L 19.027344 20.785156 L 19.066406 19.769531 L 19.070312 19.621094 L 19.078125 19.347656 L 19.082031 19.214844 L 19.089844 18.976562 L 19.097656 18.742188 L 19.113281 18.367188 L 19.121094 18.195312 L 19.140625 17.914062 L 19.148438 17.785156 L 19.171875 17.585938 L 19.183594 17.492188 L 19.214844 17.34375 L 19.230469 17.273438 L 19.273438 17.160156 L 19.457031 16.828125 L 19.523438 16.722656 L 19.660156 16.542969 L 19.730469 16.457031 L 19.886719 16.3125 L 19.964844 16.242188 L 20.148438 16.128906 L 20.246094 16.074219 L 20.472656 15.988281 L 20.59375 15.945312 L 20.871094 15.878906 L 21.019531 15.847656 L 21.367188 15.796875 L 21.550781 15.773438 L 21.980469 15.738281 L 22.722656 15.695312 L 22.957031 15.683594 L 23.355469 15.660156 L 23.546875 15.652344 L 23.871094 15.628906 L 24.027344 15.613281 L 24.289062 15.585938 L 24.414062 15.570312 L 24.628906 15.535156 L 24.839844 15.5 L 25.175781 15.394531 L 25.671875 15.171875 L 25.914062 15.046875 L 26.332031 14.757812 L 26.433594 14.679688 L 26.628906 14.503906 L 26.726562 14.414062 L 26.917969 14.199219 L 27.015625 14.089844 L 27.21875 13.832031 L 27.316406 13.695312 L 27.53125 13.382812 L 27.640625 13.21875 L 27.878906 12.839844 L 28.273438 12.1875 L 28.359375 12.035156 L 28.546875 11.734375 L 28.640625 11.589844 L 28.8125 11.324219 L 28.898438 11.199219 L 29.042969 11.003906 L 29.199219 10.816406 L 29.328125 10.695312 L 29.652344 10.492188 L 29.738281 10.445312 L 29.933594 10.355469 L 30.035156 10.316406 L 30.375 10.199219 L 30.632812 10.132812 L 30.765625 10.101562 L 31.058594 10.039062 L 31.210938 10.011719 L 31.542969 9.960938 L 32.089844 9.890625 L 32.289062 9.867188 L 32.652344 9.820312 L 32.828125 9.796875 L 33.148438 9.742188 L 33.300781 9.71875 L 33.578125 9.664062 L 33.714844 9.636719 L 33.953125 9.578125 L 34.070312 9.546875 L 34.273438 9.484375 L 34.371094 9.449219 L 34.542969 9.378906 L 34.960938 9.136719 L 35.242188 8.914062 L 35.328125 9.746094 L 35.351562 10.019531 L 35.429688 10.523438 L 35.472656 10.769531 L 35.585938 11.230469 L 35.648438 11.457031 L 35.804688 11.890625 L 35.890625 12.105469 L 36.101562 12.523438 L 36.214844 12.730469 L 36.484375 13.144531 L 36.625 13.351562 L 36.964844 13.78125 L 37.140625 14 L 37.550781 14.453125 L 38.257812 15.175781 L 38.472656 15.386719 L 38.886719 15.808594 L 39.085938 16.019531 L 39.445312 16.410156 L 39.53125 16.503906 L 39.753906 16.761719 L 39.878906 16.910156 L 39.933594 16.980469 L 40.027344 17.101562 L 40.121094 17.238281 L 40.1875 17.355469 L 40.308594 17.605469 L 40.367188 17.734375 L 40.472656 18.011719 L 40.519531 18.15625 L 40.609375 18.46875 L 40.652344 18.628906 L 40.722656 18.980469 L 40.757812 19.164062 L 40.816406 19.566406 L 40.84375 19.773438 L 40.890625 20.230469 L 40.914062 20.464844 L 40.949219 20.984375 L 40.988281 21.835938 L 40.996094 22.039062 L 41.007812 22.402344 L 41.015625 22.578125 L 41.023438 22.890625 L 41.023438 23.042969 L 41.027344 23.308594 L 41.027344 23.4375 L 41.023438 23.664062 L 41.019531 23.769531 L 41.011719 23.960938 L 41.007812 24.050781 L 40.992188 24.207031 L 40.929688 24.582031 L 40.886719 24.734375 L 40.804688 25.09375 L 40.785156 25.179688 L 40.75 25.34375 L 40.710938 25.546875 L 40.695312 25.644531 L 40.632812 25.898438 L 40.597656 26.035156 L 40.507812 26.347656 L 40.457031 26.511719 L 40.34375 26.867188 L 40.28125 27.050781 L 40.148438 27.433594 L 40.011719 27.820312 L 39.707031 28.597656 L 39.628906 28.785156 L 39.476562 29.144531 L 39.25 29.636719 L 39.054688 30.054688 L 38.632812 30.820312 L 38.421875 31.191406 L 37.96875 31.875 L 37.738281 32.210938 L 37.25 32.820312 L 36.472656 33.652344 L 36.335938 33.785156 L 36.066406 34.03125 L 35.933594 34.148438 L 35.671875 34.363281 L 35.410156 34.570312 L 34.871094 34.917969 L 34.59375 35.082031 L 33.996094 35.367188 L 33.835938 35.433594 L 33.503906 35.5625 L 32.964844 35.75 L 32.835938 35.792969 L 32.609375 35.863281 L 32.5 35.898438 L 32.300781 35.953125 L 32.105469 36.003906 L 31.734375 36.070312 L 31.640625 36.085938 L 31.433594 36.109375 L 31.328125 36.117188 L 31.085938 36.132812 L 30.960938 36.140625 L 30.675781 36.148438 L 30.175781 36.164062 L 29.910156 36.171875 L 29.429688 36.171875 L 29.195312 36.167969 L 28.792969 36.152344 L 28.597656 36.144531 L 28.273438 36.113281 L 28.125 36.09375 M 31.835938 30.578125 L 31.980469 30.503906 L 32.210938 30.375 L 32.3125 30.316406 L 32.464844 30.207031 L 32.53125 30.15625 L 32.613281 30.054688 L 32.675781 29.914062 L 32.679688 29.867188 L 32.675781 29.796875 L 32.671875 29.761719 L 32.640625 29.710938 L 32.625 29.691406 L 32.574219 29.664062 L 32.542969 29.65625 L 32.46875 29.652344 L 32.425781 29.652344 L 32.324219 29.671875 L 32.269531 29.6875 L 32.140625 29.730469 L 32.074219 29.753906 L 31.917969 29.820312 L 31.65625 29.945312 L 31.503906 30.019531 L 31.199219 30.148438 L 31.046875 30.203125 L 30.746094 30.289062 L 30.597656 30.328125 L 30.296875 30.375 L 30.148438 30.394531 L 29.855469 30.40625 L 29.710938 30.40625 L 29.421875 30.375 L 29.273438 30.355469 L 28.988281 30.285156 L 28.84375 30.246094 L 28.5625 30.140625 L 28.140625 29.933594 L 27.992188 29.851562 L 27.75 29.746094 L 27.636719 29.699219 L 27.460938 29.664062 L 27.378906 29.652344 L 27.257812 29.6875 L 27.148438 29.820312 L 27.125 29.871094 L 27.148438 29.984375 L 27.164062 30.042969 L 27.261719 30.164062 L 27.316406 30.222656 L 27.484375 30.351562 L 27.8125 30.550781 L 28 30.648438 L 28.347656 30.789062 L 28.519531 30.855469 L 28.863281 30.941406 L 29.042969 30.980469 L 29.421875 31.015625 L 30.078125 31.015625 L 30.28125 31.007812 L 30.597656 30.984375 L 30.75 30.96875 L 31.003906 30.914062 L 31.132812 30.882812 L 31.386719 30.789062 L 31.519531 30.734375 M 30.09375 28.15625 L 30.101562 28.109375 L 30.085938 28.027344 L 30.074219 27.988281 L 30.019531 27.90625 L 29.984375 27.867188 L 29.878906 27.785156 L 29.65625 27.648438 L 29.574219 27.601562 L 29.441406 27.515625 L 29.378906 27.472656 L 29.28125 27.386719 L 29.234375 27.347656 L 29.175781 27.257812 L 29.148438 27.214844 L 29.113281 27.074219 L 29.125 26.96875 L 29.132812 26.914062 L 29.175781 26.789062 L 29.199219 26.722656 L 29.273438 26.578125 L 29.421875 26.328125 L 29.507812 26.191406 L 29.65625 25.953125 L 29.726562 25.839844 L 29.84375 25.640625 L 29.898438 25.546875 L 29.992188 25.382812 L 30.035156 25.308594 L 30.097656 25.175781 L 30.128906 25.113281 L 30.171875 25.007812 L 30.1875 24.957031 L 30.207031 24.875 L 30.199219 24.6875 L 30.175781 24.621094 L 30.074219 24.542969 L 30.019531 24.507812 L 29.890625 24.5 L 29.828125 24.5 L 29.710938 24.558594 L 29.59375 24.714844 L 29.582031 24.746094 L 29.523438 24.867188 L 29.488281 24.933594 L 29.386719 25.109375 L 29.335938 25.203125 L 29.207031 25.414062 L 28.996094 25.742188 L 28.851562 25.960938 L 28.601562 26.390625 L 28.546875 26.492188 L 28.464844 26.65625 L 28.394531 26.828125 L 28.382812 26.882812 L 28.375 27 L 28.378906 27.0625 L 28.402344 27.183594 L 28.433594 27.3125 L 28.574219 27.566406 L 28.65625 27.691406 L 28.882812 27.921875 L 29.289062 28.207031 L 29.363281 28.246094 L 29.492188 28.308594 L 29.550781 28.335938 L 29.65625 28.378906 L 29.757812 28.414062 L 29.894531 28.429688 L 29.953125 28.425781 L 30.03125 28.355469 L 30.0625 28.308594 M 26.558594 25.207031 L 26.683594 25.152344 L 26.886719 25.035156 L 26.984375 24.976562 L 27.128906 24.847656 L 27.195312 24.785156 L 27.28125 24.652344 L 27.316406 24.585938 L 27.34375 24.453125 L 27.351562 24.382812 L 27.316406 24.25 L 27.292969 24.183594 L 27.199219 24.050781 L 27.144531 23.984375 L 26.992188 23.863281 L 26.691406 23.6875 L 26.550781 23.617188 L 26.273438 23.511719 L 26.210938 23.488281 L 26.105469 23.457031 L 25.992188 23.4375 L 25.941406 23.4375 L 25.824219 23.390625 L 25.675781 23.277344 L 25.652344 23.246094 L 25.613281 23.167969 L 25.613281 23.117188 L 25.617188 23.09375 L 25.652344 23.039062 L 25.738281 22.953125 L 25.804688 22.902344 L 25.917969 22.75 L 25.972656 22.671875 L 26.0625 22.476562 L 26.101562 22.378906 L 26.164062 22.152344 L 26.191406 22.039062 L 26.226562 21.792969 L 26.253906 21.542969 L 26.21875 21.027344 L 26.199219 20.898438 L 26.144531 20.65625 L 26.023438 20.316406 L 25.953125 20.164062 L 25.800781 19.949219 L 25.71875 19.855469 L 25.550781 19.75 L 25.46875 19.710938 L 25.296875 19.707031 L 25.210938 19.71875 L 25.050781 19.8125 L 24.972656 19.867188 L 24.832031 20.046875 L 24.765625 20.148438 L 24.652344 20.40625 L 24.605469 20.542969 L 24.535156 20.871094 L 24.492188 21.433594 L 24.492188 21.625 L 24.515625 21.945312 L 24.53125 22.09375 L 24.585938 22.34375 L 24.617188 22.457031 L 24.714844 22.652344 L 24.910156 22.902344 L 24.957031 22.945312 L 25.011719 23.011719 L 25.03125 23.042969 L 25.046875 23.089844 L 25.050781 23.113281 L 25.027344 23.148438 L 24.929688 23.226562 L 24.851562 23.253906 L 24.8125 23.265625 L 24.710938 23.285156 L 24.367188 23.316406 L 24.214844 23.320312 L 23.859375 23.375 L 23.675781 23.410156 L 23.304688 23.519531 L 23.121094 23.578125 L 22.796875 23.71875 L 22.71875 23.757812 L 22.585938 23.832031 L 22.425781 23.949219 L 22.351562 24.011719 L 22.253906 24.140625 L 22.210938 24.207031 L 22.171875 24.339844 L 22.15625 24.40625 L 22.175781 24.539062 L 22.191406 24.605469 L 22.269531 24.738281 L 22.3125 24.800781 L 22.441406 24.925781 L 22.511719 24.984375 L 22.695312 25.097656 L 22.789062 25.15625 L 23.019531 25.257812 L 23.421875 25.390625 L 23.523438 25.421875 L 23.757812 25.460938 L 23.882812 25.480469 L 24.152344 25.503906 L 24.429688 25.523438 L 25.019531 25.507812 L 25.316406 25.488281 L 25.871094 25.40625 L 26.003906 25.378906 L 26.246094 25.316406 L 26.359375 25.285156 M 36.199219 25.421875 L 36.335938 25.390625 L 36.582031 25.316406 L 36.699219 25.277344 L 36.910156 25.179688 L 37.011719 25.128906 L 37.183594 25.019531 L 37.265625 24.960938 L 37.394531 24.839844 L 37.453125 24.773438 L 37.539062 24.644531 L 37.574219 24.578125 L 37.605469 24.449219 L 37.613281 24.382812 L 37.589844 24.253906 L 37.488281 24.066406 L 37.425781 23.992188 L 37.214844 23.84375 L 37.101562 23.769531 L 36.816406 23.632812 L 36.667969 23.566406 L 36.351562 23.464844 L 35.890625 23.371094 L 35.734375 23.351562 L 35.421875 23.308594 L 35.34375 23.296875 L 35.21875 23.277344 L 35.070312 23.253906 L 34.8125 23.199219 L 35.101562 22.65625 L 35.183594 22.503906 L 35.292969 22.164062 L 35.339844 21.996094 L 35.382812 21.640625 L 35.398438 21.464844 L 35.382812 21.117188 L 35.371094 20.949219 L 35.300781 20.632812 L 35.261719 20.480469 L 35.144531 20.21875 L 35.082031 20.09375 L 34.925781 19.90625 L 34.84375 19.824219 L 34.648438 19.742188 L 34.601562 19.726562 L 34.496094 19.71875 L 34.328125 19.75 L 34.296875 19.757812 L 34.21875 19.8125 L 34.179688 19.847656 L 34.09375 19.941406 L 33.851562 20.300781 L 33.8125 20.382812 L 33.746094 20.570312 L 33.71875 20.667969 L 33.675781 20.882812 L 33.640625 21.101562 L 33.636719 21.5625 L 33.648438 21.792969 L 33.734375 22.21875 L 33.761719 22.320312 L 33.832031 22.5 L 33.957031 22.726562 L 34.003906 22.785156 L 34.074219 22.886719 L 34.105469 22.9375 L 34.152344 23.019531 L 34.191406 23.09375 L 34.191406 23.207031 L 34.179688 23.257812 L 34.066406 23.328125 L 33.769531 23.433594 L 33.582031 23.480469 L 33.261719 23.617188 L 33.109375 23.6875 L 32.867188 23.859375 L 32.757812 23.945312 L 32.609375 24.136719 L 32.519531 24.425781 L 32.519531 24.53125 L 32.605469 24.722656 L 32.664062 24.820312 L 32.851562 24.988281 L 32.957031 25.070312 L 33.226562 25.207031 L 33.371094 25.273438 L 33.710938 25.375 L 33.886719 25.425781 L 34.273438 25.492188 L 34.472656 25.515625 L 34.894531 25.539062 L 35.109375 25.546875 L 35.546875 25.519531 L 35.765625 25.5 M 24.136719 18.699219 L 24.226562 18.675781 L 24.453125 18.628906 L 24.570312 18.605469 L 24.832031 18.570312 L 24.96875 18.554688 L 25.234375 18.53125 L 25.609375 18.515625 L 25.734375 18.515625 L 25.964844 18.503906 L 26.078125 18.496094 L 26.269531 18.472656 L 26.363281 18.460938 L 26.503906 18.425781 L 26.652344 18.359375 L 26.722656 18.308594 L 26.808594 18.148438 L 26.84375 18.0625 L 26.859375 17.867188 L 26.859375 17.773438 L 26.804688 17.585938 L 26.644531 17.371094 L 26.617188 17.347656 L 26.527344 17.3125 L 26.480469 17.296875 L 26.359375 17.273438 L 26.234375 17.253906 L 25.898438 17.242188 L 25.722656 17.246094 L 25.320312 17.277344 L 25.113281 17.292969 L 24.679688 17.355469 L 24.460938 17.390625 L 24.039062 17.476562 L 23.832031 17.523438 L 23.453125 17.632812 L 23.273438 17.6875 L 22.980469 17.808594 L 22.914062 17.839844 L 22.804688 17.902344 L 22.679688 18 L 22.621094 18.058594 L 22.550781 18.191406 L 22.519531 18.261719 L 22.507812 18.402344 L 22.507812 18.472656 L 22.554688 18.613281 L 22.695312 18.8125 L 22.746094 18.863281 L 22.859375 18.925781 L 22.917969 18.949219 L 23.089844 18.949219 L 23.140625 18.945312 L 23.261719 18.925781 L 23.328125 18.914062 L 23.488281 18.875 L 23.570312 18.855469 L 23.773438 18.800781 L 23.882812 18.773438 M 37.207031 18.75 L 37.273438 18.675781 L 37.339844 18.527344 L 37.363281 18.453125 L 37.34375 18.304688 L 37.324219 18.234375 L 37.222656 18.09375 L 37.164062 18.023438 L 36.988281 17.890625 L 36.890625 17.828125 L 36.644531 17.710938 L 36.511719 17.652344 L 36.199219 17.546875 L 36.035156 17.5 L 35.664062 17.414062 L 35.039062 17.3125 L 34.875 17.289062 L 34.578125 17.261719 L 34.4375 17.25 L 34.1875 17.242188 L 34.066406 17.238281 L 33.855469 17.246094 L 33.753906 17.253906 L 33.582031 17.285156 L 33.5 17.300781 L 33.367188 17.351562 L 33.300781 17.375 L 33.195312 17.445312 L 33.148438 17.484375 L 33.074219 17.574219 L 32.992188 17.738281 L 32.96875 17.808594 L 32.941406 17.917969 L 32.933594 17.96875 L 32.945312 18.050781 L 32.957031 18.089844 L 33.011719 18.167969 L 33.148438 18.292969 L 33.203125 18.335938 L 33.328125 18.402344 L 33.394531 18.433594 L 33.5625 18.472656 L 33.65625 18.488281 L 33.898438 18.507812 L 34.378906 18.519531 L 34.53125 18.523438 L 34.828125 18.535156 L 34.96875 18.546875 L 35.238281 18.578125 L 35.367188 18.597656 L 35.605469 18.648438 L 35.917969 18.738281 L 36.015625 18.777344 L 36.273438 18.859375 L 36.414062 18.902344 L 36.554688 18.9375 L 36.761719 18.957031 L 36.859375 18.957031 L 37.011719 18.90625 L 37.082031 18.871094 Z M 37.207031 18.75 "/>
</g>
</svg>
