<?xml version="1.0" encoding="UTF-8"?>
<svg xmlns="http://www.w3.org/2000/svg" xmlns:xlink="http://www.w3.org/1999/xlink" width="85px" height="px" viewBox="0 0 85 85" version="1.1">
<g id="surface1">
<path style=" stroke:none;fill-rule:nonzero;fill:rgb(0%,0%,0%);fill-opacity:1;" d="M 42.5 0 C 19.066406 0 0 19.066406 0 42.5 C 0 65.933594 19.066406 85 42.5 85 C 65.933594 85 85 65.933594 85 42.5 C 85 19.066406 65.933594 0 42.5 0 Z M 67.292969 31.875 C 67.292969 45.542969 56.171875 56.667969 42.5 56.667969 C 28.828125 56.667969 17.707031 45.542969 17.707031 31.875 C 17.707031 18.207031 28.828125 7.082031 42.5 7.082031 C 56.171875 7.082031 67.292969 18.207031 67.292969 31.875 Z M 42.5 77.917969 C 22.972656 77.917969 7.082031 62.027344 7.082031 42.5 C 7.082031 36.546875 8.5625 30.933594 11.171875 26 C 10.8125 27.90625 10.625 29.867188 10.625 31.875 C 10.625 49.453125 24.925781 63.75 42.5 63.75 C 60.074219 63.75 74.375 49.453125 74.375 31.875 C 74.375 29.867188 74.1875 27.90625 73.828125 26 C 76.4375 30.929688 77.917969 36.542969 77.917969 42.5 C 77.917969 62.027344 62.027344 77.917969 42.5 77.917969 Z M 30.105469 37.1875 C 30.105469 44.023438 35.664062 49.582031 42.5 49.582031 C 49.335938 49.582031 54.894531 44.023438 54.894531 37.1875 C 54.894531 33.515625 53.292969 30.214844 50.746094 27.941406 C 52.234375 26.113281 53.125 23.78125 53.125 21.25 C 53.125 15.390625 48.359375 10.625 42.5 10.625 C 36.640625 10.625 31.875 15.390625 31.875 21.25 C 31.875 23.785156 32.765625 26.113281 34.253906 27.941406 C 31.707031 30.210938 30.105469 33.515625 30.105469 37.1875 Z M 42.5 42.5 C 39.570312 42.5 37.1875 40.117188 37.1875 37.1875 C 37.1875 34.257812 39.570312 31.875 42.5 31.875 C 45.429688 31.875 47.8125 34.257812 47.8125 37.1875 C 47.8125 40.117188 45.429688 42.5 42.5 42.5 Z M 38.957031 21.25 C 38.957031 19.296875 40.546875 17.707031 42.5 17.707031 C 44.453125 17.707031 46.042969 19.296875 46.042969 21.25 C 46.042969 23.203125 44.453125 24.792969 42.5 24.792969 C 40.546875 24.792969 38.957031 23.203125 38.957031 21.25 Z M 38.957031 21.25 "/>
</g>
</svg>
