<?xml version="1.0" encoding="UTF-8"?>
<svg xmlns="http://www.w3.org/2000/svg" xmlns:xlink="http://www.w3.org/1999/xlink" width="30px" height="30px" viewBox="0 0 30 30" version="1.1">
<g id="surface1">
<path style=" stroke:none;fill-rule:nonzero;fill:rgb(0%,0%,0%);fill-opacity:1;" d="M 16.960938 0.46875 L 17.503906 0.46875 L 17.886719 0.5 L 18.265625 0.554688 L 18.574219 0.644531 L 18.867188 0.761719 L 19.203125 0.921875 L 19.511719 1.113281 L 19.773438 1.304688 L 20.007812 1.492188 L 20.1875 1.65625 L 20.304688 1.773438 L 20.332031 1.789062 L 20.332031 1.816406 L 20.359375 1.816406 L 20.359375 1.84375 L 20.390625 1.84375 L 20.492188 1.960938 L 20.539062 2.007812 L 20.539062 2.035156 L 20.566406 2.035156 L 20.726562 2.242188 L 20.917969 2.492188 L 21.078125 2.726562 L 21.269531 3.015625 L 21.445312 3.3125 L 21.621094 3.632812 L 21.796875 3.96875 L 22.015625 4.453125 L 22.207031 4.921875 L 22.398438 5.421875 L 22.574219 5.945312 L 22.765625 6.578125 L 22.96875 7.308594 L 23.171875 8.144531 L 23.363281 9.054688 L 23.585938 10.253906 L 23.789062 11.632812 L 23.949219 12.949219 L 24.054688 13.929688 L 24.183594 15.554688 L 24.257812 16.671875 L 24.300781 17.609375 L 24.34375 19.042969 L 24.375 20.507812 L 24.390625 23.117188 L 24.417969 23.1875 L 24.757812 23.378906 L 25.0625 23.570312 L 25.3125 23.746094 L 25.488281 23.863281 L 25.957031 24.214844 L 26.164062 24.390625 L 26.324219 24.523438 L 26.515625 24.695312 L 26.632812 24.800781 L 26.894531 25.0625 L 26.996094 25.179688 L 27.171875 25.386719 L 27.347656 25.605469 L 27.464844 25.765625 L 27.730469 26.164062 L 27.859375 26.398438 L 28.039062 26.734375 L 28.199219 27.101562 L 28.316406 27.421875 L 28.460938 27.949219 L 28.535156 28.34375 L 28.578125 28.769531 L 28.578125 29.164062 L 28.535156 29.296875 L 28.460938 29.382812 L 28.300781 29.457031 L 28.167969 29.488281 L 27.890625 29.488281 L 27.816406 29.445312 L 27.730469 29.296875 L 27.671875 29.121094 L 27.582031 28.507812 L 27.507812 28.125 L 27.378906 27.671875 L 27.261719 27.347656 L 27.054688 26.921875 L 26.835938 26.558594 L 26.675781 26.324219 L 26.515625 26.117188 L 26.351562 25.929688 L 26.21875 25.765625 L 26.117188 25.664062 L 26.015625 25.546875 L 25.914062 25.445312 L 25.796875 25.34375 L 25.632812 25.195312 L 25.472656 25.0625 L 25.210938 24.859375 L 25.0625 24.757812 L 24.886719 24.625 L 24.59375 24.417969 L 24.390625 24.289062 L 24.359375 24.34375 L 24.300781 24.566406 L 24.199219 24.800781 L 24.054688 25.046875 L 23.773438 25.460938 L 23.613281 25.664062 L 23.480469 25.8125 L 23.378906 25.929688 L 23.21875 26.101562 L 23.042969 26.28125 L 23.011719 26.28125 L 23.011719 26.308594 L 22.894531 26.410156 L 22.765625 26.542969 L 22.53125 26.75 L 22.382812 26.867188 L 22.191406 27.027344 L 21.929688 27.21875 L 21.722656 27.363281 L 21.488281 27.523438 L 21.242188 27.6875 L 20.890625 27.890625 L 20.683594 28.007812 L 20.464844 28.125 L 20.125 28.285156 L 19.671875 28.492188 L 19.085938 28.710938 L 18.664062 28.84375 L 18.164062 28.976562 L 17.871094 29.019531 L 17.59375 29.019531 L 17.503906 28.976562 L 17.417969 28.871094 L 17.359375 28.726562 L 17.34375 28.636719 L 17.328125 27.933594 L 17.3125 25.605469 L 17.3125 21.476562 L 17.328125 19.820312 L 17.34375 19.46875 L 17.386719 19.378906 L 17.492188 19.292969 L 17.664062 19.234375 L 17.871094 19.234375 L 18.03125 19.277344 L 18.207031 19.367188 L 18.25 19.4375 L 18.265625 19.613281 L 18.28125 27.992188 L 18.546875 27.90625 L 18.835938 27.789062 L 19.21875 27.65625 L 19.703125 27.453125 L 20.1875 27.21875 L 20.539062 27.011719 L 20.742188 26.894531 L 21.136719 26.632812 L 21.371094 26.453125 L 21.519531 26.335938 L 21.722656 26.175781 L 21.945312 25.972656 L 22.0625 25.867188 L 22.222656 25.707031 L 22.308594 25.632812 L 22.414062 25.515625 L 22.542969 25.386719 L 22.660156 25.238281 L 22.792969 25.09375 L 23.101562 24.695312 L 23.246094 24.476562 L 23.363281 24.273438 L 23.394531 24.183594 L 23.40625 24.082031 L 23.40625 21.242188 L 23.378906 19.789062 L 23.335938 18.265625 L 23.277344 16.832031 L 23.21875 15.804688 L 23.144531 14.824219 L 23.027344 13.5625 L 22.867188 12.144531 L 22.734375 11.117188 L 22.648438 10.503906 L 22.53125 9.800781 L 22.351562 8.921875 L 22.179688 8.085938 L 21.929688 7.074219 L 21.695312 6.285156 L 21.519531 5.742188 L 21.269531 5.082031 L 21.050781 4.570312 L 20.800781 4.058594 L 20.609375 3.707031 L 20.433594 3.429688 L 20.273438 3.179688 L 20.097656 2.929688 L 19.964844 2.769531 L 19.804688 2.578125 L 19.539062 2.3125 L 19.378906 2.183594 L 19.234375 2.066406 L 18.925781 1.859375 L 18.664062 1.714844 L 18.367188 1.597656 L 18.0625 1.507812 L 17.753906 1.449219 L 17.359375 1.421875 L 17.050781 1.421875 L 16.671875 1.449219 L 16.390625 1.492188 L 16.023438 1.582031 L 15.71875 1.683594 L 15.351562 1.859375 L 15.132812 1.992188 L 14.664062 2.300781 L 14.5625 2.34375 L 14.445312 2.34375 L 14.265625 2.257812 L 14.0625 2.125 L 13.8125 2.007812 L 13.507812 1.917969 L 13.316406 1.890625 L 12.816406 1.890625 L 12.453125 1.960938 L 12.101562 2.078125 L 11.703125 2.269531 L 11.515625 2.386719 L 11.324219 2.519531 L 11.089844 2.710938 L 11.046875 2.726562 L 11.046875 2.753906 L 10.929688 2.855469 L 10.78125 2.988281 L 10.578125 3.195312 L 10.472656 3.3125 L 10.328125 3.484375 L 10.136719 3.734375 L 10.035156 3.867188 L 9.84375 4.132812 L 9.460938 4.773438 L 9.289062 5.113281 L 9.171875 5.347656 L 8.980469 5.757812 L 8.863281 6.035156 L 8.671875 6.503906 L 8.421875 7.207031 L 8.246094 7.765625 L 8.042969 8.496094 L 7.9375 8.890625 L 7.75 9.710938 L 7.558594 10.707031 L 7.457031 11.351562 L 7.324219 12.335938 L 7.25 12.949219 L 7.179688 13.710938 L 7.046875 15.234375 L 7.015625 15.734375 L 6.988281 16.492188 L 6.957031 17.898438 L 6.957031 19.703125 L 6.972656 20.65625 L 7 21.957031 L 7 22.515625 L 7.207031 22.425781 L 7.515625 22.308594 L 8.027344 22.117188 L 8.320312 22 L 9.316406 21.59375 L 9.875 21.34375 L 10.164062 21.195312 L 10.429688 21.050781 L 10.707031 20.875 L 10.984375 20.667969 L 11.148438 20.539062 L 11.21875 20.464844 L 11.25 20.464844 L 11.25 20.433594 L 11.28125 20.433594 L 11.28125 20.40625 L 11.308594 20.40625 L 11.308594 20.375 L 11.335938 20.375 L 11.367188 20.316406 L 11.46875 20.1875 L 11.570312 19.964844 L 11.644531 19.746094 L 11.675781 19.585938 L 11.6875 19.351562 L 11.703125 17.972656 L 11.675781 17.855469 L 11.570312 17.726562 L 11.570312 17.695312 L 11.542969 17.695312 L 11.441406 17.578125 L 11.308594 17.445312 L 11.207031 17.328125 L 11.03125 17.125 L 10.839844 16.890625 L 10.648438 16.625 L 10.414062 16.273438 L 10.28125 16.054688 L 10.136719 15.789062 L 10.003906 15.542969 L 9.8125 15.117188 L 9.609375 14.574219 L 9.476562 14.136719 L 9.390625 13.871094 L 9.390625 13.84375 L 9.300781 13.8125 L 9.15625 13.742188 L 9.023438 13.667969 L 8.832031 13.519531 L 8.585938 13.273438 L 8.421875 13.050781 L 8.246094 12.730469 L 8.128906 12.421875 L 8.070312 12.230469 L 8 11.867188 L 7.96875 11.570312 L 7.96875 10.898438 L 8 10.648438 L 8.070312 10.3125 L 8.144531 10.109375 L 8.261719 9.84375 L 8.378906 9.640625 L 8.511719 9.492188 L 8.65625 9.417969 L 8.875 9.359375 L 9.097656 9.316406 L 9.214844 9.242188 L 9.316406 9.039062 L 9.34375 8.847656 L 9.375 8.203125 L 9.417969 7.808594 L 9.507812 7.28125 L 9.625 6.8125 L 9.769531 6.371094 L 9.902344 6.0625 L 10.019531 5.828125 L 10.136719 5.609375 L 10.34375 5.316406 L 10.472656 5.15625 L 10.664062 4.964844 L 10.882812 4.820312 L 11.074219 4.730469 L 11.175781 4.703125 L 11.410156 4.6875 L 11.542969 4.730469 L 11.617188 4.804688 L 11.675781 4.964844 L 11.75 5.476562 L 11.835938 6.152344 L 11.9375 6.796875 L 12.027344 7.207031 L 12.1875 7.808594 L 12.335938 8.234375 L 12.4375 8.421875 L 12.570312 8.511719 L 12.757812 8.585938 L 13.300781 8.730469 L 14.003906 8.90625 L 14.707031 9.054688 L 15.4375 9.183594 L 16.15625 9.289062 L 16.933594 9.375 L 17.519531 9.417969 L 18.105469 9.449219 L 18.71875 9.460938 L 19.367188 9.460938 L 20.140625 9.433594 L 20.40625 9.417969 L 20.992188 9.417969 L 21.226562 9.476562 L 21.445312 9.59375 L 21.679688 9.828125 L 21.839844 10.136719 L 21.929688 10.398438 L 21.972656 10.632812 L 22 10.929688 L 22 11.570312 L 21.957031 12.011719 L 21.898438 12.289062 L 21.828125 12.507812 L 21.710938 12.789062 L 21.519531 13.09375 L 21.34375 13.328125 L 21.269531 13.417969 L 21.167969 13.507812 L 21.136719 13.507812 L 21.136719 13.535156 L 20.945312 13.667969 L 20.773438 13.769531 L 20.59375 13.859375 L 20.464844 14.28125 L 20.347656 14.648438 L 20.242188 14.925781 L 20.070312 15.351562 L 19.953125 15.585938 L 19.847656 15.804688 L 19.730469 16.011719 L 19.496094 16.40625 L 19.320312 16.65625 L 18.96875 17.125 L 18.867188 17.257812 L 18.835938 17.257812 L 18.808594 17.3125 L 18.707031 17.417969 L 18.601562 17.535156 L 18.367188 17.769531 L 18.265625 17.84375 L 18.195312 17.914062 L 18.046875 18.046875 L 17.769531 18.238281 L 17.609375 18.355469 L 17.328125 18.53125 L 17.09375 18.664062 L 16.742188 18.835938 L 16.390625 18.96875 L 15.921875 19.101562 L 15.601562 19.160156 L 15.351562 19.1875 L 14.648438 19.1875 L 14.265625 19.144531 L 13.929688 19.070312 L 13.492188 18.941406 L 13.140625 18.792969 L 12.832031 18.632812 L 12.65625 18.546875 L 12.65625 19.277344 L 12.625 19.746094 L 12.582031 20.054688 L 12.523438 20.230469 L 12.378906 20.539062 L 12.230469 20.757812 L 12.113281 20.917969 L 11.984375 21.078125 L 11.777344 21.285156 L 11.527344 21.476562 L 11.25 21.664062 L 10.984375 21.828125 L 10.695312 21.972656 L 10.722656 22.03125 L 10.839844 22.132812 L 11.074219 22.28125 L 11.441406 22.5 L 11.675781 22.617188 L 12.039062 22.792969 L 12.480469 22.96875 L 12.933594 23.117188 L 13.402344 23.234375 L 13.902344 23.320312 L 14.429688 23.378906 L 14.664062 23.394531 L 15.9375 23.394531 L 16.097656 23.4375 L 16.214844 23.539062 L 16.273438 23.65625 L 16.304688 23.746094 L 16.304688 23.949219 L 16.246094 24.109375 L 16.128906 24.226562 L 15.996094 24.289062 L 15.761719 24.316406 L 15.234375 24.34375 L 14.589844 24.34375 L 13.976562 24.300781 L 13.445312 24.226562 L 13.050781 24.140625 L 12.65625 24.039062 L 12.128906 23.863281 L 11.820312 23.746094 L 11.398438 23.554688 L 11.101562 23.40625 L 10.75 23.203125 L 10.546875 23.085938 L 10.152344 22.820312 L 9.945312 22.675781 L 9.785156 22.558594 L 9.695312 22.5 L 9.59375 22.5 L 9.417969 22.585938 L 8.949219 22.765625 L 8.46875 22.953125 L 8.070312 23.117188 L 7.765625 23.234375 L 7.367188 23.394531 L 7.148438 23.480469 L 6.59375 23.730469 L 6.253906 23.890625 L 5.960938 24.054688 L 5.609375 24.257812 L 5.347656 24.433594 L 4.964844 24.695312 L 4.789062 24.828125 L 4.554688 25.019531 L 4.410156 25.136719 L 4.292969 25.253906 L 4.175781 25.355469 L 3.835938 25.695312 L 3.734375 25.8125 L 3.589844 25.972656 L 3.429688 26.175781 L 3.296875 26.335938 L 3.148438 26.558594 L 2.898438 26.984375 L 2.710938 27.378906 L 2.578125 27.730469 L 2.445312 28.242188 L 2.386719 28.5625 L 2.300781 29.148438 L 2.242188 29.355469 L 2.183594 29.445312 L 2.109375 29.472656 L 1.90625 29.5 L 1.683594 29.472656 L 1.566406 29.414062 L 1.492188 29.328125 L 1.421875 29.179688 L 1.40625 29.09375 L 1.40625 28.710938 L 1.4375 28.359375 L 1.492188 27.976562 L 1.566406 27.699219 L 1.699219 27.273438 L 1.816406 26.996094 L 2.007812 26.585938 L 2.183594 26.28125 L 2.285156 26.117188 L 2.402344 25.941406 L 2.535156 25.75 L 2.726562 25.503906 L 2.855469 25.355469 L 2.960938 25.238281 L 3.089844 25.09375 L 3.195312 24.976562 L 3.296875 24.875 L 3.398438 24.757812 L 3.515625 24.640625 L 3.546875 24.640625 L 3.546875 24.609375 L 3.707031 24.476562 L 3.851562 24.34375 L 4.015625 24.214844 L 4.25 24.023438 L 4.511719 23.832031 L 4.820312 23.628906 L 5.070312 23.46875 L 5.390625 23.277344 L 5.828125 23.042969 L 6.0625 22.910156 L 6.078125 22.894531 L 6.078125 22.617188 L 6.035156 21.605469 L 6.007812 20.726562 L 5.992188 20.007812 L 5.992188 17.460938 L 6.019531 16.421875 L 6.09375 14.984375 L 6.152344 14.136719 L 6.226562 13.316406 L 6.34375 12.261719 L 6.460938 11.398438 L 6.664062 10.164062 L 6.855469 9.226562 L 6.988281 8.671875 L 7.164062 7.96875 L 7.308594 7.46875 L 7.398438 7.179688 L 7.574219 6.648438 L 7.71875 6.253906 L 7.867188 5.875 L 8.042969 5.464844 L 8.277344 4.964844 L 8.394531 4.730469 L 8.585938 4.367188 L 8.757812 4.058594 L 8.921875 3.792969 L 9.097656 3.53125 L 9.273438 3.28125 L 9.460938 3.03125 L 9.609375 2.84375 L 9.640625 2.796875 L 9.667969 2.796875 L 9.695312 2.738281 L 9.828125 2.59375 L 9.929688 2.476562 L 10.035156 2.375 L 10.121094 2.269531 L 10.238281 2.167969 L 10.34375 2.066406 L 10.503906 1.933594 L 10.722656 1.757812 L 10.972656 1.582031 L 11.234375 1.421875 L 11.515625 1.273438 L 11.867188 1.128906 L 12.203125 1.023438 L 12.613281 0.953125 L 12.921875 0.921875 L 13.242188 0.921875 L 13.636719 0.96875 L 13.945312 1.039062 L 14.28125 1.171875 L 14.429688 1.246094 L 14.515625 1.246094 L 14.839844 1.054688 L 15.234375 0.851562 L 15.644531 0.6875 L 16.011719 0.585938 L 16.230469 0.542969 L 16.726562 0.484375 Z M 10.839844 6.34375 L 10.765625 6.488281 L 10.648438 6.8125 L 10.578125 7.03125 L 10.488281 7.398438 L 10.414062 7.882812 L 10.328125 8.570312 L 10.253906 9.066406 L 10.195312 9.34375 L 10.121094 9.566406 L 10.035156 9.742188 L 9.917969 9.902344 L 9.800781 10.019531 L 9.578125 10.136719 L 9.140625 10.28125 L 9.082031 10.3125 L 8.992188 10.515625 L 8.9375 10.722656 L 8.90625 10.867188 L 8.890625 11.046875 L 8.890625 11.542969 L 8.964844 11.921875 L 9.097656 12.320312 L 9.214844 12.554688 L 9.390625 12.757812 L 9.460938 12.816406 L 9.726562 12.964844 L 10.046875 13.09375 L 10.152344 13.167969 L 10.238281 13.316406 L 10.34375 13.679688 L 10.515625 14.296875 L 10.632812 14.632812 L 10.8125 15.058594 L 11.015625 15.46875 L 11.175781 15.746094 L 11.382812 16.054688 L 11.585938 16.332031 L 11.703125 16.464844 L 11.835938 16.625 L 12.304688 17.09375 L 12.464844 17.226562 L 12.730469 17.429688 L 13.109375 17.679688 L 13.316406 17.796875 L 13.550781 17.914062 L 13.710938 17.988281 L 13.976562 18.089844 L 14.253906 18.179688 L 14.5625 18.238281 L 14.851562 18.265625 L 15.085938 18.265625 L 15.46875 18.222656 L 15.863281 18.132812 L 16.304688 17.972656 L 16.609375 17.828125 L 16.816406 17.710938 L 17.140625 17.503906 L 17.519531 17.210938 L 17.664062 17.078125 L 17.828125 16.949219 L 18.046875 16.726562 L 18.148438 16.609375 L 18.3125 16.421875 L 18.472656 16.214844 L 18.664062 15.953125 L 18.765625 15.789062 L 18.898438 15.570312 L 18.984375 15.410156 L 19.101562 15.175781 L 19.25 14.867188 L 19.421875 14.414062 L 19.570312 13.929688 L 19.703125 13.417969 L 19.773438 13.183594 L 19.847656 13.109375 L 20.054688 13.039062 L 20.359375 12.933594 L 20.539062 12.832031 L 20.699219 12.671875 L 20.828125 12.464844 L 20.933594 12.171875 L 21.019531 11.851562 L 21.0625 11.570312 L 21.078125 11.191406 L 21.050781 10.8125 L 20.992188 10.589844 L 20.933594 10.445312 L 20.859375 10.355469 L 20.816406 10.34375 L 20.65625 10.34375 L 19.953125 10.386719 L 19.554688 10.398438 L 18.398438 10.398438 L 17.621094 10.371094 L 16.890625 10.3125 L 15.804688 10.195312 L 15.21875 10.109375 L 14.382812 9.960938 L 13.460938 9.757812 L 12.789062 9.578125 L 12.347656 9.449219 L 12.113281 9.359375 L 11.9375 9.273438 L 11.792969 9.140625 L 11.6875 9.007812 L 11.527344 8.730469 L 11.367188 8.335938 L 11.234375 7.910156 L 11.101562 7.398438 L 11.015625 7.015625 L 10.914062 6.460938 L 10.867188 6.34375 Z M 10.839844 6.34375 "/>
</g>
</svg>
